%TF.GenerationSoftware,KiCad,Pcbnew,8.0.2*%
%TF.CreationDate,2024-08-26T14:36:41-03:00*%
%TF.ProjectId,fechadura_eletronica,66656368-6164-4757-9261-5f656c657472,rev?*%
%TF.SameCoordinates,Original*%
%TF.FileFunction,Legend,Top*%
%TF.FilePolarity,Positive*%
%FSLAX46Y46*%
G04 Gerber Fmt 4.6, Leading zero omitted, Abs format (unit mm)*
G04 Created by KiCad (PCBNEW 8.0.2) date 2024-08-26 14:36:41*
%MOMM*%
%LPD*%
G01*
G04 APERTURE LIST*
%ADD10C,0.150000*%
%ADD11C,0.120000*%
%ADD12C,0.127000*%
%ADD13C,0.200000*%
G04 APERTURE END LIST*
D10*
X131666666Y-128249819D02*
X131666666Y-128964104D01*
X131666666Y-128964104D02*
X131619047Y-129106961D01*
X131619047Y-129106961D02*
X131523809Y-129202200D01*
X131523809Y-129202200D02*
X131380952Y-129249819D01*
X131380952Y-129249819D02*
X131285714Y-129249819D01*
X132619047Y-128249819D02*
X132142857Y-128249819D01*
X132142857Y-128249819D02*
X132095238Y-128726009D01*
X132095238Y-128726009D02*
X132142857Y-128678390D01*
X132142857Y-128678390D02*
X132238095Y-128630771D01*
X132238095Y-128630771D02*
X132476190Y-128630771D01*
X132476190Y-128630771D02*
X132571428Y-128678390D01*
X132571428Y-128678390D02*
X132619047Y-128726009D01*
X132619047Y-128726009D02*
X132666666Y-128821247D01*
X132666666Y-128821247D02*
X132666666Y-129059342D01*
X132666666Y-129059342D02*
X132619047Y-129154580D01*
X132619047Y-129154580D02*
X132571428Y-129202200D01*
X132571428Y-129202200D02*
X132476190Y-129249819D01*
X132476190Y-129249819D02*
X132238095Y-129249819D01*
X132238095Y-129249819D02*
X132142857Y-129202200D01*
X132142857Y-129202200D02*
X132095238Y-129154580D01*
X174416666Y-130289819D02*
X174083333Y-129813628D01*
X173845238Y-130289819D02*
X173845238Y-129289819D01*
X173845238Y-129289819D02*
X174226190Y-129289819D01*
X174226190Y-129289819D02*
X174321428Y-129337438D01*
X174321428Y-129337438D02*
X174369047Y-129385057D01*
X174369047Y-129385057D02*
X174416666Y-129480295D01*
X174416666Y-129480295D02*
X174416666Y-129623152D01*
X174416666Y-129623152D02*
X174369047Y-129718390D01*
X174369047Y-129718390D02*
X174321428Y-129766009D01*
X174321428Y-129766009D02*
X174226190Y-129813628D01*
X174226190Y-129813628D02*
X173845238Y-129813628D01*
X174845238Y-129766009D02*
X175178571Y-129766009D01*
X175321428Y-130289819D02*
X174845238Y-130289819D01*
X174845238Y-130289819D02*
X174845238Y-129289819D01*
X174845238Y-129289819D02*
X175321428Y-129289819D01*
X176083333Y-129766009D02*
X175750000Y-129766009D01*
X175750000Y-130289819D02*
X175750000Y-129289819D01*
X175750000Y-129289819D02*
X176226190Y-129289819D01*
X176750000Y-129289819D02*
X176750000Y-129527914D01*
X176511905Y-129432676D02*
X176750000Y-129527914D01*
X176750000Y-129527914D02*
X176988095Y-129432676D01*
X176607143Y-129718390D02*
X176750000Y-129527914D01*
X176750000Y-129527914D02*
X176892857Y-129718390D01*
X177511905Y-129289819D02*
X177511905Y-129527914D01*
X177273810Y-129432676D02*
X177511905Y-129527914D01*
X177511905Y-129527914D02*
X177750000Y-129432676D01*
X177369048Y-129718390D02*
X177511905Y-129527914D01*
X177511905Y-129527914D02*
X177654762Y-129718390D01*
X104916666Y-60789819D02*
X104583333Y-60313628D01*
X104345238Y-60789819D02*
X104345238Y-59789819D01*
X104345238Y-59789819D02*
X104726190Y-59789819D01*
X104726190Y-59789819D02*
X104821428Y-59837438D01*
X104821428Y-59837438D02*
X104869047Y-59885057D01*
X104869047Y-59885057D02*
X104916666Y-59980295D01*
X104916666Y-59980295D02*
X104916666Y-60123152D01*
X104916666Y-60123152D02*
X104869047Y-60218390D01*
X104869047Y-60218390D02*
X104821428Y-60266009D01*
X104821428Y-60266009D02*
X104726190Y-60313628D01*
X104726190Y-60313628D02*
X104345238Y-60313628D01*
X105345238Y-60266009D02*
X105678571Y-60266009D01*
X105821428Y-60789819D02*
X105345238Y-60789819D01*
X105345238Y-60789819D02*
X105345238Y-59789819D01*
X105345238Y-59789819D02*
X105821428Y-59789819D01*
X106583333Y-60266009D02*
X106250000Y-60266009D01*
X106250000Y-60789819D02*
X106250000Y-59789819D01*
X106250000Y-59789819D02*
X106726190Y-59789819D01*
X107250000Y-59789819D02*
X107250000Y-60027914D01*
X107011905Y-59932676D02*
X107250000Y-60027914D01*
X107250000Y-60027914D02*
X107488095Y-59932676D01*
X107107143Y-60218390D02*
X107250000Y-60027914D01*
X107250000Y-60027914D02*
X107392857Y-60218390D01*
X108011905Y-59789819D02*
X108011905Y-60027914D01*
X107773810Y-59932676D02*
X108011905Y-60027914D01*
X108011905Y-60027914D02*
X108250000Y-59932676D01*
X107869048Y-60218390D02*
X108011905Y-60027914D01*
X108011905Y-60027914D02*
X108154762Y-60218390D01*
X104916666Y-130289819D02*
X104583333Y-129813628D01*
X104345238Y-130289819D02*
X104345238Y-129289819D01*
X104345238Y-129289819D02*
X104726190Y-129289819D01*
X104726190Y-129289819D02*
X104821428Y-129337438D01*
X104821428Y-129337438D02*
X104869047Y-129385057D01*
X104869047Y-129385057D02*
X104916666Y-129480295D01*
X104916666Y-129480295D02*
X104916666Y-129623152D01*
X104916666Y-129623152D02*
X104869047Y-129718390D01*
X104869047Y-129718390D02*
X104821428Y-129766009D01*
X104821428Y-129766009D02*
X104726190Y-129813628D01*
X104726190Y-129813628D02*
X104345238Y-129813628D01*
X105345238Y-129766009D02*
X105678571Y-129766009D01*
X105821428Y-130289819D02*
X105345238Y-130289819D01*
X105345238Y-130289819D02*
X105345238Y-129289819D01*
X105345238Y-129289819D02*
X105821428Y-129289819D01*
X106583333Y-129766009D02*
X106250000Y-129766009D01*
X106250000Y-130289819D02*
X106250000Y-129289819D01*
X106250000Y-129289819D02*
X106726190Y-129289819D01*
X107250000Y-129289819D02*
X107250000Y-129527914D01*
X107011905Y-129432676D02*
X107250000Y-129527914D01*
X107250000Y-129527914D02*
X107488095Y-129432676D01*
X107107143Y-129718390D02*
X107250000Y-129527914D01*
X107250000Y-129527914D02*
X107392857Y-129718390D01*
X108011905Y-129289819D02*
X108011905Y-129527914D01*
X107773810Y-129432676D02*
X108011905Y-129527914D01*
X108011905Y-129527914D02*
X108250000Y-129432676D01*
X107869048Y-129718390D02*
X108011905Y-129527914D01*
X108011905Y-129527914D02*
X108154762Y-129718390D01*
X174416666Y-60789819D02*
X174083333Y-60313628D01*
X173845238Y-60789819D02*
X173845238Y-59789819D01*
X173845238Y-59789819D02*
X174226190Y-59789819D01*
X174226190Y-59789819D02*
X174321428Y-59837438D01*
X174321428Y-59837438D02*
X174369047Y-59885057D01*
X174369047Y-59885057D02*
X174416666Y-59980295D01*
X174416666Y-59980295D02*
X174416666Y-60123152D01*
X174416666Y-60123152D02*
X174369047Y-60218390D01*
X174369047Y-60218390D02*
X174321428Y-60266009D01*
X174321428Y-60266009D02*
X174226190Y-60313628D01*
X174226190Y-60313628D02*
X173845238Y-60313628D01*
X174845238Y-60266009D02*
X175178571Y-60266009D01*
X175321428Y-60789819D02*
X174845238Y-60789819D01*
X174845238Y-60789819D02*
X174845238Y-59789819D01*
X174845238Y-59789819D02*
X175321428Y-59789819D01*
X176083333Y-60266009D02*
X175750000Y-60266009D01*
X175750000Y-60789819D02*
X175750000Y-59789819D01*
X175750000Y-59789819D02*
X176226190Y-59789819D01*
X176750000Y-59789819D02*
X176750000Y-60027914D01*
X176511905Y-59932676D02*
X176750000Y-60027914D01*
X176750000Y-60027914D02*
X176988095Y-59932676D01*
X176607143Y-60218390D02*
X176750000Y-60027914D01*
X176750000Y-60027914D02*
X176892857Y-60218390D01*
X177511905Y-59789819D02*
X177511905Y-60027914D01*
X177273810Y-59932676D02*
X177511905Y-60027914D01*
X177511905Y-60027914D02*
X177750000Y-59932676D01*
X177369048Y-60218390D02*
X177511905Y-60027914D01*
X177511905Y-60027914D02*
X177654762Y-60218390D01*
X118654580Y-72201666D02*
X118702200Y-72249285D01*
X118702200Y-72249285D02*
X118749819Y-72392142D01*
X118749819Y-72392142D02*
X118749819Y-72487380D01*
X118749819Y-72487380D02*
X118702200Y-72630237D01*
X118702200Y-72630237D02*
X118606961Y-72725475D01*
X118606961Y-72725475D02*
X118511723Y-72773094D01*
X118511723Y-72773094D02*
X118321247Y-72820713D01*
X118321247Y-72820713D02*
X118178390Y-72820713D01*
X118178390Y-72820713D02*
X117987914Y-72773094D01*
X117987914Y-72773094D02*
X117892676Y-72725475D01*
X117892676Y-72725475D02*
X117797438Y-72630237D01*
X117797438Y-72630237D02*
X117749819Y-72487380D01*
X117749819Y-72487380D02*
X117749819Y-72392142D01*
X117749819Y-72392142D02*
X117797438Y-72249285D01*
X117797438Y-72249285D02*
X117845057Y-72201666D01*
X117749819Y-71296904D02*
X117749819Y-71773094D01*
X117749819Y-71773094D02*
X118226009Y-71820713D01*
X118226009Y-71820713D02*
X118178390Y-71773094D01*
X118178390Y-71773094D02*
X118130771Y-71677856D01*
X118130771Y-71677856D02*
X118130771Y-71439761D01*
X118130771Y-71439761D02*
X118178390Y-71344523D01*
X118178390Y-71344523D02*
X118226009Y-71296904D01*
X118226009Y-71296904D02*
X118321247Y-71249285D01*
X118321247Y-71249285D02*
X118559342Y-71249285D01*
X118559342Y-71249285D02*
X118654580Y-71296904D01*
X118654580Y-71296904D02*
X118702200Y-71344523D01*
X118702200Y-71344523D02*
X118749819Y-71439761D01*
X118749819Y-71439761D02*
X118749819Y-71677856D01*
X118749819Y-71677856D02*
X118702200Y-71773094D01*
X118702200Y-71773094D02*
X118654580Y-71820713D01*
X118654580Y-79901666D02*
X118702200Y-79949285D01*
X118702200Y-79949285D02*
X118749819Y-80092142D01*
X118749819Y-80092142D02*
X118749819Y-80187380D01*
X118749819Y-80187380D02*
X118702200Y-80330237D01*
X118702200Y-80330237D02*
X118606961Y-80425475D01*
X118606961Y-80425475D02*
X118511723Y-80473094D01*
X118511723Y-80473094D02*
X118321247Y-80520713D01*
X118321247Y-80520713D02*
X118178390Y-80520713D01*
X118178390Y-80520713D02*
X117987914Y-80473094D01*
X117987914Y-80473094D02*
X117892676Y-80425475D01*
X117892676Y-80425475D02*
X117797438Y-80330237D01*
X117797438Y-80330237D02*
X117749819Y-80187380D01*
X117749819Y-80187380D02*
X117749819Y-80092142D01*
X117749819Y-80092142D02*
X117797438Y-79949285D01*
X117797438Y-79949285D02*
X117845057Y-79901666D01*
X118083152Y-79044523D02*
X118749819Y-79044523D01*
X117702200Y-79282618D02*
X118416485Y-79520713D01*
X118416485Y-79520713D02*
X118416485Y-78901666D01*
X130166667Y-71442200D02*
X130309524Y-71489819D01*
X130309524Y-71489819D02*
X130547619Y-71489819D01*
X130547619Y-71489819D02*
X130642857Y-71442200D01*
X130642857Y-71442200D02*
X130690476Y-71394580D01*
X130690476Y-71394580D02*
X130738095Y-71299342D01*
X130738095Y-71299342D02*
X130738095Y-71204104D01*
X130738095Y-71204104D02*
X130690476Y-71108866D01*
X130690476Y-71108866D02*
X130642857Y-71061247D01*
X130642857Y-71061247D02*
X130547619Y-71013628D01*
X130547619Y-71013628D02*
X130357143Y-70966009D01*
X130357143Y-70966009D02*
X130261905Y-70918390D01*
X130261905Y-70918390D02*
X130214286Y-70870771D01*
X130214286Y-70870771D02*
X130166667Y-70775533D01*
X130166667Y-70775533D02*
X130166667Y-70680295D01*
X130166667Y-70680295D02*
X130214286Y-70585057D01*
X130214286Y-70585057D02*
X130261905Y-70537438D01*
X130261905Y-70537438D02*
X130357143Y-70489819D01*
X130357143Y-70489819D02*
X130595238Y-70489819D01*
X130595238Y-70489819D02*
X130738095Y-70537438D01*
X131071429Y-70489819D02*
X131309524Y-71489819D01*
X131309524Y-71489819D02*
X131500000Y-70775533D01*
X131500000Y-70775533D02*
X131690476Y-71489819D01*
X131690476Y-71489819D02*
X131928572Y-70489819D01*
X132833333Y-71489819D02*
X132261905Y-71489819D01*
X132547619Y-71489819D02*
X132547619Y-70489819D01*
X132547619Y-70489819D02*
X132452381Y-70632676D01*
X132452381Y-70632676D02*
X132357143Y-70727914D01*
X132357143Y-70727914D02*
X132261905Y-70775533D01*
X136504819Y-111368333D02*
X137219104Y-111368333D01*
X137219104Y-111368333D02*
X137361961Y-111415952D01*
X137361961Y-111415952D02*
X137457200Y-111511190D01*
X137457200Y-111511190D02*
X137504819Y-111654047D01*
X137504819Y-111654047D02*
X137504819Y-111749285D01*
X136600057Y-110939761D02*
X136552438Y-110892142D01*
X136552438Y-110892142D02*
X136504819Y-110796904D01*
X136504819Y-110796904D02*
X136504819Y-110558809D01*
X136504819Y-110558809D02*
X136552438Y-110463571D01*
X136552438Y-110463571D02*
X136600057Y-110415952D01*
X136600057Y-110415952D02*
X136695295Y-110368333D01*
X136695295Y-110368333D02*
X136790533Y-110368333D01*
X136790533Y-110368333D02*
X136933390Y-110415952D01*
X136933390Y-110415952D02*
X137504819Y-110987380D01*
X137504819Y-110987380D02*
X137504819Y-110368333D01*
X149916666Y-124189819D02*
X149916666Y-124904104D01*
X149916666Y-124904104D02*
X149869047Y-125046961D01*
X149869047Y-125046961D02*
X149773809Y-125142200D01*
X149773809Y-125142200D02*
X149630952Y-125189819D01*
X149630952Y-125189819D02*
X149535714Y-125189819D01*
X150297619Y-124189819D02*
X150916666Y-124189819D01*
X150916666Y-124189819D02*
X150583333Y-124570771D01*
X150583333Y-124570771D02*
X150726190Y-124570771D01*
X150726190Y-124570771D02*
X150821428Y-124618390D01*
X150821428Y-124618390D02*
X150869047Y-124666009D01*
X150869047Y-124666009D02*
X150916666Y-124761247D01*
X150916666Y-124761247D02*
X150916666Y-124999342D01*
X150916666Y-124999342D02*
X150869047Y-125094580D01*
X150869047Y-125094580D02*
X150821428Y-125142200D01*
X150821428Y-125142200D02*
X150726190Y-125189819D01*
X150726190Y-125189819D02*
X150440476Y-125189819D01*
X150440476Y-125189819D02*
X150345238Y-125142200D01*
X150345238Y-125142200D02*
X150297619Y-125094580D01*
X114879819Y-109833333D02*
X115594104Y-109833333D01*
X115594104Y-109833333D02*
X115736961Y-109880952D01*
X115736961Y-109880952D02*
X115832200Y-109976190D01*
X115832200Y-109976190D02*
X115879819Y-110119047D01*
X115879819Y-110119047D02*
X115879819Y-110214285D01*
X115879819Y-108833333D02*
X115879819Y-109404761D01*
X115879819Y-109119047D02*
X114879819Y-109119047D01*
X114879819Y-109119047D02*
X115022676Y-109214285D01*
X115022676Y-109214285D02*
X115117914Y-109309523D01*
X115117914Y-109309523D02*
X115165533Y-109404761D01*
X173874819Y-88451666D02*
X173398628Y-88784999D01*
X173874819Y-89023094D02*
X172874819Y-89023094D01*
X172874819Y-89023094D02*
X172874819Y-88642142D01*
X172874819Y-88642142D02*
X172922438Y-88546904D01*
X172922438Y-88546904D02*
X172970057Y-88499285D01*
X172970057Y-88499285D02*
X173065295Y-88451666D01*
X173065295Y-88451666D02*
X173208152Y-88451666D01*
X173208152Y-88451666D02*
X173303390Y-88499285D01*
X173303390Y-88499285D02*
X173351009Y-88546904D01*
X173351009Y-88546904D02*
X173398628Y-88642142D01*
X173398628Y-88642142D02*
X173398628Y-89023094D01*
X173874819Y-87499285D02*
X173874819Y-88070713D01*
X173874819Y-87784999D02*
X172874819Y-87784999D01*
X172874819Y-87784999D02*
X173017676Y-87880237D01*
X173017676Y-87880237D02*
X173112914Y-87975475D01*
X173112914Y-87975475D02*
X173160533Y-88070713D01*
X110934819Y-126221904D02*
X111744342Y-126221904D01*
X111744342Y-126221904D02*
X111839580Y-126174285D01*
X111839580Y-126174285D02*
X111887200Y-126126666D01*
X111887200Y-126126666D02*
X111934819Y-126031428D01*
X111934819Y-126031428D02*
X111934819Y-125840952D01*
X111934819Y-125840952D02*
X111887200Y-125745714D01*
X111887200Y-125745714D02*
X111839580Y-125698095D01*
X111839580Y-125698095D02*
X111744342Y-125650476D01*
X111744342Y-125650476D02*
X110934819Y-125650476D01*
X111934819Y-124650476D02*
X111934819Y-125221904D01*
X111934819Y-124936190D02*
X110934819Y-124936190D01*
X110934819Y-124936190D02*
X111077676Y-125031428D01*
X111077676Y-125031428D02*
X111172914Y-125126666D01*
X111172914Y-125126666D02*
X111220533Y-125221904D01*
X127009580Y-120876666D02*
X127057200Y-120924285D01*
X127057200Y-120924285D02*
X127104819Y-121067142D01*
X127104819Y-121067142D02*
X127104819Y-121162380D01*
X127104819Y-121162380D02*
X127057200Y-121305237D01*
X127057200Y-121305237D02*
X126961961Y-121400475D01*
X126961961Y-121400475D02*
X126866723Y-121448094D01*
X126866723Y-121448094D02*
X126676247Y-121495713D01*
X126676247Y-121495713D02*
X126533390Y-121495713D01*
X126533390Y-121495713D02*
X126342914Y-121448094D01*
X126342914Y-121448094D02*
X126247676Y-121400475D01*
X126247676Y-121400475D02*
X126152438Y-121305237D01*
X126152438Y-121305237D02*
X126104819Y-121162380D01*
X126104819Y-121162380D02*
X126104819Y-121067142D01*
X126104819Y-121067142D02*
X126152438Y-120924285D01*
X126152438Y-120924285D02*
X126200057Y-120876666D01*
X126104819Y-120543332D02*
X126104819Y-119924285D01*
X126104819Y-119924285D02*
X126485771Y-120257618D01*
X126485771Y-120257618D02*
X126485771Y-120114761D01*
X126485771Y-120114761D02*
X126533390Y-120019523D01*
X126533390Y-120019523D02*
X126581009Y-119971904D01*
X126581009Y-119971904D02*
X126676247Y-119924285D01*
X126676247Y-119924285D02*
X126914342Y-119924285D01*
X126914342Y-119924285D02*
X127009580Y-119971904D01*
X127009580Y-119971904D02*
X127057200Y-120019523D01*
X127057200Y-120019523D02*
X127104819Y-120114761D01*
X127104819Y-120114761D02*
X127104819Y-120400475D01*
X127104819Y-120400475D02*
X127057200Y-120495713D01*
X127057200Y-120495713D02*
X127009580Y-120543332D01*
X110879819Y-76796904D02*
X111689342Y-76796904D01*
X111689342Y-76796904D02*
X111784580Y-76749285D01*
X111784580Y-76749285D02*
X111832200Y-76701666D01*
X111832200Y-76701666D02*
X111879819Y-76606428D01*
X111879819Y-76606428D02*
X111879819Y-76415952D01*
X111879819Y-76415952D02*
X111832200Y-76320714D01*
X111832200Y-76320714D02*
X111784580Y-76273095D01*
X111784580Y-76273095D02*
X111689342Y-76225476D01*
X111689342Y-76225476D02*
X110879819Y-76225476D01*
X110879819Y-75844523D02*
X110879819Y-75225476D01*
X110879819Y-75225476D02*
X111260771Y-75558809D01*
X111260771Y-75558809D02*
X111260771Y-75415952D01*
X111260771Y-75415952D02*
X111308390Y-75320714D01*
X111308390Y-75320714D02*
X111356009Y-75273095D01*
X111356009Y-75273095D02*
X111451247Y-75225476D01*
X111451247Y-75225476D02*
X111689342Y-75225476D01*
X111689342Y-75225476D02*
X111784580Y-75273095D01*
X111784580Y-75273095D02*
X111832200Y-75320714D01*
X111832200Y-75320714D02*
X111879819Y-75415952D01*
X111879819Y-75415952D02*
X111879819Y-75701666D01*
X111879819Y-75701666D02*
X111832200Y-75796904D01*
X111832200Y-75796904D02*
X111784580Y-75844523D01*
X137004819Y-90868333D02*
X137719104Y-90868333D01*
X137719104Y-90868333D02*
X137861961Y-90915952D01*
X137861961Y-90915952D02*
X137957200Y-91011190D01*
X137957200Y-91011190D02*
X138004819Y-91154047D01*
X138004819Y-91154047D02*
X138004819Y-91249285D01*
X137338152Y-89963571D02*
X138004819Y-89963571D01*
X136957200Y-90201666D02*
X137671485Y-90439761D01*
X137671485Y-90439761D02*
X137671485Y-89820714D01*
X143153095Y-64404819D02*
X143153095Y-65214342D01*
X143153095Y-65214342D02*
X143200714Y-65309580D01*
X143200714Y-65309580D02*
X143248333Y-65357200D01*
X143248333Y-65357200D02*
X143343571Y-65404819D01*
X143343571Y-65404819D02*
X143534047Y-65404819D01*
X143534047Y-65404819D02*
X143629285Y-65357200D01*
X143629285Y-65357200D02*
X143676904Y-65309580D01*
X143676904Y-65309580D02*
X143724523Y-65214342D01*
X143724523Y-65214342D02*
X143724523Y-64404819D01*
X144153095Y-64500057D02*
X144200714Y-64452438D01*
X144200714Y-64452438D02*
X144295952Y-64404819D01*
X144295952Y-64404819D02*
X144534047Y-64404819D01*
X144534047Y-64404819D02*
X144629285Y-64452438D01*
X144629285Y-64452438D02*
X144676904Y-64500057D01*
X144676904Y-64500057D02*
X144724523Y-64595295D01*
X144724523Y-64595295D02*
X144724523Y-64690533D01*
X144724523Y-64690533D02*
X144676904Y-64833390D01*
X144676904Y-64833390D02*
X144105476Y-65404819D01*
X144105476Y-65404819D02*
X144724523Y-65404819D01*
X111083333Y-92959580D02*
X111035714Y-93007200D01*
X111035714Y-93007200D02*
X110892857Y-93054819D01*
X110892857Y-93054819D02*
X110797619Y-93054819D01*
X110797619Y-93054819D02*
X110654762Y-93007200D01*
X110654762Y-93007200D02*
X110559524Y-92911961D01*
X110559524Y-92911961D02*
X110511905Y-92816723D01*
X110511905Y-92816723D02*
X110464286Y-92626247D01*
X110464286Y-92626247D02*
X110464286Y-92483390D01*
X110464286Y-92483390D02*
X110511905Y-92292914D01*
X110511905Y-92292914D02*
X110559524Y-92197676D01*
X110559524Y-92197676D02*
X110654762Y-92102438D01*
X110654762Y-92102438D02*
X110797619Y-92054819D01*
X110797619Y-92054819D02*
X110892857Y-92054819D01*
X110892857Y-92054819D02*
X111035714Y-92102438D01*
X111035714Y-92102438D02*
X111083333Y-92150057D01*
X112035714Y-93054819D02*
X111464286Y-93054819D01*
X111750000Y-93054819D02*
X111750000Y-92054819D01*
X111750000Y-92054819D02*
X111654762Y-92197676D01*
X111654762Y-92197676D02*
X111559524Y-92292914D01*
X111559524Y-92292914D02*
X111464286Y-92340533D01*
X127259580Y-128916666D02*
X127307200Y-128964285D01*
X127307200Y-128964285D02*
X127354819Y-129107142D01*
X127354819Y-129107142D02*
X127354819Y-129202380D01*
X127354819Y-129202380D02*
X127307200Y-129345237D01*
X127307200Y-129345237D02*
X127211961Y-129440475D01*
X127211961Y-129440475D02*
X127116723Y-129488094D01*
X127116723Y-129488094D02*
X126926247Y-129535713D01*
X126926247Y-129535713D02*
X126783390Y-129535713D01*
X126783390Y-129535713D02*
X126592914Y-129488094D01*
X126592914Y-129488094D02*
X126497676Y-129440475D01*
X126497676Y-129440475D02*
X126402438Y-129345237D01*
X126402438Y-129345237D02*
X126354819Y-129202380D01*
X126354819Y-129202380D02*
X126354819Y-129107142D01*
X126354819Y-129107142D02*
X126402438Y-128964285D01*
X126402438Y-128964285D02*
X126450057Y-128916666D01*
X126450057Y-128535713D02*
X126402438Y-128488094D01*
X126402438Y-128488094D02*
X126354819Y-128392856D01*
X126354819Y-128392856D02*
X126354819Y-128154761D01*
X126354819Y-128154761D02*
X126402438Y-128059523D01*
X126402438Y-128059523D02*
X126450057Y-128011904D01*
X126450057Y-128011904D02*
X126545295Y-127964285D01*
X126545295Y-127964285D02*
X126640533Y-127964285D01*
X126640533Y-127964285D02*
X126783390Y-128011904D01*
X126783390Y-128011904D02*
X127354819Y-128583332D01*
X127354819Y-128583332D02*
X127354819Y-127964285D01*
X167619047Y-132916009D02*
X167761904Y-132963628D01*
X167761904Y-132963628D02*
X167809523Y-133011247D01*
X167809523Y-133011247D02*
X167857142Y-133106485D01*
X167857142Y-133106485D02*
X167857142Y-133249342D01*
X167857142Y-133249342D02*
X167809523Y-133344580D01*
X167809523Y-133344580D02*
X167761904Y-133392200D01*
X167761904Y-133392200D02*
X167666666Y-133439819D01*
X167666666Y-133439819D02*
X167285714Y-133439819D01*
X167285714Y-133439819D02*
X167285714Y-132439819D01*
X167285714Y-132439819D02*
X167619047Y-132439819D01*
X167619047Y-132439819D02*
X167714285Y-132487438D01*
X167714285Y-132487438D02*
X167761904Y-132535057D01*
X167761904Y-132535057D02*
X167809523Y-132630295D01*
X167809523Y-132630295D02*
X167809523Y-132725533D01*
X167809523Y-132725533D02*
X167761904Y-132820771D01*
X167761904Y-132820771D02*
X167714285Y-132868390D01*
X167714285Y-132868390D02*
X167619047Y-132916009D01*
X167619047Y-132916009D02*
X167285714Y-132916009D01*
X168190476Y-132439819D02*
X168857142Y-132439819D01*
X168857142Y-132439819D02*
X168190476Y-133439819D01*
X168190476Y-133439819D02*
X168857142Y-133439819D01*
X169761904Y-133439819D02*
X169190476Y-133439819D01*
X169476190Y-133439819D02*
X169476190Y-132439819D01*
X169476190Y-132439819D02*
X169380952Y-132582676D01*
X169380952Y-132582676D02*
X169285714Y-132677914D01*
X169285714Y-132677914D02*
X169190476Y-132725533D01*
X171929048Y-128398866D02*
X172690953Y-128398866D01*
X172310000Y-128779819D02*
X172310000Y-128017914D01*
D11*
%TO.C,J5*%
X136180000Y-134155000D02*
G75*
G02*
X132820000Y-134155000I-1680000J0D01*
G01*
X132820000Y-134155000D02*
G75*
G02*
X136180000Y-134155000I1680000J0D01*
G01*
X131035427Y-133471958D02*
G75*
G02*
X131035000Y-134839000I-1535427J-683042D01*
G01*
X130183318Y-135689756D02*
G75*
G02*
X129500000Y-135835000I-683318J1534756D01*
G01*
X129528805Y-135835253D02*
G75*
G02*
X128816000Y-135690000I-28806J1680254D01*
G01*
X128816958Y-132619573D02*
G75*
G02*
X130184000Y-132620000I683041J-1535420D01*
G01*
X127964573Y-134838042D02*
G75*
G02*
X127965000Y-133471000I1535420J683041D01*
G01*
X137060000Y-129795000D02*
X137060000Y-138215000D01*
X135775000Y-133086000D02*
X135728000Y-133132000D01*
X135570000Y-132880000D02*
X135535000Y-132916000D01*
X135500000Y-129855000D02*
X135500000Y-130855000D01*
X133500000Y-130855000D02*
X135500000Y-130855000D01*
X133500000Y-129855000D02*
X135500000Y-129855000D01*
X133500000Y-129855000D02*
X133500000Y-130855000D01*
X133466000Y-135394000D02*
X133431000Y-135429000D01*
X133273000Y-135178000D02*
X133226000Y-135224000D01*
X130500000Y-129855000D02*
X130500000Y-130855000D01*
X128500000Y-130855000D02*
X130500000Y-130855000D01*
X128500000Y-129855000D02*
X130500000Y-129855000D01*
X128500000Y-129855000D02*
X128500000Y-130855000D01*
X126940000Y-138215000D02*
X137060000Y-138215000D01*
X126940000Y-137655000D02*
X137060000Y-137655000D01*
X126940000Y-136155000D02*
X137060000Y-136155000D01*
X126940000Y-131854000D02*
X137060000Y-131854000D01*
X126940000Y-129795000D02*
X137060000Y-129795000D01*
X126940000Y-129795000D02*
X126940000Y-138215000D01*
X126700000Y-138455000D02*
X127200000Y-138455000D01*
X126700000Y-137715000D02*
X126700000Y-138455000D01*
%TO.C,C5*%
X125965000Y-72035000D02*
G75*
G02*
X119425000Y-72035000I-3270000J0D01*
G01*
X119425000Y-72035000D02*
G75*
G02*
X125965000Y-72035000I3270000J0D01*
G01*
%TO.C,C4*%
X125965000Y-79735000D02*
G75*
G02*
X119425000Y-79735000I-3270000J0D01*
G01*
X119425000Y-79735000D02*
G75*
G02*
X125965000Y-79735000I3270000J0D01*
G01*
%TO.C,SW1*%
X128000000Y-66035000D02*
X128000000Y-67535000D01*
X129250000Y-70035000D02*
X133750000Y-70035000D01*
X133750000Y-63535000D02*
X129250000Y-63535000D01*
X135000000Y-67535000D02*
X135000000Y-66035000D01*
%TO.C,J2*%
X129990000Y-99725000D02*
X129990000Y-122345000D01*
X129990000Y-122345000D02*
X135960000Y-122345000D01*
X130750000Y-100485000D02*
X130750000Y-111035000D01*
X130750000Y-121585000D02*
X130750000Y-111035000D01*
X133700000Y-99735000D02*
X133700000Y-100485000D01*
X133700000Y-100485000D02*
X130750000Y-100485000D01*
X133700000Y-121585000D02*
X130750000Y-121585000D01*
X133700000Y-122335000D02*
X133700000Y-121585000D01*
X135200000Y-99735000D02*
X135200000Y-101535000D01*
X135200000Y-101535000D02*
X135950000Y-101535000D01*
X135200000Y-103035000D02*
X135200000Y-119035000D01*
X135200000Y-119035000D02*
X135950000Y-119035000D01*
X135200000Y-120535000D02*
X135200000Y-122335000D01*
X135200000Y-122335000D02*
X135950000Y-122335000D01*
X135950000Y-99735000D02*
X135200000Y-99735000D01*
X135950000Y-101535000D02*
X135950000Y-99735000D01*
X135950000Y-103035000D02*
X135200000Y-103035000D01*
X135950000Y-119035000D02*
X135950000Y-103035000D01*
X135950000Y-120535000D02*
X135200000Y-120535000D01*
X135950000Y-122335000D02*
X135950000Y-120535000D01*
X135960000Y-99725000D02*
X129990000Y-99725000D01*
X135960000Y-122345000D02*
X135960000Y-99725000D01*
X136250000Y-99435000D02*
X135000000Y-99435000D01*
X136250000Y-100685000D02*
X136250000Y-99435000D01*
%TO.C,J3*%
X138150000Y-126035000D02*
X138150000Y-127285000D01*
X138440000Y-126325000D02*
X138440000Y-132295000D01*
X138440000Y-132295000D02*
X161060000Y-132295000D01*
X138450000Y-126335000D02*
X138450000Y-127085000D01*
X138450000Y-127085000D02*
X140250000Y-127085000D01*
X138450000Y-128585000D02*
X139200000Y-128585000D01*
X139200000Y-128585000D02*
X139200000Y-131535000D01*
X139200000Y-131535000D02*
X149750000Y-131535000D01*
X139400000Y-126035000D02*
X138150000Y-126035000D01*
X140250000Y-126335000D02*
X138450000Y-126335000D01*
X140250000Y-127085000D02*
X140250000Y-126335000D01*
X141750000Y-126335000D02*
X141750000Y-127085000D01*
X141750000Y-127085000D02*
X157750000Y-127085000D01*
X157750000Y-126335000D02*
X141750000Y-126335000D01*
X157750000Y-127085000D02*
X157750000Y-126335000D01*
X159250000Y-126335000D02*
X159250000Y-127085000D01*
X159250000Y-127085000D02*
X161050000Y-127085000D01*
X160300000Y-128585000D02*
X160300000Y-131535000D01*
X160300000Y-131535000D02*
X149750000Y-131535000D01*
X161050000Y-126335000D02*
X159250000Y-126335000D01*
X161050000Y-127085000D02*
X161050000Y-126335000D01*
X161050000Y-128585000D02*
X160300000Y-128585000D01*
X161060000Y-126325000D02*
X138440000Y-126325000D01*
X161060000Y-132295000D02*
X161060000Y-126325000D01*
%TO.C,J1*%
X116225000Y-113600000D02*
X116225000Y-114850000D01*
X116225000Y-114850000D02*
X117475000Y-114850000D01*
X116515000Y-104440000D02*
X116515000Y-114560000D01*
X116515000Y-114560000D02*
X122485000Y-114560000D01*
X116525000Y-104450000D02*
X116525000Y-106250000D01*
X116525000Y-106250000D02*
X117275000Y-106250000D01*
X116525000Y-107750000D02*
X116525000Y-111250000D01*
X116525000Y-111250000D02*
X117275000Y-111250000D01*
X116525000Y-112750000D02*
X116525000Y-114550000D01*
X116525000Y-114550000D02*
X117275000Y-114550000D01*
X117275000Y-104450000D02*
X116525000Y-104450000D01*
X117275000Y-106250000D02*
X117275000Y-104450000D01*
X117275000Y-107750000D02*
X116525000Y-107750000D01*
X117275000Y-111250000D02*
X117275000Y-107750000D01*
X117275000Y-112750000D02*
X116525000Y-112750000D01*
X117275000Y-114550000D02*
X117275000Y-112750000D01*
X118775000Y-104450000D02*
X118775000Y-105200000D01*
X118775000Y-105200000D02*
X121725000Y-105200000D01*
X118775000Y-113800000D02*
X121725000Y-113800000D01*
X118775000Y-114550000D02*
X118775000Y-113800000D01*
X121725000Y-105200000D02*
X121725000Y-109500000D01*
X121725000Y-113800000D02*
X121725000Y-109500000D01*
X122485000Y-104440000D02*
X116515000Y-104440000D01*
X122485000Y-114560000D02*
X122485000Y-104440000D01*
%TO.C,R1*%
X170580000Y-86365000D02*
X170580000Y-90205000D01*
X170580000Y-90205000D02*
X172420000Y-90205000D01*
X171500000Y-85415000D02*
X171500000Y-86365000D01*
X171500000Y-91155000D02*
X171500000Y-90205000D01*
X172420000Y-86365000D02*
X170580000Y-86365000D01*
X172420000Y-90205000D02*
X172420000Y-86365000D01*
%TO.C,U1*%
X112480000Y-120340000D02*
X117121000Y-120340000D01*
X112480000Y-123609000D02*
X113990000Y-123609000D01*
X112480000Y-127310000D02*
X113990000Y-127310000D01*
X112480000Y-130580000D02*
X112480000Y-120340000D01*
X112480000Y-130580000D02*
X117121000Y-130580000D01*
X113990000Y-130580000D02*
X113990000Y-120340000D01*
X117121000Y-130580000D02*
X117121000Y-120340000D01*
%TO.C,C3*%
X125520000Y-120710000D02*
G75*
G02*
X118980000Y-120710000I-3270000J0D01*
G01*
X118980000Y-120710000D02*
G75*
G02*
X125520000Y-120710000I3270000J0D01*
G01*
%TO.C,U3*%
X112425000Y-70915000D02*
X117066000Y-70915000D01*
X112425000Y-74184000D02*
X113935000Y-74184000D01*
X112425000Y-77885000D02*
X113935000Y-77885000D01*
X112425000Y-81155000D02*
X112425000Y-70915000D01*
X112425000Y-81155000D02*
X117066000Y-81155000D01*
X113935000Y-81155000D02*
X113935000Y-70915000D01*
X117066000Y-81155000D02*
X117066000Y-70915000D01*
%TO.C,J4*%
X130490000Y-84225000D02*
X130490000Y-96845000D01*
X130490000Y-96845000D02*
X136460000Y-96845000D01*
X131250000Y-84985000D02*
X131250000Y-90535000D01*
X131250000Y-96085000D02*
X131250000Y-90535000D01*
X134200000Y-84235000D02*
X134200000Y-84985000D01*
X134200000Y-84985000D02*
X131250000Y-84985000D01*
X134200000Y-96085000D02*
X131250000Y-96085000D01*
X134200000Y-96835000D02*
X134200000Y-96085000D01*
X135700000Y-84235000D02*
X135700000Y-86035000D01*
X135700000Y-86035000D02*
X136450000Y-86035000D01*
X135700000Y-87535000D02*
X135700000Y-93535000D01*
X135700000Y-93535000D02*
X136450000Y-93535000D01*
X135700000Y-95035000D02*
X135700000Y-96835000D01*
X135700000Y-96835000D02*
X136450000Y-96835000D01*
X136450000Y-84235000D02*
X135700000Y-84235000D01*
X136450000Y-86035000D02*
X136450000Y-84235000D01*
X136450000Y-87535000D02*
X135700000Y-87535000D01*
X136450000Y-93535000D02*
X136450000Y-87535000D01*
X136450000Y-95035000D02*
X135700000Y-95035000D01*
X136450000Y-96835000D02*
X136450000Y-95035000D01*
X136460000Y-84225000D02*
X130490000Y-84225000D01*
X136460000Y-96845000D02*
X136460000Y-84225000D01*
X136750000Y-83935000D02*
X135500000Y-83935000D01*
X136750000Y-85185000D02*
X136750000Y-83935000D01*
D12*
%TO.C,U2*%
X140990000Y-66835000D02*
X152059000Y-66835000D01*
X140990000Y-66835000D02*
X169500000Y-66835000D01*
X140990000Y-117785000D02*
X140990000Y-66835000D01*
X140990000Y-117785000D02*
X140990000Y-66835000D01*
X140990000Y-117785000D02*
X146360000Y-117785000D01*
X152059000Y-66835000D02*
X158770000Y-66835000D01*
X158770000Y-66835000D02*
X169500000Y-66835000D01*
X164050000Y-117785000D02*
X169500000Y-117785000D01*
X169500000Y-66835000D02*
X169500000Y-117785000D01*
X169500000Y-66835000D02*
X169500000Y-117785000D01*
X169500000Y-117785000D02*
X140990000Y-117785000D01*
D13*
X140520000Y-76795000D02*
G75*
G02*
X140320000Y-76795000I-100000J0D01*
G01*
X140320000Y-76795000D02*
G75*
G02*
X140520000Y-76795000I100000J0D01*
G01*
D11*
%TO.C,C1*%
X114520000Y-101000000D02*
G75*
G02*
X107980000Y-101000000I-3270000J0D01*
G01*
X107980000Y-101000000D02*
G75*
G02*
X114520000Y-101000000I3270000J0D01*
G01*
X114491000Y-100598000D02*
X114491000Y-101402000D01*
X114451000Y-100367000D02*
X114451000Y-101633000D01*
X114411000Y-100198000D02*
X114411000Y-101802000D01*
X114371000Y-100060000D02*
X114371000Y-101940000D01*
X114331000Y-99941000D02*
X114331000Y-102059000D01*
X114291000Y-99835000D02*
X114291000Y-102165000D01*
X114251000Y-99738000D02*
X114251000Y-102262000D01*
X114211000Y-99650000D02*
X114211000Y-102350000D01*
X114171000Y-99568000D02*
X114171000Y-102432000D01*
X114131000Y-99491000D02*
X114131000Y-102509000D01*
X114091000Y-99419000D02*
X114091000Y-102581000D01*
X114051000Y-99350000D02*
X114051000Y-102650000D01*
X114011000Y-99286000D02*
X114011000Y-102714000D01*
X113971000Y-99224000D02*
X113971000Y-102776000D01*
X113931000Y-99166000D02*
X113931000Y-102834000D01*
X113891000Y-99110000D02*
X113891000Y-102890000D01*
X113851000Y-99056000D02*
X113851000Y-102944000D01*
X113811000Y-99005000D02*
X113811000Y-102995000D01*
X113771000Y-98956000D02*
X113771000Y-103044000D01*
X113731000Y-98908000D02*
X113731000Y-103092000D01*
X113691000Y-98863000D02*
X113691000Y-103137000D01*
X113651000Y-98818000D02*
X113651000Y-103182000D01*
X113611000Y-98776000D02*
X113611000Y-103224000D01*
X113571000Y-98735000D02*
X113571000Y-103265000D01*
X113531000Y-102040000D02*
X113531000Y-103305000D01*
X113531000Y-98695000D02*
X113531000Y-99960000D01*
X113491000Y-102040000D02*
X113491000Y-103343000D01*
X113491000Y-98657000D02*
X113491000Y-99960000D01*
X113451000Y-102040000D02*
X113451000Y-103380000D01*
X113451000Y-98620000D02*
X113451000Y-99960000D01*
X113411000Y-102040000D02*
X113411000Y-103416000D01*
X113411000Y-98584000D02*
X113411000Y-99960000D01*
X113371000Y-102040000D02*
X113371000Y-103450000D01*
X113371000Y-98550000D02*
X113371000Y-99960000D01*
X113331000Y-102040000D02*
X113331000Y-103484000D01*
X113331000Y-98516000D02*
X113331000Y-99960000D01*
X113291000Y-102040000D02*
X113291000Y-103516000D01*
X113291000Y-98484000D02*
X113291000Y-99960000D01*
X113251000Y-102040000D02*
X113251000Y-103548000D01*
X113251000Y-98452000D02*
X113251000Y-99960000D01*
X113211000Y-102040000D02*
X113211000Y-103578000D01*
X113211000Y-98422000D02*
X113211000Y-99960000D01*
X113171000Y-102040000D02*
X113171000Y-103607000D01*
X113171000Y-98393000D02*
X113171000Y-99960000D01*
X113131000Y-102040000D02*
X113131000Y-103636000D01*
X113131000Y-98364000D02*
X113131000Y-99960000D01*
X113091000Y-102040000D02*
X113091000Y-103664000D01*
X113091000Y-98336000D02*
X113091000Y-99960000D01*
X113051000Y-102040000D02*
X113051000Y-103690000D01*
X113051000Y-98310000D02*
X113051000Y-99960000D01*
X113011000Y-102040000D02*
X113011000Y-103716000D01*
X113011000Y-98284000D02*
X113011000Y-99960000D01*
X112971000Y-102040000D02*
X112971000Y-103742000D01*
X112971000Y-98258000D02*
X112971000Y-99960000D01*
X112931000Y-102040000D02*
X112931000Y-103766000D01*
X112931000Y-98234000D02*
X112931000Y-99960000D01*
X112891000Y-102040000D02*
X112891000Y-103790000D01*
X112891000Y-98210000D02*
X112891000Y-99960000D01*
X112851000Y-102040000D02*
X112851000Y-103812000D01*
X112851000Y-98188000D02*
X112851000Y-99960000D01*
X112811000Y-102040000D02*
X112811000Y-103834000D01*
X112811000Y-98166000D02*
X112811000Y-99960000D01*
X112771000Y-102040000D02*
X112771000Y-103856000D01*
X112771000Y-98144000D02*
X112771000Y-99960000D01*
X112731000Y-102040000D02*
X112731000Y-103876000D01*
X112731000Y-98124000D02*
X112731000Y-99960000D01*
X112691000Y-102040000D02*
X112691000Y-103896000D01*
X112691000Y-98104000D02*
X112691000Y-99960000D01*
X112651000Y-102040000D02*
X112651000Y-103916000D01*
X112651000Y-98084000D02*
X112651000Y-99960000D01*
X112611000Y-102040000D02*
X112611000Y-103934000D01*
X112611000Y-98066000D02*
X112611000Y-99960000D01*
X112571000Y-102040000D02*
X112571000Y-103952000D01*
X112571000Y-98048000D02*
X112571000Y-99960000D01*
X112531000Y-102040000D02*
X112531000Y-103970000D01*
X112531000Y-98030000D02*
X112531000Y-99960000D01*
X112491000Y-102040000D02*
X112491000Y-103986000D01*
X112491000Y-98014000D02*
X112491000Y-99960000D01*
X112451000Y-102040000D02*
X112451000Y-104002000D01*
X112451000Y-97998000D02*
X112451000Y-99960000D01*
X112411000Y-102040000D02*
X112411000Y-104018000D01*
X112411000Y-97982000D02*
X112411000Y-99960000D01*
X112371000Y-102040000D02*
X112371000Y-104033000D01*
X112371000Y-97967000D02*
X112371000Y-99960000D01*
X112331000Y-102040000D02*
X112331000Y-104047000D01*
X112331000Y-97953000D02*
X112331000Y-99960000D01*
X112291000Y-102040000D02*
X112291000Y-104061000D01*
X112291000Y-97939000D02*
X112291000Y-99960000D01*
X112251000Y-102040000D02*
X112251000Y-104074000D01*
X112251000Y-97926000D02*
X112251000Y-99960000D01*
X112211000Y-102040000D02*
X112211000Y-104086000D01*
X112211000Y-97914000D02*
X112211000Y-99960000D01*
X112171000Y-102040000D02*
X112171000Y-104098000D01*
X112171000Y-97902000D02*
X112171000Y-99960000D01*
X112131000Y-102040000D02*
X112131000Y-104110000D01*
X112131000Y-97890000D02*
X112131000Y-99960000D01*
X112091000Y-102040000D02*
X112091000Y-104121000D01*
X112091000Y-97879000D02*
X112091000Y-99960000D01*
X112051000Y-102040000D02*
X112051000Y-104131000D01*
X112051000Y-97869000D02*
X112051000Y-99960000D01*
X112011000Y-102040000D02*
X112011000Y-104141000D01*
X112011000Y-97859000D02*
X112011000Y-99960000D01*
X111971000Y-102040000D02*
X111971000Y-104150000D01*
X111971000Y-97850000D02*
X111971000Y-99960000D01*
X111930000Y-102040000D02*
X111930000Y-104159000D01*
X111930000Y-97841000D02*
X111930000Y-99960000D01*
X111890000Y-102040000D02*
X111890000Y-104167000D01*
X111890000Y-97833000D02*
X111890000Y-99960000D01*
X111850000Y-102040000D02*
X111850000Y-104175000D01*
X111850000Y-97825000D02*
X111850000Y-99960000D01*
X111810000Y-102040000D02*
X111810000Y-104182000D01*
X111810000Y-97818000D02*
X111810000Y-99960000D01*
X111770000Y-102040000D02*
X111770000Y-104189000D01*
X111770000Y-97811000D02*
X111770000Y-99960000D01*
X111730000Y-102040000D02*
X111730000Y-104195000D01*
X111730000Y-97805000D02*
X111730000Y-99960000D01*
X111690000Y-102040000D02*
X111690000Y-104201000D01*
X111690000Y-97799000D02*
X111690000Y-99960000D01*
X111650000Y-102040000D02*
X111650000Y-104206000D01*
X111650000Y-97794000D02*
X111650000Y-99960000D01*
X111610000Y-102040000D02*
X111610000Y-104211000D01*
X111610000Y-97789000D02*
X111610000Y-99960000D01*
X111570000Y-102040000D02*
X111570000Y-104215000D01*
X111570000Y-97785000D02*
X111570000Y-99960000D01*
X111530000Y-102040000D02*
X111530000Y-104218000D01*
X111530000Y-97782000D02*
X111530000Y-99960000D01*
X111490000Y-102040000D02*
X111490000Y-104222000D01*
X111490000Y-97778000D02*
X111490000Y-99960000D01*
X111450000Y-97776000D02*
X111450000Y-104224000D01*
X111410000Y-97773000D02*
X111410000Y-104227000D01*
X111370000Y-97772000D02*
X111370000Y-104228000D01*
X111330000Y-97770000D02*
X111330000Y-104230000D01*
X111290000Y-97770000D02*
X111290000Y-104230000D01*
X111250000Y-97770000D02*
X111250000Y-104230000D01*
X108064759Y-98846000D02*
X108064759Y-99476000D01*
X107749759Y-99161000D02*
X108379759Y-99161000D01*
%TO.C,C2*%
X125770000Y-128750000D02*
G75*
G02*
X119230000Y-128750000I-3270000J0D01*
G01*
X119230000Y-128750000D02*
G75*
G02*
X125770000Y-128750000I3270000J0D01*
G01*
%TO.C,BZ1*%
X174600000Y-125785000D02*
G75*
G02*
X162400000Y-125785000I-6100000J0D01*
G01*
X162400000Y-125785000D02*
G75*
G02*
X174600000Y-125785000I6100000J0D01*
G01*
%TD*%
M02*
