%TF.GenerationSoftware,KiCad,Pcbnew,8.0.2*%
%TF.CreationDate,2024-08-26T14:36:41-03:00*%
%TF.ProjectId,fechadura_eletronica,66656368-6164-4757-9261-5f656c657472,rev?*%
%TF.SameCoordinates,Original*%
%TF.FileFunction,Soldermask,Top*%
%TF.FilePolarity,Negative*%
%FSLAX46Y46*%
G04 Gerber Fmt 4.6, Leading zero omitted, Abs format (unit mm)*
G04 Created by KiCad (PCBNEW 8.0.2) date 2024-08-26 14:36:41*
%MOMM*%
%LPD*%
G01*
G04 APERTURE LIST*
G04 Aperture macros list*
%AMRoundRect*
0 Rectangle with rounded corners*
0 $1 Rounding radius*
0 $2 $3 $4 $5 $6 $7 $8 $9 X,Y pos of 4 corners*
0 Add a 4 corners polygon primitive as box body*
4,1,4,$2,$3,$4,$5,$6,$7,$8,$9,$2,$3,0*
0 Add four circle primitives for the rounded corners*
1,1,$1+$1,$2,$3*
1,1,$1+$1,$4,$5*
1,1,$1+$1,$6,$7*
1,1,$1+$1,$8,$9*
0 Add four rect primitives between the rounded corners*
20,1,$1+$1,$2,$3,$4,$5,0*
20,1,$1+$1,$4,$5,$6,$7,0*
20,1,$1+$1,$6,$7,$8,$9,0*
20,1,$1+$1,$8,$9,$2,$3,0*%
G04 Aperture macros list end*
%ADD10C,2.600000*%
%ADD11R,2.600000X2.600000*%
%ADD12C,3.200000*%
%ADD13C,1.600000*%
%ADD14C,2.000000*%
%ADD15RoundRect,0.250000X-0.725000X0.600000X-0.725000X-0.600000X0.725000X-0.600000X0.725000X0.600000X0*%
%ADD16O,1.950000X1.700000*%
%ADD17RoundRect,0.250000X-0.600000X-0.725000X0.600000X-0.725000X0.600000X0.725000X-0.600000X0.725000X0*%
%ADD18O,1.700000X1.950000*%
%ADD19RoundRect,0.102000X-1.000000X-1.000000X1.000000X-1.000000X1.000000X1.000000X-1.000000X1.000000X0*%
%ADD20C,2.204000*%
%ADD21RoundRect,0.250000X0.725000X-0.600000X0.725000X0.600000X-0.725000X0.600000X-0.725000X-0.600000X0*%
%ADD22C,1.400000*%
%ADD23O,1.400000X1.400000*%
%ADD24R,2.000000X1.905000*%
%ADD25O,2.000000X1.905000*%
%ADD26R,1.600000X1.600000*%
%ADD27R,2.000000X2.000000*%
G04 APERTURE END LIST*
D10*
%TO.C,J5*%
X134500000Y-134155000D03*
D11*
X129500000Y-134155000D03*
%TD*%
D12*
%TO.C,REF\u002A\u002A*%
X175750000Y-134035000D03*
%TD*%
%TO.C,REF\u002A\u002A*%
X106250000Y-64535000D03*
%TD*%
%TO.C,REF\u002A\u002A*%
X106250000Y-134035000D03*
%TD*%
%TO.C,REF\u002A\u002A*%
X175750000Y-64535000D03*
%TD*%
D13*
%TO.C,C5*%
X122695000Y-73285000D03*
X122695000Y-70785000D03*
%TD*%
%TO.C,C4*%
X122695000Y-80985000D03*
X122695000Y-78485000D03*
%TD*%
D14*
%TO.C,SW1*%
X134750000Y-69035000D03*
X128250000Y-69035000D03*
X134750000Y-64535000D03*
X128250000Y-64535000D03*
%TD*%
D15*
%TO.C,J2*%
X133500000Y-102285000D03*
D16*
X133500000Y-104785000D03*
X133500000Y-107285000D03*
X133500000Y-109785000D03*
X133500000Y-112285000D03*
X133500000Y-114785000D03*
X133500000Y-117285000D03*
X133500000Y-119785000D03*
%TD*%
D17*
%TO.C,J3*%
X141000000Y-128785000D03*
D18*
X143500000Y-128785000D03*
X146000000Y-128785000D03*
X148500000Y-128785000D03*
X151000000Y-128785000D03*
X153500000Y-128785000D03*
X156000000Y-128785000D03*
X158500000Y-128785000D03*
%TD*%
D19*
%TO.C,*%
X145000000Y-76785000D03*
%TD*%
D20*
%TO.C,*%
X152500000Y-80785000D03*
%TD*%
D21*
%TO.C,J1*%
X118975000Y-112000000D03*
D16*
X118975000Y-109500000D03*
X118975000Y-107000000D03*
%TD*%
D22*
%TO.C,R1*%
X171500000Y-84475000D03*
D23*
X171500000Y-92095000D03*
%TD*%
D24*
%TO.C,U1*%
X115750000Y-128000000D03*
D25*
X115750000Y-125460000D03*
X115750000Y-122920000D03*
%TD*%
D20*
%TO.C,*%
X146500000Y-80785000D03*
%TD*%
D13*
%TO.C,C3*%
X122250000Y-119460000D03*
X122250000Y-121960000D03*
%TD*%
D24*
%TO.C,U3*%
X115695000Y-78575000D03*
D25*
X115695000Y-76035000D03*
X115695000Y-73495000D03*
%TD*%
D19*
%TO.C,*%
X159500000Y-72285000D03*
%TD*%
D15*
%TO.C,J4*%
X134000000Y-86785000D03*
D16*
X134000000Y-89285000D03*
X134000000Y-91785000D03*
X134000000Y-94285000D03*
%TD*%
D19*
%TO.C,U2*%
X142570000Y-76795000D03*
D20*
X142570000Y-79335000D03*
X142570000Y-81875000D03*
X142570000Y-84415000D03*
X142570000Y-86955000D03*
X142570000Y-89495000D03*
X142570000Y-92035000D03*
X142570000Y-94575000D03*
X142570000Y-97115000D03*
X142570000Y-99655000D03*
X142570000Y-102195000D03*
X142570000Y-104735000D03*
X142570000Y-107275000D03*
X142570000Y-109815000D03*
X142570000Y-112355000D03*
X167970000Y-112355000D03*
X167970000Y-109815000D03*
X167970000Y-107275000D03*
X167970000Y-104735000D03*
X167970000Y-102195000D03*
X167970000Y-99655000D03*
X167970000Y-97115000D03*
X167970000Y-94575000D03*
X167970000Y-92035000D03*
X167970000Y-89495000D03*
X167970000Y-86955000D03*
X167970000Y-84415000D03*
X167970000Y-81875000D03*
X167970000Y-79335000D03*
X167970000Y-76795000D03*
%TD*%
%TO.C,*%
X146000000Y-84285000D03*
%TD*%
%TO.C,*%
X156000000Y-84285000D03*
%TD*%
D13*
%TO.C,C1*%
X112500000Y-101000000D03*
D26*
X110000000Y-101000000D03*
%TD*%
D13*
%TO.C,C2*%
X122500000Y-127500000D03*
X122500000Y-130000000D03*
%TD*%
D27*
%TO.C,BZ1*%
X172300000Y-125785000D03*
D14*
X164700000Y-125785000D03*
%TD*%
M02*
