%TF.GenerationSoftware,KiCad,Pcbnew,8.0.2*%
%TF.CreationDate,2024-08-26T14:36:41-03:00*%
%TF.ProjectId,fechadura_eletronica,66656368-6164-4757-9261-5f656c657472,rev?*%
%TF.SameCoordinates,Original*%
%TF.FileFunction,Copper,L2,Bot*%
%TF.FilePolarity,Positive*%
%FSLAX46Y46*%
G04 Gerber Fmt 4.6, Leading zero omitted, Abs format (unit mm)*
G04 Created by KiCad (PCBNEW 8.0.2) date 2024-08-26 14:36:41*
%MOMM*%
%LPD*%
G01*
G04 APERTURE LIST*
G04 Aperture macros list*
%AMRoundRect*
0 Rectangle with rounded corners*
0 $1 Rounding radius*
0 $2 $3 $4 $5 $6 $7 $8 $9 X,Y pos of 4 corners*
0 Add a 4 corners polygon primitive as box body*
4,1,4,$2,$3,$4,$5,$6,$7,$8,$9,$2,$3,0*
0 Add four circle primitives for the rounded corners*
1,1,$1+$1,$2,$3*
1,1,$1+$1,$4,$5*
1,1,$1+$1,$6,$7*
1,1,$1+$1,$8,$9*
0 Add four rect primitives between the rounded corners*
20,1,$1+$1,$2,$3,$4,$5,0*
20,1,$1+$1,$4,$5,$6,$7,0*
20,1,$1+$1,$6,$7,$8,$9,0*
20,1,$1+$1,$8,$9,$2,$3,0*%
G04 Aperture macros list end*
%TA.AperFunction,ComponentPad*%
%ADD10C,2.600000*%
%TD*%
%TA.AperFunction,ComponentPad*%
%ADD11R,2.600000X2.600000*%
%TD*%
%TA.AperFunction,ComponentPad*%
%ADD12C,1.600000*%
%TD*%
%TA.AperFunction,ComponentPad*%
%ADD13C,2.000000*%
%TD*%
%TA.AperFunction,ComponentPad*%
%ADD14RoundRect,0.250000X-0.725000X0.600000X-0.725000X-0.600000X0.725000X-0.600000X0.725000X0.600000X0*%
%TD*%
%TA.AperFunction,ComponentPad*%
%ADD15O,1.950000X1.700000*%
%TD*%
%TA.AperFunction,ComponentPad*%
%ADD16RoundRect,0.250000X-0.600000X-0.725000X0.600000X-0.725000X0.600000X0.725000X-0.600000X0.725000X0*%
%TD*%
%TA.AperFunction,ComponentPad*%
%ADD17O,1.700000X1.950000*%
%TD*%
%TA.AperFunction,ComponentPad*%
%ADD18R,2.000000X2.000000*%
%TD*%
%TA.AperFunction,ComponentPad*%
%ADD19RoundRect,0.250000X0.725000X-0.600000X0.725000X0.600000X-0.725000X0.600000X-0.725000X-0.600000X0*%
%TD*%
%TA.AperFunction,ComponentPad*%
%ADD20C,1.400000*%
%TD*%
%TA.AperFunction,ComponentPad*%
%ADD21O,1.400000X1.400000*%
%TD*%
%TA.AperFunction,ComponentPad*%
%ADD22R,2.000000X1.905000*%
%TD*%
%TA.AperFunction,ComponentPad*%
%ADD23O,2.000000X1.905000*%
%TD*%
%TA.AperFunction,ComponentPad*%
%ADD24R,1.600000X1.600000*%
%TD*%
%TA.AperFunction,Conductor*%
%ADD25C,0.700000*%
%TD*%
%TA.AperFunction,Conductor*%
%ADD26C,1.000000*%
%TD*%
%TA.AperFunction,Conductor*%
%ADD27C,0.900000*%
%TD*%
%TA.AperFunction,Conductor*%
%ADD28C,2.000000*%
%TD*%
G04 APERTURE END LIST*
D10*
%TO.P,J5,2,Pin_2*%
%TO.N,GND*%
X134500000Y-134155000D03*
D11*
%TO.P,J5,1,Pin_1*%
%TO.N,+12V*%
X129500000Y-134155000D03*
%TD*%
D12*
%TO.P,C5,1*%
%TO.N,GND*%
X122695000Y-73285000D03*
%TO.P,C5,2*%
%TO.N,+12V*%
X122695000Y-70785000D03*
%TD*%
%TO.P,C4,1*%
%TO.N,+3.3V*%
X122695000Y-80985000D03*
%TO.P,C4,2*%
%TO.N,GND*%
X122695000Y-78485000D03*
%TD*%
D13*
%TO.P,SW1,1,1*%
%TO.N,+3.3V*%
X134750000Y-69035000D03*
X128250000Y-69035000D03*
%TO.P,SW1,2,2*%
%TO.N,Net-(U2-D26)*%
X134750000Y-64535000D03*
X128250000Y-64535000D03*
%TD*%
D14*
%TO.P,J2,1,SDA*%
%TO.N,Net-(J2-SDA)*%
X133500000Y-102285000D03*
D15*
%TO.P,J2,2,SCK*%
%TO.N,Net-(J2-SCK)*%
X133500000Y-104785000D03*
%TO.P,J2,3,MOSI*%
%TO.N,Net-(J2-MOSI)*%
X133500000Y-107285000D03*
%TO.P,J2,4,MISO*%
%TO.N,Net-(J2-MISO)*%
X133500000Y-109785000D03*
%TO.P,J2,5,IRQ*%
%TO.N,unconnected-(J2-IRQ-Pad5)*%
X133500000Y-112285000D03*
%TO.P,J2,6,GND*%
%TO.N,GND*%
X133500000Y-114785000D03*
%TO.P,J2,7,RST*%
%TO.N,unconnected-(J2-RST-Pad7)*%
X133500000Y-117285000D03*
%TO.P,J2,8,3.3V*%
%TO.N,+3.3V*%
X133500000Y-119785000D03*
%TD*%
D16*
%TO.P,J3,1,VSS(GND)*%
%TO.N,GND*%
X141000000Y-128785000D03*
D17*
%TO.P,J3,2,VDD(5V)*%
%TO.N,+5V*%
X143500000Y-128785000D03*
%TO.P,J3,3,RS*%
%TO.N,Net-(J3-RS)*%
X146000000Y-128785000D03*
%TO.P,J3,4,E*%
%TO.N,Net-(J3-E)*%
X148500000Y-128785000D03*
%TO.P,J3,5,D4*%
%TO.N,Net-(J3-D4)*%
X151000000Y-128785000D03*
%TO.P,J3,6,D5*%
%TO.N,Net-(J3-D5)*%
X153500000Y-128785000D03*
%TO.P,J3,7,D6*%
%TO.N,Net-(J3-D6)*%
X156000000Y-128785000D03*
%TO.P,J3,8,D7*%
%TO.N,Net-(J3-D7)*%
X158500000Y-128785000D03*
%TD*%
D18*
%TO.P,,1,3V3*%
%TO.N,+3.3V*%
X145000000Y-76785000D03*
%TD*%
D13*
%TO.P,,3,D15*%
%TO.N,Net-(J3-RS)*%
X152500000Y-80785000D03*
%TD*%
D19*
%TO.P,J1,1,5V*%
%TO.N,+5V*%
X118975000Y-112000000D03*
D15*
%TO.P,J1,2,GND*%
%TO.N,GND*%
X118975000Y-109500000D03*
%TO.P,J1,3,IN*%
%TO.N,Net-(J1-IN)*%
X118975000Y-107000000D03*
%TD*%
D20*
%TO.P,R1,1*%
%TO.N,GND*%
X171500000Y-84475000D03*
D21*
%TO.P,R1,2*%
%TO.N,Net-(U2-D26)*%
X171500000Y-92095000D03*
%TD*%
D22*
%TO.P,U1,1,VI*%
%TO.N,+12V*%
X115750000Y-128000000D03*
D23*
%TO.P,U1,2,GND*%
%TO.N,GND*%
X115750000Y-125460000D03*
%TO.P,U1,3,VO*%
%TO.N,+5V*%
X115750000Y-122920000D03*
%TD*%
D13*
%TO.P,,3,D15*%
%TO.N,Net-(J3-RS)*%
X146500000Y-80785000D03*
%TD*%
D12*
%TO.P,C3,1*%
%TO.N,+5V*%
X122250000Y-119460000D03*
%TO.P,C3,2*%
%TO.N,GND*%
X122250000Y-121960000D03*
%TD*%
D22*
%TO.P,U3,1,VI*%
%TO.N,+3.3V*%
X115695000Y-78575000D03*
D23*
%TO.P,U3,2,GND*%
%TO.N,GND*%
X115695000Y-76035000D03*
%TO.P,U3,3,VO*%
%TO.N,+12V*%
X115695000Y-73495000D03*
%TD*%
D18*
%TO.P,,1,3V3*%
%TO.N,+3.3V*%
X159500000Y-72285000D03*
%TD*%
D14*
%TO.P,J4,1,3.3V*%
%TO.N,+3.3V*%
X134000000Y-86785000D03*
D15*
%TO.P,J4,2,TX*%
%TO.N,Net-(J4-TX)*%
X134000000Y-89285000D03*
%TO.P,J4,3,RX*%
%TO.N,Net-(J4-RX)*%
X134000000Y-91785000D03*
%TO.P,J4,4,GND*%
%TO.N,GND*%
X134000000Y-94285000D03*
%TD*%
D18*
%TO.P,U2,1,3V3*%
%TO.N,+3.3V*%
X142570000Y-76795000D03*
D13*
%TO.P,U2,2,GND*%
%TO.N,GND*%
X142570000Y-79335000D03*
%TO.P,U2,3,D15*%
%TO.N,Net-(J3-RS)*%
X142570000Y-81875000D03*
%TO.P,U2,4,D2*%
%TO.N,Net-(J3-E)*%
X142570000Y-84415000D03*
%TO.P,U2,5,D4*%
%TO.N,Net-(J1-IN)*%
X142570000Y-86955000D03*
%TO.P,U2,6,RX2*%
%TO.N,Net-(J4-TX)*%
X142570000Y-89495000D03*
%TO.P,U2,7,TX2*%
%TO.N,Net-(J4-RX)*%
X142570000Y-92035000D03*
%TO.P,U2,8,D5*%
%TO.N,N/C*%
X142570000Y-94575000D03*
%TO.P,U2,9,D18*%
%TO.N,Net-(J2-SCK)*%
X142570000Y-97115000D03*
%TO.P,U2,10,D19*%
%TO.N,Net-(J2-MISO)*%
X142570000Y-99655000D03*
%TO.P,U2,11,D21*%
%TO.N,Net-(J2-SDA)*%
X142570000Y-102195000D03*
%TO.P,U2,12,RX0*%
%TO.N,N/C*%
X142570000Y-104735000D03*
%TO.P,U2,13,TX0*%
X142570000Y-107275000D03*
%TO.P,U2,14,D22*%
X142570000Y-109815000D03*
%TO.P,U2,15,D23*%
%TO.N,Net-(J2-MOSI)*%
X142570000Y-112355000D03*
%TO.P,U2,16,EN*%
%TO.N,N/C*%
X167970000Y-112355000D03*
%TO.P,U2,17,VP*%
X167970000Y-109815000D03*
%TO.P,U2,18,VN*%
X167970000Y-107275000D03*
%TO.P,U2,19,D34*%
X167970000Y-104735000D03*
%TO.P,U2,20,D35*%
X167970000Y-102195000D03*
%TO.P,U2,21,D32*%
X167970000Y-99655000D03*
%TO.P,U2,22,D33*%
%TO.N,Net-(BZ1-+)*%
X167970000Y-97115000D03*
%TO.P,U2,23,D25*%
%TO.N,N/C*%
X167970000Y-94575000D03*
%TO.P,U2,24,D26*%
%TO.N,Net-(U2-D26)*%
X167970000Y-92035000D03*
%TO.P,U2,25,D27*%
%TO.N,Net-(J3-D7)*%
X167970000Y-89495000D03*
%TO.P,U2,26,D14*%
%TO.N,Net-(J3-D6)*%
X167970000Y-86955000D03*
%TO.P,U2,27,D12*%
%TO.N,Net-(J3-D5)*%
X167970000Y-84415000D03*
%TO.P,U2,28,D13*%
%TO.N,Net-(J3-D4)*%
X167970000Y-81875000D03*
%TO.P,U2,29,GND*%
%TO.N,GND*%
X167970000Y-79335000D03*
%TO.P,U2,30,VIN*%
%TO.N,+5V*%
X167970000Y-76795000D03*
%TD*%
%TO.P,,4,D2*%
%TO.N,Net-(J3-E)*%
X146000000Y-84285000D03*
%TD*%
%TO.P,,4,D2*%
%TO.N,Net-(J3-E)*%
X156000000Y-84285000D03*
%TD*%
D12*
%TO.P,C1,2*%
%TO.N,GND*%
X112500000Y-101000000D03*
D24*
%TO.P,C1,1*%
%TO.N,+12V*%
X110000000Y-101000000D03*
%TD*%
D12*
%TO.P,C2,1*%
%TO.N,GND*%
X122500000Y-127500000D03*
%TO.P,C2,2*%
%TO.N,+12V*%
X122500000Y-130000000D03*
%TD*%
D18*
%TO.P,BZ1,1,+*%
%TO.N,Net-(BZ1-+)*%
X172300000Y-125785000D03*
D13*
%TO.P,BZ1,2,-*%
%TO.N,GND*%
X164700000Y-125785000D03*
%TD*%
D25*
%TO.N,Net-(J3-RS)*%
X152500000Y-99500000D02*
X152500000Y-80785000D01*
X151200000Y-121800000D02*
X151200000Y-100800000D01*
X146000000Y-127000000D02*
X151200000Y-121800000D01*
X151200000Y-100800000D02*
X152500000Y-99500000D01*
X146000000Y-128785000D02*
X146000000Y-127000000D01*
%TO.N,Net-(J2-SCK)*%
X128500000Y-103785000D02*
X128500000Y-99785000D01*
X128500000Y-99785000D02*
X130000000Y-98285000D01*
X129500000Y-104785000D02*
X128500000Y-103785000D01*
X133500000Y-104785000D02*
X129500000Y-104785000D01*
%TO.N,Net-(U2-D26)*%
X163500000Y-64785000D02*
X135000000Y-64785000D01*
X135000000Y-64785000D02*
X134750000Y-64535000D01*
X173950000Y-75235000D02*
X163500000Y-64785000D01*
X173950000Y-91335000D02*
X173950000Y-75235000D01*
X173190000Y-92095000D02*
X173950000Y-91335000D01*
%TO.N,Net-(J3-D6)*%
X156000000Y-126800000D02*
X156000000Y-128785000D01*
X163100000Y-102200000D02*
X156800000Y-108500000D01*
X156800000Y-108500000D02*
X156800000Y-126000000D01*
X163100000Y-89185000D02*
X163100000Y-102200000D01*
X156800000Y-126000000D02*
X156000000Y-126800000D01*
X165330000Y-86955000D02*
X163100000Y-89185000D01*
X167970000Y-86955000D02*
X165330000Y-86955000D01*
%TO.N,Net-(J3-D5)*%
X165370000Y-84415000D02*
X167970000Y-84415000D01*
X161700000Y-88085000D02*
X165370000Y-84415000D01*
X155400000Y-107800000D02*
X161700000Y-101500000D01*
X155400000Y-124600000D02*
X155400000Y-107800000D01*
X161700000Y-101500000D02*
X161700000Y-88085000D01*
X153500000Y-126500000D02*
X155400000Y-124600000D01*
X153500000Y-128785000D02*
X153500000Y-126500000D01*
%TO.N,Net-(J3-D4)*%
X154000000Y-123092500D02*
X151000000Y-126092500D01*
X160300000Y-100800000D02*
X154000000Y-107100000D01*
X154000000Y-107100000D02*
X154000000Y-123092500D01*
X151000000Y-126092500D02*
X151000000Y-128785000D01*
X165500000Y-81785000D02*
X160300000Y-86985000D01*
X167880000Y-81785000D02*
X165500000Y-81785000D01*
X160300000Y-86985000D02*
X160300000Y-100800000D01*
X167970000Y-81875000D02*
X167880000Y-81785000D01*
%TO.N,Net-(J3-E)*%
X152600000Y-122500000D02*
X148400000Y-126700000D01*
X148400000Y-126700000D02*
X148400000Y-128685000D01*
X152600000Y-121642500D02*
X152600000Y-122500000D01*
X148400000Y-128685000D02*
X148500000Y-128785000D01*
X152600000Y-102685000D02*
X152600000Y-121642500D01*
X156000000Y-99285000D02*
X152600000Y-102685000D01*
X156000000Y-84285000D02*
X156000000Y-99285000D01*
D26*
%TO.N,+12V*%
X115750000Y-128000000D02*
X109265000Y-128000000D01*
D27*
%TO.N,+5V*%
X143500000Y-126285000D02*
X143500000Y-128285000D01*
X142000000Y-124785000D02*
X143500000Y-126285000D01*
X130785000Y-124785000D02*
X142000000Y-124785000D01*
X125460000Y-119460000D02*
X130785000Y-124785000D01*
X122250000Y-119460000D02*
X125460000Y-119460000D01*
X118975000Y-119455000D02*
X118975000Y-112500000D01*
X118980000Y-119460000D02*
X118975000Y-119455000D01*
D28*
%TO.N,+12V*%
X113000000Y-134000000D02*
X129000000Y-134000000D01*
X109250000Y-130250000D02*
X113000000Y-134000000D01*
X109250000Y-72000000D02*
X109250000Y-130250000D01*
D25*
%TO.N,Net-(J1-IN)*%
X118975000Y-98760000D02*
X118975000Y-107000000D01*
X121750000Y-88535000D02*
X121750000Y-95985000D01*
X121750000Y-95985000D02*
X118975000Y-98760000D01*
X133750000Y-79285000D02*
X131000000Y-79285000D01*
X141000000Y-72035000D02*
X133750000Y-79285000D01*
X146000000Y-72035000D02*
X141000000Y-72035000D01*
X149500000Y-85785000D02*
X149500000Y-75535000D01*
X149500000Y-75535000D02*
X146000000Y-72035000D01*
X131000000Y-79285000D02*
X121750000Y-88535000D01*
X148330000Y-86955000D02*
X149500000Y-85785000D01*
X142570000Y-86955000D02*
X148330000Y-86955000D01*
D27*
%TO.N,+5V*%
X119210000Y-119460000D02*
X118980000Y-119460000D01*
D26*
%TO.N,+3.3V*%
X124300000Y-80985000D02*
X128500000Y-76785000D01*
X122695000Y-80985000D02*
X124300000Y-80985000D01*
D25*
X127500000Y-86785000D02*
X134000000Y-86785000D01*
X125500000Y-113785000D02*
X125500000Y-88785000D01*
X131500000Y-119785000D02*
X125500000Y-113785000D01*
X125500000Y-88785000D02*
X127500000Y-86785000D01*
X133500000Y-119785000D02*
X131500000Y-119785000D01*
X134000000Y-83535000D02*
X140740000Y-76795000D01*
D26*
X115695000Y-78575000D02*
X115695000Y-79795000D01*
X128500000Y-76785000D02*
X132500000Y-76785000D01*
D25*
X144990000Y-76795000D02*
X145000000Y-76785000D01*
D26*
X116885000Y-80985000D02*
X122695000Y-80985000D01*
D25*
X134000000Y-86785000D02*
X134000000Y-83535000D01*
%TO.N,Net-(J4-TX)*%
X134210000Y-89495000D02*
X142570000Y-89495000D01*
D26*
%TO.N,+12V*%
X115695000Y-73495000D02*
X115695000Y-72095000D01*
X115695000Y-72095000D02*
X117005000Y-70785000D01*
D25*
%TO.N,Net-(U2-D26)*%
X171560000Y-92035000D02*
X171500000Y-92095000D01*
D27*
%TO.N,+5V*%
X115750000Y-122920000D02*
X119210000Y-119460000D01*
D26*
%TO.N,+12V*%
X117005000Y-70785000D02*
X122695000Y-70785000D01*
D27*
%TO.N,+5V*%
X122250000Y-119460000D02*
X119210000Y-119460000D01*
D25*
%TO.N,+3.3V*%
X140740000Y-76795000D02*
X142570000Y-76795000D01*
%TO.N,Net-(J3-RS)*%
X142570000Y-81875000D02*
X145410000Y-81875000D01*
D26*
%TO.N,+3.3V*%
X128500000Y-76785000D02*
X128250000Y-76535000D01*
D25*
%TO.N,Net-(J4-TX)*%
X134000000Y-89285000D02*
X134210000Y-89495000D01*
D27*
%TO.N,+12V*%
X115750000Y-128000000D02*
X117750000Y-130000000D01*
D26*
X115695000Y-73495000D02*
X109235000Y-73495000D01*
%TO.N,+3.3V*%
X140100000Y-69185000D02*
X156400000Y-69185000D01*
X132500000Y-76785000D02*
X140100000Y-69185000D01*
D27*
%TO.N,+12V*%
X117750000Y-130000000D02*
X122500000Y-130000000D01*
D26*
%TO.N,+3.3V*%
X128250000Y-76535000D02*
X128250000Y-69035000D01*
X115695000Y-79795000D02*
X116885000Y-80985000D01*
D25*
X142570000Y-76795000D02*
X144990000Y-76795000D01*
D26*
X156400000Y-69185000D02*
X159500000Y-72285000D01*
D25*
%TO.N,Net-(J4-RX)*%
X134000000Y-91785000D02*
X142320000Y-91785000D01*
D27*
%TO.N,+5V*%
X122250000Y-119335000D02*
X122250000Y-119460000D01*
D25*
%TO.N,Net-(U2-D26)*%
X171440000Y-92035000D02*
X171500000Y-92095000D01*
X167970000Y-92035000D02*
X171440000Y-92035000D01*
%TO.N,Net-(J2-MISO)*%
X144370000Y-99655000D02*
X142570000Y-99655000D01*
X140500000Y-114785000D02*
X143500000Y-114785000D01*
X145500000Y-100785000D02*
X144370000Y-99655000D01*
%TO.N,Net-(J2-SCK)*%
X137750000Y-98285000D02*
X138920000Y-97115000D01*
%TO.N,Net-(J2-MOSI)*%
X133750000Y-107285000D02*
X136000000Y-107285000D01*
%TO.N,Net-(J2-MISO)*%
X135500000Y-109785000D02*
X140500000Y-114785000D01*
%TO.N,Net-(J3-E)*%
X145870000Y-84415000D02*
X146000000Y-84285000D01*
X142570000Y-84415000D02*
X145870000Y-84415000D01*
%TO.N,Net-(J2-MOSI)*%
X136000000Y-107285000D02*
X141070000Y-112355000D01*
%TO.N,Net-(J2-SCK)*%
X138920000Y-97115000D02*
X142570000Y-97115000D01*
%TO.N,Net-(J2-MISO)*%
X143500000Y-114785000D02*
X145500000Y-112785000D01*
X133500000Y-109785000D02*
X135500000Y-109785000D01*
X133250000Y-109785000D02*
X133500000Y-109785000D01*
%TO.N,Net-(J2-MOSI)*%
X141070000Y-112355000D02*
X142570000Y-112355000D01*
%TO.N,Net-(J3-RS)*%
X145410000Y-81875000D02*
X146500000Y-80785000D01*
%TO.N,Net-(J2-SCK)*%
X130000000Y-98285000D02*
X137750000Y-98285000D01*
%TO.N,Net-(J2-MISO)*%
X145500000Y-112785000D02*
X145500000Y-100785000D01*
%TO.N,Net-(J2-SDA)*%
X133500000Y-102285000D02*
X142480000Y-102285000D01*
X142480000Y-102285000D02*
X142570000Y-102195000D01*
%TO.N,Net-(BZ1-+)*%
X172300000Y-125785000D02*
X172500000Y-125585000D01*
X172500000Y-125585000D02*
X172500000Y-99415000D01*
X172500000Y-99415000D02*
X170200000Y-97115000D01*
X170200000Y-97115000D02*
X167970000Y-97115000D01*
%TO.N,Net-(J3-D7)*%
X164500000Y-102785000D02*
X158500000Y-108785000D01*
X164500000Y-90535000D02*
X164500000Y-102785000D01*
X158500000Y-108785000D02*
X158500000Y-128785000D01*
X167970000Y-89495000D02*
X165540000Y-89495000D01*
X165540000Y-89495000D02*
X164500000Y-90535000D01*
%TO.N,Net-(U2-D26)*%
X171500000Y-92095000D02*
X173190000Y-92095000D01*
%TD*%
%TA.AperFunction,Conductor*%
%TO.N,GND*%
G36*
X132554080Y-87654407D02*
G01*
X132587010Y-87699459D01*
X132587752Y-87699114D01*
X132589501Y-87702867D01*
X132589865Y-87703364D01*
X132590187Y-87704336D01*
X132682285Y-87853652D01*
X132682286Y-87853653D01*
X132682288Y-87853656D01*
X132806344Y-87977712D01*
X132955666Y-88069814D01*
X132974655Y-88076106D01*
X133023946Y-88112357D01*
X133042514Y-88170656D01*
X133023269Y-88228736D01*
X133001709Y-88250172D01*
X132995213Y-88254891D01*
X132844891Y-88405213D01*
X132719950Y-88577180D01*
X132719948Y-88577184D01*
X132623443Y-88766587D01*
X132557752Y-88968761D01*
X132524500Y-89178709D01*
X132524500Y-89391290D01*
X132557752Y-89601238D01*
X132623443Y-89803412D01*
X132719948Y-89992815D01*
X132719950Y-89992819D01*
X132844891Y-90164786D01*
X132844893Y-90164788D01*
X132844896Y-90164792D01*
X132995208Y-90315104D01*
X132995211Y-90315106D01*
X132995213Y-90315108D01*
X133167180Y-90440049D01*
X133167184Y-90440051D01*
X133180410Y-90446790D01*
X133223675Y-90490055D01*
X133233246Y-90550487D01*
X133205469Y-90605004D01*
X133180410Y-90623210D01*
X133167184Y-90629948D01*
X133167180Y-90629950D01*
X132995213Y-90754891D01*
X132844891Y-90905213D01*
X132719950Y-91077180D01*
X132719948Y-91077184D01*
X132623443Y-91266587D01*
X132557752Y-91468761D01*
X132524500Y-91678709D01*
X132524500Y-91891290D01*
X132557752Y-92101238D01*
X132623443Y-92303412D01*
X132719948Y-92492815D01*
X132719950Y-92492819D01*
X132844891Y-92664786D01*
X132844893Y-92664788D01*
X132844896Y-92664792D01*
X132995208Y-92815104D01*
X132995211Y-92815106D01*
X132995213Y-92815108D01*
X133167180Y-92940049D01*
X133167184Y-92940051D01*
X133356588Y-93036557D01*
X133395217Y-93049108D01*
X133444717Y-93085071D01*
X133463625Y-93143262D01*
X133444718Y-93201453D01*
X133409570Y-93231472D01*
X133272279Y-93301425D01*
X133272265Y-93301433D01*
X133125830Y-93407824D01*
X132997824Y-93535830D01*
X132891433Y-93682265D01*
X132891431Y-93682269D01*
X132809250Y-93843559D01*
X132753317Y-94015707D01*
X132750261Y-94034999D01*
X132750261Y-94035000D01*
X133595854Y-94035000D01*
X133557370Y-94101657D01*
X133525000Y-94222465D01*
X133525000Y-94347535D01*
X133557370Y-94468343D01*
X133595854Y-94535000D01*
X132750261Y-94535000D01*
X132753317Y-94554292D01*
X132809250Y-94726440D01*
X132891431Y-94887730D01*
X132891433Y-94887734D01*
X132997824Y-95034169D01*
X133125830Y-95162175D01*
X133272265Y-95268566D01*
X133272269Y-95268568D01*
X133433559Y-95350749D01*
X133605710Y-95406683D01*
X133605707Y-95406683D01*
X133750000Y-95429536D01*
X133750000Y-94689145D01*
X133816657Y-94727630D01*
X133937465Y-94760000D01*
X134062535Y-94760000D01*
X134183343Y-94727630D01*
X134250000Y-94689145D01*
X134250000Y-95429535D01*
X134394290Y-95406683D01*
X134566440Y-95350749D01*
X134727730Y-95268568D01*
X134727734Y-95268566D01*
X134874169Y-95162175D01*
X135002175Y-95034169D01*
X135108566Y-94887734D01*
X135108568Y-94887730D01*
X135190749Y-94726440D01*
X135246682Y-94554292D01*
X135249739Y-94535000D01*
X134404146Y-94535000D01*
X134442630Y-94468343D01*
X134475000Y-94347535D01*
X134475000Y-94222465D01*
X134442630Y-94101657D01*
X134404146Y-94035000D01*
X135249739Y-94035000D01*
X135249738Y-94034999D01*
X135246682Y-94015707D01*
X135190749Y-93843559D01*
X135108568Y-93682269D01*
X135108566Y-93682265D01*
X135002175Y-93535830D01*
X134874169Y-93407824D01*
X134727734Y-93301433D01*
X134727730Y-93301431D01*
X134590429Y-93231473D01*
X134547164Y-93188208D01*
X134537593Y-93127776D01*
X134565370Y-93073259D01*
X134604781Y-93049108D01*
X134643412Y-93036557D01*
X134832816Y-92940051D01*
X135004792Y-92815104D01*
X135155104Y-92664792D01*
X135155106Y-92664788D01*
X135155399Y-92664496D01*
X135209916Y-92636719D01*
X135225403Y-92635500D01*
X141130218Y-92635500D01*
X141188409Y-92654407D01*
X141220878Y-92694730D01*
X141245827Y-92751607D01*
X141381836Y-92959785D01*
X141550256Y-93142738D01*
X141590739Y-93174247D01*
X141658355Y-93226875D01*
X141692663Y-93277537D01*
X141690640Y-93338689D01*
X141658355Y-93383125D01*
X141550259Y-93467259D01*
X141550256Y-93467261D01*
X141550256Y-93467262D01*
X141381836Y-93650215D01*
X141245827Y-93858393D01*
X141168361Y-94034999D01*
X141145937Y-94086120D01*
X141084891Y-94327180D01*
X141064357Y-94575000D01*
X141084891Y-94822819D01*
X141084892Y-94822821D01*
X141145937Y-95063881D01*
X141245827Y-95291607D01*
X141381836Y-95499785D01*
X141550256Y-95682738D01*
X141550259Y-95682740D01*
X141658355Y-95766875D01*
X141692663Y-95817537D01*
X141690640Y-95878689D01*
X141658355Y-95923125D01*
X141550259Y-96007259D01*
X141550256Y-96007261D01*
X141550256Y-96007262D01*
X141381836Y-96190215D01*
X141362605Y-96219649D01*
X141314951Y-96258022D01*
X141279727Y-96264500D01*
X138836230Y-96264500D01*
X138671918Y-96297184D01*
X138671916Y-96297184D01*
X138626583Y-96315962D01*
X138517141Y-96361293D01*
X138517130Y-96361299D01*
X138377838Y-96454373D01*
X138377834Y-96454376D01*
X137426707Y-97405504D01*
X137372190Y-97433281D01*
X137356703Y-97434500D01*
X129916230Y-97434500D01*
X129751920Y-97467183D01*
X129751914Y-97467185D01*
X129597137Y-97531296D01*
X129457838Y-97624374D01*
X129457834Y-97624377D01*
X127839376Y-99242834D01*
X127839373Y-99242838D01*
X127746294Y-99382138D01*
X127746294Y-99382139D01*
X127712049Y-99464817D01*
X127682184Y-99536916D01*
X127682184Y-99536918D01*
X127649500Y-99701230D01*
X127649500Y-103868771D01*
X127664130Y-103942319D01*
X127682184Y-104033082D01*
X127746293Y-104187858D01*
X127746299Y-104187869D01*
X127785222Y-104246120D01*
X127839373Y-104327162D01*
X128957838Y-105445627D01*
X129097138Y-105538704D01*
X129097143Y-105538706D01*
X129187804Y-105576258D01*
X129187805Y-105576259D01*
X129222870Y-105590783D01*
X129251918Y-105602816D01*
X129416233Y-105635500D01*
X129416234Y-105635500D01*
X129583767Y-105635500D01*
X132274597Y-105635500D01*
X132332788Y-105654407D01*
X132344601Y-105664496D01*
X132344893Y-105664788D01*
X132344896Y-105664792D01*
X132495208Y-105815104D01*
X132495211Y-105815106D01*
X132495213Y-105815108D01*
X132667180Y-105940049D01*
X132667184Y-105940051D01*
X132680410Y-105946790D01*
X132723675Y-105990055D01*
X132733246Y-106050487D01*
X132705469Y-106105004D01*
X132680410Y-106123210D01*
X132667184Y-106129948D01*
X132667180Y-106129950D01*
X132495213Y-106254891D01*
X132344891Y-106405213D01*
X132219950Y-106577180D01*
X132219948Y-106577184D01*
X132123443Y-106766587D01*
X132057752Y-106968761D01*
X132024500Y-107178709D01*
X132024500Y-107391290D01*
X132057752Y-107601238D01*
X132123443Y-107803412D01*
X132219948Y-107992815D01*
X132219950Y-107992819D01*
X132344891Y-108164786D01*
X132344893Y-108164788D01*
X132344896Y-108164792D01*
X132495208Y-108315104D01*
X132495211Y-108315106D01*
X132495213Y-108315108D01*
X132667180Y-108440049D01*
X132667184Y-108440051D01*
X132680410Y-108446790D01*
X132723675Y-108490055D01*
X132733246Y-108550487D01*
X132705469Y-108605004D01*
X132680410Y-108623210D01*
X132667184Y-108629948D01*
X132667180Y-108629950D01*
X132495213Y-108754891D01*
X132344891Y-108905213D01*
X132219950Y-109077180D01*
X132219948Y-109077184D01*
X132123443Y-109266587D01*
X132057752Y-109468761D01*
X132024500Y-109678709D01*
X132024500Y-109891290D01*
X132057752Y-110101238D01*
X132123443Y-110303412D01*
X132219948Y-110492815D01*
X132219950Y-110492819D01*
X132344891Y-110664786D01*
X132344893Y-110664788D01*
X132344896Y-110664792D01*
X132495208Y-110815104D01*
X132495211Y-110815106D01*
X132495213Y-110815108D01*
X132667180Y-110940049D01*
X132667184Y-110940051D01*
X132680410Y-110946790D01*
X132723675Y-110990055D01*
X132733246Y-111050487D01*
X132705469Y-111105004D01*
X132680410Y-111123210D01*
X132667184Y-111129948D01*
X132667180Y-111129950D01*
X132495213Y-111254891D01*
X132344891Y-111405213D01*
X132219950Y-111577180D01*
X132219948Y-111577184D01*
X132123443Y-111766587D01*
X132057752Y-111968761D01*
X132024500Y-112178709D01*
X132024500Y-112391290D01*
X132057752Y-112601238D01*
X132123443Y-112803412D01*
X132219948Y-112992815D01*
X132219950Y-112992819D01*
X132344891Y-113164786D01*
X132344893Y-113164788D01*
X132344896Y-113164792D01*
X132495208Y-113315104D01*
X132495211Y-113315106D01*
X132495213Y-113315108D01*
X132667180Y-113440049D01*
X132667184Y-113440051D01*
X132856588Y-113536557D01*
X132895217Y-113549108D01*
X132944717Y-113585071D01*
X132963625Y-113643262D01*
X132944718Y-113701453D01*
X132909570Y-113731472D01*
X132772279Y-113801425D01*
X132772265Y-113801433D01*
X132625830Y-113907824D01*
X132497824Y-114035830D01*
X132391433Y-114182265D01*
X132391431Y-114182269D01*
X132309250Y-114343559D01*
X132253317Y-114515707D01*
X132250261Y-114534999D01*
X132250261Y-114535000D01*
X133095854Y-114535000D01*
X133057370Y-114601657D01*
X133025000Y-114722465D01*
X133025000Y-114847535D01*
X133057370Y-114968343D01*
X133095854Y-115035000D01*
X132250261Y-115035000D01*
X132253317Y-115054292D01*
X132309250Y-115226440D01*
X132391431Y-115387730D01*
X132391433Y-115387734D01*
X132497824Y-115534169D01*
X132625830Y-115662175D01*
X132772265Y-115768566D01*
X132772269Y-115768568D01*
X132909570Y-115838526D01*
X132952835Y-115881791D01*
X132962406Y-115942223D01*
X132934629Y-115996739D01*
X132895219Y-116020890D01*
X132856591Y-116033441D01*
X132667184Y-116129948D01*
X132667180Y-116129950D01*
X132495213Y-116254891D01*
X132344891Y-116405213D01*
X132219950Y-116577180D01*
X132219948Y-116577184D01*
X132123443Y-116766587D01*
X132057752Y-116968761D01*
X132024500Y-117178709D01*
X132024500Y-117391290D01*
X132057752Y-117601238D01*
X132123443Y-117803412D01*
X132219948Y-117992815D01*
X132219950Y-117992819D01*
X132344891Y-118164786D01*
X132344893Y-118164788D01*
X132344896Y-118164792D01*
X132495208Y-118315104D01*
X132495211Y-118315106D01*
X132495213Y-118315108D01*
X132667180Y-118440049D01*
X132667184Y-118440051D01*
X132680410Y-118446790D01*
X132723675Y-118490055D01*
X132733246Y-118550487D01*
X132705469Y-118605004D01*
X132680410Y-118623210D01*
X132667184Y-118629948D01*
X132667180Y-118629950D01*
X132495213Y-118754891D01*
X132495208Y-118754895D01*
X132495208Y-118754896D01*
X132344896Y-118905208D01*
X132344893Y-118905211D01*
X132344601Y-118905504D01*
X132290084Y-118933281D01*
X132274597Y-118934500D01*
X131893296Y-118934500D01*
X131835105Y-118915593D01*
X131823292Y-118905504D01*
X126379496Y-113461707D01*
X126351719Y-113407190D01*
X126350500Y-113391703D01*
X126350500Y-89178296D01*
X126369407Y-89120105D01*
X126379496Y-89108292D01*
X127823292Y-87664496D01*
X127877809Y-87636719D01*
X127893296Y-87635500D01*
X132495889Y-87635500D01*
X132554080Y-87654407D01*
G37*
%TD.AperFunction*%
%TA.AperFunction,Conductor*%
G36*
X141021184Y-77813346D02*
G01*
X141064449Y-77856611D01*
X141074672Y-77890975D01*
X141075908Y-77902480D01*
X141075909Y-77902485D01*
X141126202Y-78037329D01*
X141204964Y-78142541D01*
X141212454Y-78152546D01*
X141212457Y-78152548D01*
X141212458Y-78152549D01*
X141327670Y-78238797D01*
X141462511Y-78289089D01*
X141462512Y-78289089D01*
X141462517Y-78289091D01*
X141522127Y-78295500D01*
X141843046Y-78295499D01*
X141901234Y-78314406D01*
X141913048Y-78324495D01*
X142432424Y-78843871D01*
X142373147Y-78859755D01*
X142256853Y-78926898D01*
X142161898Y-79021853D01*
X142094755Y-79138147D01*
X142078871Y-79197425D01*
X141490973Y-78609527D01*
X141439865Y-78682518D01*
X141343733Y-78888676D01*
X141284857Y-79108402D01*
X141265034Y-79334996D01*
X141265034Y-79335003D01*
X141284857Y-79561597D01*
X141343733Y-79781323D01*
X141439866Y-79987483D01*
X141439866Y-79987484D01*
X141490973Y-80060471D01*
X142078871Y-79472572D01*
X142094755Y-79531853D01*
X142161898Y-79648147D01*
X142256853Y-79743102D01*
X142373147Y-79810245D01*
X142432423Y-79826127D01*
X141844526Y-80414024D01*
X141845300Y-80422871D01*
X141868873Y-80454153D01*
X141869941Y-80515329D01*
X141834847Y-80565450D01*
X141822387Y-80573452D01*
X141746495Y-80614523D01*
X141746487Y-80614528D01*
X141550259Y-80767259D01*
X141381835Y-80950216D01*
X141245826Y-81158395D01*
X141145937Y-81386120D01*
X141084891Y-81627180D01*
X141064357Y-81875000D01*
X141084891Y-82122819D01*
X141084892Y-82122821D01*
X141145937Y-82363881D01*
X141245827Y-82591607D01*
X141381836Y-82799785D01*
X141550256Y-82982738D01*
X141603945Y-83024526D01*
X141658355Y-83066875D01*
X141692663Y-83117537D01*
X141690640Y-83178689D01*
X141658355Y-83223125D01*
X141550259Y-83307259D01*
X141550256Y-83307261D01*
X141550256Y-83307262D01*
X141442931Y-83423848D01*
X141381835Y-83490216D01*
X141316023Y-83590950D01*
X141245827Y-83698393D01*
X141170508Y-83870104D01*
X141145937Y-83926120D01*
X141084891Y-84167180D01*
X141064357Y-84415000D01*
X141084891Y-84662819D01*
X141108253Y-84755070D01*
X141145937Y-84903881D01*
X141245827Y-85131607D01*
X141381836Y-85339785D01*
X141550256Y-85522738D01*
X141579466Y-85545473D01*
X141658355Y-85606875D01*
X141692663Y-85657537D01*
X141690640Y-85718689D01*
X141658355Y-85763125D01*
X141550259Y-85847259D01*
X141550256Y-85847261D01*
X141550256Y-85847262D01*
X141469948Y-85934500D01*
X141381835Y-86030216D01*
X141245826Y-86238395D01*
X141145937Y-86466120D01*
X141084891Y-86707180D01*
X141064357Y-86955000D01*
X141084891Y-87202819D01*
X141084892Y-87202821D01*
X141145937Y-87443881D01*
X141245827Y-87671607D01*
X141381836Y-87879785D01*
X141550256Y-88062738D01*
X141630249Y-88124999D01*
X141658355Y-88146875D01*
X141692663Y-88197537D01*
X141690640Y-88258689D01*
X141658355Y-88303125D01*
X141550259Y-88387259D01*
X141381835Y-88570216D01*
X141377283Y-88577184D01*
X141362605Y-88599649D01*
X141314951Y-88638022D01*
X141279727Y-88644500D01*
X135375018Y-88644500D01*
X135316827Y-88625593D01*
X135286809Y-88590446D01*
X135280054Y-88577189D01*
X135280049Y-88577180D01*
X135155108Y-88405213D01*
X135155106Y-88405211D01*
X135155104Y-88405208D01*
X135004792Y-88254896D01*
X134998293Y-88250174D01*
X134962329Y-88200675D01*
X134962328Y-88139490D01*
X134998291Y-88089989D01*
X135025337Y-88076108D01*
X135044334Y-88069814D01*
X135193656Y-87977712D01*
X135317712Y-87853656D01*
X135409814Y-87704334D01*
X135464999Y-87537797D01*
X135475500Y-87435009D01*
X135475499Y-86134992D01*
X135475499Y-86134983D01*
X135465000Y-86032211D01*
X135464999Y-86032209D01*
X135464999Y-86032203D01*
X135409814Y-85865666D01*
X135346567Y-85763125D01*
X135317714Y-85716347D01*
X135317713Y-85716346D01*
X135317712Y-85716344D01*
X135193656Y-85592288D01*
X135193653Y-85592286D01*
X135193652Y-85592285D01*
X135044337Y-85500187D01*
X134918359Y-85458442D01*
X134869070Y-85422190D01*
X134850500Y-85364467D01*
X134850500Y-83928295D01*
X134869407Y-83870104D01*
X134879490Y-83858297D01*
X140906235Y-77831551D01*
X140960752Y-77803775D01*
X141021184Y-77813346D01*
G37*
%TD.AperFunction*%
%TA.AperFunction,Conductor*%
G36*
X180483680Y-59829407D02*
G01*
X180519644Y-59878907D01*
X180524489Y-59909502D01*
X180523944Y-91158662D01*
X180523166Y-135812549D01*
X180523115Y-138710502D01*
X180504207Y-138768692D01*
X180454706Y-138804655D01*
X180424115Y-138809500D01*
X101624500Y-138809500D01*
X101566309Y-138790593D01*
X101530345Y-138741093D01*
X101525500Y-138710500D01*
X101525500Y-133913710D01*
X104399500Y-133913710D01*
X104399500Y-134156289D01*
X104431161Y-134396781D01*
X104431161Y-134396786D01*
X104493944Y-134631092D01*
X104493948Y-134631105D01*
X104586772Y-134855204D01*
X104586774Y-134855208D01*
X104586776Y-134855212D01*
X104603189Y-134883640D01*
X104708066Y-135065292D01*
X104855729Y-135257731D01*
X104855731Y-135257733D01*
X104855735Y-135257738D01*
X105027262Y-135429265D01*
X105027266Y-135429268D01*
X105027268Y-135429270D01*
X105219707Y-135576933D01*
X105219711Y-135576936D01*
X105429788Y-135698224D01*
X105653900Y-135791054D01*
X105888211Y-135853838D01*
X106128712Y-135885500D01*
X106128713Y-135885500D01*
X106371287Y-135885500D01*
X106371288Y-135885500D01*
X106611789Y-135853838D01*
X106846100Y-135791054D01*
X107070212Y-135698224D01*
X107280289Y-135576936D01*
X107472738Y-135429265D01*
X107644265Y-135257738D01*
X107791936Y-135065289D01*
X107913224Y-134855212D01*
X108006054Y-134631100D01*
X108068838Y-134396789D01*
X108100500Y-134156288D01*
X108100500Y-133913712D01*
X108068838Y-133673211D01*
X108006054Y-133438900D01*
X107913224Y-133214788D01*
X107791936Y-133004711D01*
X107678262Y-132856568D01*
X107644270Y-132812268D01*
X107644268Y-132812266D01*
X107644265Y-132812262D01*
X107472738Y-132640735D01*
X107472733Y-132640731D01*
X107472731Y-132640729D01*
X107280292Y-132493066D01*
X107280289Y-132493064D01*
X107070212Y-132371776D01*
X107070208Y-132371774D01*
X107070204Y-132371772D01*
X106846105Y-132278948D01*
X106846104Y-132278947D01*
X106846100Y-132278946D01*
X106611789Y-132216162D01*
X106611786Y-132216161D01*
X106611784Y-132216161D01*
X106371289Y-132184500D01*
X106371288Y-132184500D01*
X106128712Y-132184500D01*
X106128710Y-132184500D01*
X105888218Y-132216161D01*
X105888213Y-132216161D01*
X105653907Y-132278944D01*
X105653894Y-132278948D01*
X105429795Y-132371772D01*
X105219707Y-132493066D01*
X105027268Y-132640729D01*
X104855729Y-132812268D01*
X104708066Y-133004707D01*
X104708064Y-133004711D01*
X104588594Y-133211640D01*
X104586772Y-133214795D01*
X104493948Y-133438894D01*
X104493944Y-133438907D01*
X104431161Y-133673213D01*
X104431161Y-133673218D01*
X104399500Y-133913710D01*
X101525500Y-133913710D01*
X101525500Y-71881904D01*
X107749500Y-71881904D01*
X107749500Y-130368095D01*
X107786445Y-130601363D01*
X107859432Y-130825992D01*
X107966656Y-131036433D01*
X107966660Y-131036439D01*
X108105478Y-131227504D01*
X108105480Y-131227506D01*
X108105483Y-131227510D01*
X112022490Y-135144517D01*
X112213567Y-135283343D01*
X112424008Y-135390568D01*
X112648632Y-135463553D01*
X112648633Y-135463553D01*
X112648636Y-135463554D01*
X112881905Y-135500500D01*
X112881908Y-135500500D01*
X113118092Y-135500500D01*
X127614054Y-135500500D01*
X127672245Y-135519407D01*
X127706812Y-135564904D01*
X127756202Y-135697329D01*
X127803078Y-135759947D01*
X127842454Y-135812546D01*
X127842457Y-135812548D01*
X127842458Y-135812549D01*
X127957670Y-135898797D01*
X128092511Y-135949089D01*
X128092512Y-135949089D01*
X128092517Y-135949091D01*
X128152127Y-135955500D01*
X130847872Y-135955499D01*
X130907483Y-135949091D01*
X130974907Y-135923943D01*
X131042329Y-135898797D01*
X131042329Y-135898796D01*
X131042331Y-135898796D01*
X131157546Y-135812546D01*
X131243796Y-135697331D01*
X131294091Y-135562483D01*
X131300500Y-135502873D01*
X131300499Y-134155000D01*
X132895052Y-134155000D01*
X132914811Y-134406067D01*
X132973604Y-134650957D01*
X133069979Y-134883628D01*
X133069985Y-134883640D01*
X133201564Y-135098357D01*
X133201567Y-135098361D01*
X133202265Y-135099179D01*
X133898957Y-134402486D01*
X133923978Y-134462890D01*
X133995112Y-134569351D01*
X134085649Y-134659888D01*
X134192110Y-134731022D01*
X134252510Y-134756041D01*
X133555819Y-135452733D01*
X133556629Y-135453425D01*
X133556635Y-135453429D01*
X133771365Y-135585017D01*
X133771371Y-135585020D01*
X134004042Y-135681395D01*
X134004041Y-135681395D01*
X134248932Y-135740188D01*
X134500000Y-135759947D01*
X134751067Y-135740188D01*
X134995957Y-135681395D01*
X135228628Y-135585020D01*
X135228640Y-135585014D01*
X135443363Y-135453432D01*
X135444179Y-135452733D01*
X134747487Y-134756041D01*
X134807890Y-134731022D01*
X134914351Y-134659888D01*
X135004888Y-134569351D01*
X135076022Y-134462890D01*
X135101041Y-134402487D01*
X135797733Y-135099179D01*
X135798432Y-135098363D01*
X135930014Y-134883640D01*
X135930020Y-134883628D01*
X136026395Y-134650957D01*
X136085188Y-134406067D01*
X136104947Y-134155000D01*
X136085958Y-133913710D01*
X173899500Y-133913710D01*
X173899500Y-134156289D01*
X173931161Y-134396781D01*
X173931161Y-134396786D01*
X173993944Y-134631092D01*
X173993948Y-134631105D01*
X174086772Y-134855204D01*
X174086774Y-134855208D01*
X174086776Y-134855212D01*
X174103189Y-134883640D01*
X174208066Y-135065292D01*
X174355729Y-135257731D01*
X174355731Y-135257733D01*
X174355735Y-135257738D01*
X174527262Y-135429265D01*
X174527266Y-135429268D01*
X174527268Y-135429270D01*
X174719707Y-135576933D01*
X174719711Y-135576936D01*
X174929788Y-135698224D01*
X175153900Y-135791054D01*
X175388211Y-135853838D01*
X175628712Y-135885500D01*
X175628713Y-135885500D01*
X175871287Y-135885500D01*
X175871288Y-135885500D01*
X176111789Y-135853838D01*
X176346100Y-135791054D01*
X176570212Y-135698224D01*
X176780289Y-135576936D01*
X176972738Y-135429265D01*
X177144265Y-135257738D01*
X177291936Y-135065289D01*
X177413224Y-134855212D01*
X177506054Y-134631100D01*
X177568838Y-134396789D01*
X177600500Y-134156288D01*
X177600500Y-133913712D01*
X177568838Y-133673211D01*
X177506054Y-133438900D01*
X177413224Y-133214788D01*
X177291936Y-133004711D01*
X177178262Y-132856568D01*
X177144270Y-132812268D01*
X177144268Y-132812266D01*
X177144265Y-132812262D01*
X176972738Y-132640735D01*
X176972733Y-132640731D01*
X176972731Y-132640729D01*
X176780292Y-132493066D01*
X176780289Y-132493064D01*
X176570212Y-132371776D01*
X176570208Y-132371774D01*
X176570204Y-132371772D01*
X176346105Y-132278948D01*
X176346104Y-132278947D01*
X176346100Y-132278946D01*
X176111789Y-132216162D01*
X176111786Y-132216161D01*
X176111784Y-132216161D01*
X175871289Y-132184500D01*
X175871288Y-132184500D01*
X175628712Y-132184500D01*
X175628710Y-132184500D01*
X175388218Y-132216161D01*
X175388213Y-132216161D01*
X175153907Y-132278944D01*
X175153894Y-132278948D01*
X174929795Y-132371772D01*
X174719707Y-132493066D01*
X174527268Y-132640729D01*
X174355729Y-132812268D01*
X174208066Y-133004707D01*
X174208064Y-133004711D01*
X174088594Y-133211640D01*
X174086772Y-133214795D01*
X173993948Y-133438894D01*
X173993944Y-133438907D01*
X173931161Y-133673213D01*
X173931161Y-133673218D01*
X173899500Y-133913710D01*
X136085958Y-133913710D01*
X136085188Y-133903932D01*
X136026395Y-133659042D01*
X135930020Y-133426371D01*
X135930017Y-133426365D01*
X135798429Y-133211635D01*
X135798425Y-133211629D01*
X135797733Y-133210819D01*
X135101041Y-133907510D01*
X135076022Y-133847110D01*
X135004888Y-133740649D01*
X134914351Y-133650112D01*
X134807890Y-133578978D01*
X134747486Y-133553957D01*
X135444179Y-132857265D01*
X135443361Y-132856567D01*
X135443357Y-132856564D01*
X135228640Y-132724985D01*
X135228628Y-132724979D01*
X134995957Y-132628604D01*
X134995958Y-132628604D01*
X134751067Y-132569811D01*
X134500000Y-132550052D01*
X134248932Y-132569811D01*
X134004042Y-132628604D01*
X133771371Y-132724979D01*
X133771359Y-132724985D01*
X133556640Y-132856565D01*
X133556635Y-132856568D01*
X133555818Y-132857265D01*
X134252511Y-133553958D01*
X134192110Y-133578978D01*
X134085649Y-133650112D01*
X133995112Y-133740649D01*
X133923978Y-133847110D01*
X133898958Y-133907511D01*
X133202265Y-133210818D01*
X133201568Y-133211635D01*
X133201565Y-133211640D01*
X133069985Y-133426359D01*
X133069979Y-133426371D01*
X132973604Y-133659042D01*
X132914811Y-133903932D01*
X132895052Y-134155000D01*
X131300499Y-134155000D01*
X131300499Y-132807128D01*
X131294091Y-132747517D01*
X131254262Y-132640729D01*
X131243797Y-132612670D01*
X131157549Y-132497458D01*
X131157548Y-132497457D01*
X131157546Y-132497454D01*
X131157541Y-132497450D01*
X131042329Y-132411202D01*
X130907488Y-132360910D01*
X130907483Y-132360909D01*
X130907481Y-132360908D01*
X130907477Y-132360908D01*
X130876249Y-132357550D01*
X130847873Y-132354500D01*
X130847870Y-132354500D01*
X128152133Y-132354500D01*
X128152129Y-132354500D01*
X128152128Y-132354501D01*
X128144949Y-132355272D01*
X128092519Y-132360908D01*
X128092514Y-132360909D01*
X127957670Y-132411202D01*
X127866099Y-132479753D01*
X127808184Y-132499490D01*
X127806770Y-132499500D01*
X113662535Y-132499500D01*
X113604344Y-132480593D01*
X113592531Y-132470504D01*
X110779496Y-129657469D01*
X110751719Y-129602952D01*
X110750500Y-129587465D01*
X110750500Y-129099500D01*
X110769407Y-129041309D01*
X110818907Y-129005345D01*
X110849500Y-129000500D01*
X114164985Y-129000500D01*
X114223176Y-129019407D01*
X114257743Y-129064903D01*
X114306203Y-129194830D01*
X114354989Y-129260000D01*
X114392454Y-129310046D01*
X114392457Y-129310048D01*
X114392458Y-129310049D01*
X114507670Y-129396297D01*
X114642511Y-129446589D01*
X114642512Y-129446589D01*
X114642517Y-129446591D01*
X114702127Y-129453000D01*
X115817781Y-129452999D01*
X115875972Y-129471906D01*
X115887785Y-129481995D01*
X117011698Y-130605908D01*
X117144092Y-130738302D01*
X117210463Y-130782649D01*
X117299761Y-130842318D01*
X117299767Y-130842320D01*
X117299769Y-130842322D01*
X117472749Y-130913973D01*
X117564566Y-130932236D01*
X117656383Y-130950500D01*
X117656384Y-130950500D01*
X121570307Y-130950500D01*
X121628498Y-130969407D01*
X121640304Y-130979490D01*
X121660861Y-131000047D01*
X121660864Y-131000049D01*
X121660867Y-131000052D01*
X121660869Y-131000053D01*
X121785131Y-131087061D01*
X121847266Y-131130568D01*
X121847272Y-131130571D01*
X121847276Y-131130573D01*
X122053500Y-131226737D01*
X122053504Y-131226739D01*
X122273308Y-131285635D01*
X122273312Y-131285635D01*
X122273315Y-131285636D01*
X122499997Y-131305468D01*
X122500000Y-131305468D01*
X122500003Y-131305468D01*
X122726684Y-131285636D01*
X122726685Y-131285635D01*
X122726692Y-131285635D01*
X122946496Y-131226739D01*
X123152734Y-131130568D01*
X123339139Y-131000047D01*
X123500047Y-130839139D01*
X123630568Y-130652734D01*
X123726739Y-130446496D01*
X123785635Y-130226692D01*
X123801148Y-130049386D01*
X123805468Y-130000003D01*
X123805468Y-129999996D01*
X123785636Y-129773315D01*
X123785635Y-129773312D01*
X123785635Y-129773308D01*
X123726739Y-129553504D01*
X123725922Y-129551752D01*
X123630573Y-129347276D01*
X123630571Y-129347272D01*
X123630568Y-129347266D01*
X123500053Y-129160869D01*
X123500052Y-129160867D01*
X123500049Y-129160864D01*
X123500047Y-129160861D01*
X123339139Y-128999953D01*
X123339135Y-128999950D01*
X123339132Y-128999947D01*
X123339130Y-128999946D01*
X123152737Y-128869434D01*
X123152736Y-128869433D01*
X123152734Y-128869432D01*
X123152731Y-128869430D01*
X123152723Y-128869426D01*
X122946499Y-128773262D01*
X122946500Y-128773262D01*
X122913268Y-128764357D01*
X122832502Y-128742716D01*
X122781189Y-128709393D01*
X122759262Y-128652271D01*
X122775098Y-128593171D01*
X122822364Y-128554775D01*
X122992412Y-128488898D01*
X122992416Y-128488897D01*
X123080686Y-128434241D01*
X122546445Y-127900000D01*
X122552661Y-127900000D01*
X122654394Y-127872741D01*
X122745606Y-127820080D01*
X122820080Y-127745606D01*
X122872741Y-127654394D01*
X122900000Y-127552661D01*
X122900000Y-127546445D01*
X123437466Y-128083911D01*
X123439245Y-128081556D01*
X123439249Y-128081549D01*
X123530112Y-127899070D01*
X123585902Y-127702989D01*
X123604712Y-127500000D01*
X123585902Y-127297010D01*
X123530112Y-127100929D01*
X123439249Y-126918450D01*
X123439244Y-126918441D01*
X123437466Y-126916087D01*
X122900000Y-127453553D01*
X122900000Y-127447339D01*
X122872741Y-127345606D01*
X122820080Y-127254394D01*
X122745606Y-127179920D01*
X122654394Y-127127259D01*
X122552661Y-127100000D01*
X122546443Y-127100000D01*
X123080686Y-126565757D01*
X122992418Y-126511104D01*
X122992413Y-126511101D01*
X122802316Y-126437458D01*
X122601930Y-126400000D01*
X122398070Y-126400000D01*
X122197683Y-126437458D01*
X122007586Y-126511101D01*
X122007584Y-126511102D01*
X121919312Y-126565757D01*
X122453555Y-127100000D01*
X122447339Y-127100000D01*
X122345606Y-127127259D01*
X122254394Y-127179920D01*
X122179920Y-127254394D01*
X122127259Y-127345606D01*
X122100000Y-127447339D01*
X122100000Y-127453554D01*
X121562533Y-126916087D01*
X121560753Y-126918445D01*
X121560750Y-126918449D01*
X121469887Y-127100929D01*
X121414097Y-127297010D01*
X121395287Y-127500000D01*
X121414097Y-127702989D01*
X121469887Y-127899070D01*
X121560751Y-128081551D01*
X121562532Y-128083911D01*
X122100000Y-127546443D01*
X122100000Y-127552661D01*
X122127259Y-127654394D01*
X122179920Y-127745606D01*
X122254394Y-127820080D01*
X122345606Y-127872741D01*
X122447339Y-127900000D01*
X122453553Y-127900000D01*
X121919312Y-128434241D01*
X122007581Y-128488895D01*
X122007586Y-128488898D01*
X122177636Y-128554775D01*
X122225067Y-128593426D01*
X122240721Y-128652575D01*
X122218618Y-128709629D01*
X122167496Y-128742717D01*
X122053500Y-128773262D01*
X121847276Y-128869426D01*
X121847262Y-128869434D01*
X121660869Y-128999946D01*
X121660867Y-128999947D01*
X121660861Y-128999952D01*
X121660861Y-128999953D01*
X121640308Y-129020505D01*
X121585794Y-129048281D01*
X121570307Y-129049500D01*
X118184718Y-129049500D01*
X118126527Y-129030593D01*
X118114714Y-129020504D01*
X117279495Y-128185285D01*
X117251718Y-128130768D01*
X117250499Y-128115281D01*
X117250499Y-126999633D01*
X117250499Y-126999628D01*
X117244091Y-126940017D01*
X117215748Y-126864025D01*
X117193797Y-126805170D01*
X117107549Y-126689958D01*
X117107548Y-126689957D01*
X117107546Y-126689954D01*
X117058568Y-126653289D01*
X116992329Y-126603702D01*
X116857488Y-126553410D01*
X116857483Y-126553409D01*
X116857481Y-126553408D01*
X116857477Y-126553408D01*
X116826249Y-126550050D01*
X116797873Y-126547000D01*
X116797870Y-126547000D01*
X116720810Y-126547000D01*
X116662619Y-126528093D01*
X116626655Y-126478593D01*
X116626655Y-126417407D01*
X116650806Y-126377996D01*
X116752851Y-126275950D01*
X116868735Y-126116450D01*
X116958236Y-125940793D01*
X117019160Y-125753289D01*
X117026016Y-125710000D01*
X116240748Y-125710000D01*
X116262518Y-125672292D01*
X116300000Y-125532409D01*
X116300000Y-125387591D01*
X116262518Y-125247708D01*
X116240748Y-125210000D01*
X117026016Y-125210000D01*
X117019160Y-125166710D01*
X116958236Y-124979206D01*
X116868735Y-124803549D01*
X116752851Y-124644049D01*
X116613450Y-124504648D01*
X116453951Y-124388765D01*
X116450970Y-124386938D01*
X116411237Y-124340409D01*
X116406441Y-124279412D01*
X116438414Y-124227245D01*
X116457755Y-124214322D01*
X116518240Y-124183504D01*
X116559033Y-124162720D01*
X116559034Y-124162719D01*
X116559033Y-124162719D01*
X116559038Y-124162717D01*
X116744066Y-124028286D01*
X116905786Y-123866566D01*
X117040217Y-123681538D01*
X117144048Y-123477758D01*
X117214722Y-123260245D01*
X117250500Y-123034354D01*
X117250500Y-122805646D01*
X117250500Y-122804717D01*
X117269407Y-122746526D01*
X117279496Y-122734713D01*
X118426951Y-121587259D01*
X119574714Y-120439496D01*
X119629231Y-120411719D01*
X119644718Y-120410500D01*
X121320307Y-120410500D01*
X121378498Y-120429407D01*
X121390304Y-120439490D01*
X121410861Y-120460047D01*
X121410864Y-120460049D01*
X121410867Y-120460052D01*
X121410869Y-120460053D01*
X121523194Y-120538703D01*
X121597266Y-120590568D01*
X121597272Y-120590571D01*
X121597276Y-120590573D01*
X121803500Y-120686737D01*
X121803504Y-120686739D01*
X121917498Y-120717283D01*
X121968810Y-120750606D01*
X121990737Y-120807727D01*
X121974902Y-120866828D01*
X121927636Y-120905224D01*
X121757586Y-120971101D01*
X121757584Y-120971102D01*
X121669312Y-121025757D01*
X122203555Y-121560000D01*
X122197339Y-121560000D01*
X122095606Y-121587259D01*
X122004394Y-121639920D01*
X121929920Y-121714394D01*
X121877259Y-121805606D01*
X121850000Y-121907339D01*
X121850000Y-121913554D01*
X121312533Y-121376087D01*
X121310753Y-121378445D01*
X121310750Y-121378449D01*
X121219887Y-121560929D01*
X121164097Y-121757010D01*
X121145287Y-121960000D01*
X121164097Y-122162989D01*
X121219887Y-122359070D01*
X121310751Y-122541551D01*
X121312532Y-122543911D01*
X121850000Y-122006443D01*
X121850000Y-122012661D01*
X121877259Y-122114394D01*
X121929920Y-122205606D01*
X122004394Y-122280080D01*
X122095606Y-122332741D01*
X122197339Y-122360000D01*
X122203553Y-122360000D01*
X121669312Y-122894241D01*
X121757581Y-122948895D01*
X121757586Y-122948898D01*
X121947683Y-123022541D01*
X122148070Y-123060000D01*
X122351930Y-123060000D01*
X122552316Y-123022541D01*
X122742415Y-122948897D01*
X122742416Y-122948897D01*
X122830686Y-122894241D01*
X122296445Y-122360000D01*
X122302661Y-122360000D01*
X122404394Y-122332741D01*
X122495606Y-122280080D01*
X122570080Y-122205606D01*
X122622741Y-122114394D01*
X122650000Y-122012661D01*
X122650000Y-122006445D01*
X123187466Y-122543911D01*
X123189245Y-122541556D01*
X123189249Y-122541549D01*
X123280112Y-122359070D01*
X123335902Y-122162989D01*
X123354712Y-121960000D01*
X123335902Y-121757010D01*
X123280112Y-121560929D01*
X123189249Y-121378450D01*
X123189244Y-121378441D01*
X123187466Y-121376087D01*
X122650000Y-121913553D01*
X122650000Y-121907339D01*
X122622741Y-121805606D01*
X122570080Y-121714394D01*
X122495606Y-121639920D01*
X122404394Y-121587259D01*
X122302661Y-121560000D01*
X122296443Y-121560000D01*
X122830686Y-121025757D01*
X122742418Y-120971104D01*
X122742413Y-120971101D01*
X122572363Y-120905224D01*
X122524932Y-120866572D01*
X122509278Y-120807423D01*
X122531381Y-120750370D01*
X122582501Y-120717283D01*
X122696496Y-120686739D01*
X122902734Y-120590568D01*
X123089139Y-120460047D01*
X123109691Y-120439494D01*
X123164206Y-120411719D01*
X123179693Y-120410500D01*
X125025282Y-120410500D01*
X125083473Y-120429407D01*
X125095286Y-120439496D01*
X130046698Y-125390908D01*
X130179092Y-125523302D01*
X130214107Y-125546698D01*
X130334761Y-125627318D01*
X130334767Y-125627320D01*
X130334769Y-125627322D01*
X130507749Y-125698973D01*
X130599566Y-125717236D01*
X130691383Y-125735500D01*
X130691384Y-125735500D01*
X141565282Y-125735500D01*
X141623473Y-125754407D01*
X141635286Y-125764496D01*
X142520504Y-126649714D01*
X142548281Y-126704231D01*
X142549500Y-126719718D01*
X142549500Y-127659596D01*
X142530593Y-127717787D01*
X142520504Y-127729599D01*
X142469897Y-127780206D01*
X142469892Y-127780212D01*
X142344950Y-127952180D01*
X142344948Y-127952185D01*
X142328599Y-127984271D01*
X142285333Y-128027535D01*
X142224901Y-128037105D01*
X142170385Y-128009326D01*
X142142609Y-127954809D01*
X142142096Y-127951126D01*
X142139386Y-127928557D01*
X142083919Y-127787904D01*
X141992564Y-127667435D01*
X141872095Y-127576080D01*
X141731443Y-127520613D01*
X141643064Y-127510000D01*
X141250001Y-127510000D01*
X141250000Y-127510001D01*
X141250000Y-128380854D01*
X141183343Y-128342370D01*
X141062535Y-128310000D01*
X140937465Y-128310000D01*
X140816657Y-128342370D01*
X140750000Y-128380854D01*
X140750000Y-127510001D01*
X140749999Y-127510000D01*
X140356935Y-127510000D01*
X140268556Y-127520613D01*
X140127904Y-127576080D01*
X140007435Y-127667435D01*
X139916080Y-127787904D01*
X139860613Y-127928556D01*
X139850000Y-128016935D01*
X139850000Y-128534999D01*
X139850001Y-128535000D01*
X140595854Y-128535000D01*
X140557370Y-128601657D01*
X140525000Y-128722465D01*
X140525000Y-128847535D01*
X140557370Y-128968343D01*
X140595854Y-129035000D01*
X139850001Y-129035000D01*
X139850000Y-129035001D01*
X139850000Y-129553064D01*
X139860613Y-129641443D01*
X139916080Y-129782095D01*
X140007435Y-129902564D01*
X140127904Y-129993919D01*
X140268556Y-130049386D01*
X140356935Y-130059999D01*
X140356942Y-130060000D01*
X140749999Y-130060000D01*
X140750000Y-130059999D01*
X140750000Y-129189145D01*
X140816657Y-129227630D01*
X140937465Y-129260000D01*
X141062535Y-129260000D01*
X141183343Y-129227630D01*
X141250000Y-129189145D01*
X141250000Y-130059999D01*
X141250001Y-130060000D01*
X141643058Y-130060000D01*
X141643064Y-130059999D01*
X141731443Y-130049386D01*
X141872095Y-129993919D01*
X141992564Y-129902564D01*
X142083919Y-129782095D01*
X142139386Y-129641443D01*
X142142096Y-129618873D01*
X142167805Y-129563351D01*
X142221240Y-129533545D01*
X142281989Y-129540839D01*
X142326848Y-129582447D01*
X142328599Y-129585729D01*
X142344945Y-129617810D01*
X142344950Y-129617819D01*
X142469891Y-129789786D01*
X142469893Y-129789788D01*
X142469896Y-129789792D01*
X142620208Y-129940104D01*
X142620211Y-129940106D01*
X142620213Y-129940108D01*
X142792180Y-130065049D01*
X142792184Y-130065051D01*
X142981588Y-130161557D01*
X143183757Y-130227246D01*
X143183758Y-130227246D01*
X143183761Y-130227247D01*
X143393710Y-130260500D01*
X143393713Y-130260500D01*
X143606290Y-130260500D01*
X143816238Y-130227247D01*
X143816239Y-130227246D01*
X143816243Y-130227246D01*
X144018412Y-130161557D01*
X144207816Y-130065051D01*
X144379792Y-129940104D01*
X144530104Y-129789792D01*
X144655051Y-129617816D01*
X144661789Y-129604590D01*
X144705053Y-129561325D01*
X144765485Y-129551752D01*
X144820002Y-129579529D01*
X144838211Y-129604591D01*
X144844949Y-129617816D01*
X144844950Y-129617819D01*
X144969891Y-129789786D01*
X144969893Y-129789788D01*
X144969896Y-129789792D01*
X145120208Y-129940104D01*
X145120211Y-129940106D01*
X145120213Y-129940108D01*
X145292180Y-130065049D01*
X145292184Y-130065051D01*
X145481588Y-130161557D01*
X145683757Y-130227246D01*
X145683758Y-130227246D01*
X145683761Y-130227247D01*
X145893710Y-130260500D01*
X145893713Y-130260500D01*
X146106290Y-130260500D01*
X146316238Y-130227247D01*
X146316239Y-130227246D01*
X146316243Y-130227246D01*
X146518412Y-130161557D01*
X146707816Y-130065051D01*
X146879792Y-129940104D01*
X147030104Y-129789792D01*
X147155051Y-129617816D01*
X147161789Y-129604590D01*
X147205053Y-129561325D01*
X147265485Y-129551752D01*
X147320002Y-129579529D01*
X147338211Y-129604591D01*
X147344949Y-129617816D01*
X147344950Y-129617819D01*
X147469891Y-129789786D01*
X147469893Y-129789788D01*
X147469896Y-129789792D01*
X147620208Y-129940104D01*
X147620211Y-129940106D01*
X147620213Y-129940108D01*
X147792180Y-130065049D01*
X147792184Y-130065051D01*
X147981588Y-130161557D01*
X148183757Y-130227246D01*
X148183758Y-130227246D01*
X148183761Y-130227247D01*
X148393710Y-130260500D01*
X148393713Y-130260500D01*
X148606290Y-130260500D01*
X148816238Y-130227247D01*
X148816239Y-130227246D01*
X148816243Y-130227246D01*
X149018412Y-130161557D01*
X149207816Y-130065051D01*
X149379792Y-129940104D01*
X149530104Y-129789792D01*
X149655051Y-129617816D01*
X149661789Y-129604590D01*
X149705053Y-129561325D01*
X149765485Y-129551752D01*
X149820002Y-129579529D01*
X149838211Y-129604591D01*
X149844949Y-129617816D01*
X149844950Y-129617819D01*
X149969891Y-129789786D01*
X149969893Y-129789788D01*
X149969896Y-129789792D01*
X150120208Y-129940104D01*
X150120211Y-129940106D01*
X150120213Y-129940108D01*
X150292180Y-130065049D01*
X150292184Y-130065051D01*
X150481588Y-130161557D01*
X150683757Y-130227246D01*
X150683758Y-130227246D01*
X150683761Y-130227247D01*
X150893710Y-130260500D01*
X150893713Y-130260500D01*
X151106290Y-130260500D01*
X151316238Y-130227247D01*
X151316239Y-130227246D01*
X151316243Y-130227246D01*
X151518412Y-130161557D01*
X151707816Y-130065051D01*
X151879792Y-129940104D01*
X152030104Y-129789792D01*
X152155051Y-129617816D01*
X152161789Y-129604590D01*
X152205053Y-129561325D01*
X152265485Y-129551752D01*
X152320002Y-129579529D01*
X152338211Y-129604591D01*
X152344949Y-129617816D01*
X152344950Y-129617819D01*
X152469891Y-129789786D01*
X152469893Y-129789788D01*
X152469896Y-129789792D01*
X152620208Y-129940104D01*
X152620211Y-129940106D01*
X152620213Y-129940108D01*
X152792180Y-130065049D01*
X152792184Y-130065051D01*
X152981588Y-130161557D01*
X153183757Y-130227246D01*
X153183758Y-130227246D01*
X153183761Y-130227247D01*
X153393710Y-130260500D01*
X153393713Y-130260500D01*
X153606290Y-130260500D01*
X153816238Y-130227247D01*
X153816239Y-130227246D01*
X153816243Y-130227246D01*
X154018412Y-130161557D01*
X154207816Y-130065051D01*
X154379792Y-129940104D01*
X154530104Y-129789792D01*
X154655051Y-129617816D01*
X154661789Y-129604590D01*
X154705053Y-129561325D01*
X154765485Y-129551752D01*
X154820002Y-129579529D01*
X154838211Y-129604591D01*
X154844949Y-129617816D01*
X154844950Y-129617819D01*
X154969891Y-129789786D01*
X154969893Y-129789788D01*
X154969896Y-129789792D01*
X155120208Y-129940104D01*
X155120211Y-129940106D01*
X155120213Y-129940108D01*
X155292180Y-130065049D01*
X155292184Y-130065051D01*
X155481588Y-130161557D01*
X155683757Y-130227246D01*
X155683758Y-130227246D01*
X155683761Y-130227247D01*
X155893710Y-130260500D01*
X155893713Y-130260500D01*
X156106290Y-130260500D01*
X156316238Y-130227247D01*
X156316239Y-130227246D01*
X156316243Y-130227246D01*
X156518412Y-130161557D01*
X156707816Y-130065051D01*
X156879792Y-129940104D01*
X157030104Y-129789792D01*
X157155051Y-129617816D01*
X157161789Y-129604590D01*
X157205053Y-129561325D01*
X157265485Y-129551752D01*
X157320002Y-129579529D01*
X157338211Y-129604591D01*
X157344949Y-129617816D01*
X157344950Y-129617819D01*
X157469891Y-129789786D01*
X157469893Y-129789788D01*
X157469896Y-129789792D01*
X157620208Y-129940104D01*
X157620211Y-129940106D01*
X157620213Y-129940108D01*
X157792180Y-130065049D01*
X157792184Y-130065051D01*
X157981588Y-130161557D01*
X158183757Y-130227246D01*
X158183758Y-130227246D01*
X158183761Y-130227247D01*
X158393710Y-130260500D01*
X158393713Y-130260500D01*
X158606290Y-130260500D01*
X158816238Y-130227247D01*
X158816239Y-130227246D01*
X158816243Y-130227246D01*
X159018412Y-130161557D01*
X159207816Y-130065051D01*
X159379792Y-129940104D01*
X159530104Y-129789792D01*
X159655051Y-129617816D01*
X159751557Y-129428412D01*
X159817246Y-129226243D01*
X159822221Y-129194831D01*
X159850500Y-129016290D01*
X159850500Y-128553709D01*
X159817247Y-128343761D01*
X159816795Y-128342370D01*
X159751557Y-128141588D01*
X159655051Y-127952184D01*
X159655049Y-127952180D01*
X159530108Y-127780213D01*
X159530106Y-127780211D01*
X159530104Y-127780208D01*
X159379792Y-127629896D01*
X159379788Y-127629893D01*
X159379496Y-127629601D01*
X159351719Y-127575084D01*
X159350500Y-127559597D01*
X159350500Y-125784996D01*
X163395034Y-125784996D01*
X163395034Y-125785003D01*
X163414857Y-126011597D01*
X163473733Y-126231323D01*
X163569866Y-126437483D01*
X163569866Y-126437484D01*
X163620973Y-126510471D01*
X164217036Y-125914407D01*
X164234075Y-125977993D01*
X164299901Y-126092007D01*
X164392993Y-126185099D01*
X164507007Y-126250925D01*
X164570589Y-126267962D01*
X163974526Y-126864024D01*
X164047518Y-126915134D01*
X164253676Y-127011266D01*
X164473402Y-127070142D01*
X164699997Y-127089966D01*
X164700003Y-127089966D01*
X164926597Y-127070142D01*
X165146323Y-127011266D01*
X165352483Y-126915133D01*
X165352486Y-126915132D01*
X165425471Y-126864025D01*
X164829408Y-126267962D01*
X164892993Y-126250925D01*
X165007007Y-126185099D01*
X165100099Y-126092007D01*
X165165925Y-125977993D01*
X165182962Y-125914408D01*
X165779025Y-126510471D01*
X165830132Y-126437486D01*
X165830133Y-126437483D01*
X165926266Y-126231323D01*
X165985142Y-126011597D01*
X166004966Y-125785003D01*
X166004966Y-125784996D01*
X165985142Y-125558402D01*
X165926266Y-125338676D01*
X165830134Y-125132518D01*
X165779024Y-125059526D01*
X165182962Y-125655589D01*
X165165925Y-125592007D01*
X165100099Y-125477993D01*
X165007007Y-125384901D01*
X164892993Y-125319075D01*
X164829407Y-125302036D01*
X165425471Y-124705973D01*
X165352484Y-124654866D01*
X165146323Y-124558733D01*
X164926597Y-124499857D01*
X164700003Y-124480034D01*
X164699997Y-124480034D01*
X164473402Y-124499857D01*
X164253676Y-124558733D01*
X164047518Y-124654865D01*
X163974527Y-124705973D01*
X164570591Y-125302037D01*
X164507007Y-125319075D01*
X164392993Y-125384901D01*
X164299901Y-125477993D01*
X164234075Y-125592007D01*
X164217037Y-125655591D01*
X163620973Y-125059527D01*
X163569865Y-125132518D01*
X163473733Y-125338676D01*
X163414857Y-125558402D01*
X163395034Y-125784996D01*
X159350500Y-125784996D01*
X159350500Y-109178296D01*
X159369407Y-109120105D01*
X159379496Y-109108292D01*
X162242341Y-106245447D01*
X165160626Y-103327162D01*
X165253703Y-103187863D01*
X165269603Y-103149477D01*
X165317816Y-103033082D01*
X165350500Y-102868767D01*
X165350500Y-90928296D01*
X165369407Y-90870105D01*
X165379496Y-90858292D01*
X165863292Y-90374496D01*
X165917809Y-90346719D01*
X165933296Y-90345500D01*
X166679727Y-90345500D01*
X166737918Y-90364407D01*
X166762605Y-90390349D01*
X166781836Y-90419785D01*
X166950256Y-90602738D01*
X166985217Y-90629949D01*
X167058355Y-90686875D01*
X167092663Y-90737537D01*
X167090640Y-90798689D01*
X167058355Y-90843125D01*
X166950259Y-90927259D01*
X166781835Y-91110216D01*
X166710984Y-91218662D01*
X166645827Y-91318393D01*
X166579870Y-91468761D01*
X166545937Y-91546120D01*
X166484891Y-91787180D01*
X166464357Y-92035000D01*
X166484891Y-92282819D01*
X166484892Y-92282821D01*
X166545937Y-92523881D01*
X166645827Y-92751607D01*
X166781836Y-92959785D01*
X166950256Y-93142738D01*
X166990739Y-93174247D01*
X167058355Y-93226875D01*
X167092663Y-93277537D01*
X167090640Y-93338689D01*
X167058355Y-93383125D01*
X166950259Y-93467259D01*
X166950256Y-93467261D01*
X166950256Y-93467262D01*
X166781836Y-93650215D01*
X166645827Y-93858393D01*
X166568361Y-94034999D01*
X166545937Y-94086120D01*
X166484891Y-94327180D01*
X166464357Y-94575000D01*
X166484891Y-94822819D01*
X166484892Y-94822821D01*
X166545937Y-95063881D01*
X166645827Y-95291607D01*
X166781836Y-95499785D01*
X166950256Y-95682738D01*
X166950259Y-95682740D01*
X167058355Y-95766875D01*
X167092663Y-95817537D01*
X167090640Y-95878689D01*
X167058355Y-95923125D01*
X166950259Y-96007259D01*
X166950256Y-96007261D01*
X166950256Y-96007262D01*
X166893638Y-96068766D01*
X166781835Y-96190216D01*
X166645826Y-96398395D01*
X166545937Y-96626120D01*
X166484891Y-96867180D01*
X166464357Y-97115000D01*
X166484891Y-97362819D01*
X166511320Y-97467183D01*
X166545937Y-97603881D01*
X166645827Y-97831607D01*
X166781836Y-98039785D01*
X166950256Y-98222738D01*
X166950259Y-98222740D01*
X167058355Y-98306875D01*
X167092663Y-98357537D01*
X167090640Y-98418689D01*
X167058355Y-98463125D01*
X166950259Y-98547259D01*
X166781835Y-98730216D01*
X166745656Y-98785593D01*
X166649540Y-98932711D01*
X166645826Y-98938395D01*
X166623989Y-98988177D01*
X166546475Y-99164894D01*
X166545937Y-99166120D01*
X166484891Y-99407180D01*
X166464357Y-99655000D01*
X166484891Y-99902819D01*
X166512312Y-100011101D01*
X166545937Y-100143881D01*
X166645827Y-100371607D01*
X166781836Y-100579785D01*
X166950256Y-100762738D01*
X166950259Y-100762740D01*
X167058355Y-100846875D01*
X167092663Y-100897537D01*
X167090640Y-100958689D01*
X167058355Y-101003125D01*
X166950259Y-101087259D01*
X166950256Y-101087261D01*
X166950256Y-101087262D01*
X166888457Y-101154394D01*
X166781835Y-101270216D01*
X166727388Y-101353554D01*
X166645827Y-101478393D01*
X166599543Y-101583911D01*
X166545937Y-101706120D01*
X166484891Y-101947180D01*
X166464357Y-102195000D01*
X166484891Y-102442819D01*
X166484892Y-102442821D01*
X166545937Y-102683881D01*
X166645827Y-102911607D01*
X166781836Y-103119785D01*
X166950256Y-103302738D01*
X166972000Y-103319662D01*
X167058355Y-103386875D01*
X167092663Y-103437537D01*
X167090640Y-103498689D01*
X167058355Y-103543125D01*
X166950259Y-103627259D01*
X166950256Y-103627261D01*
X166950256Y-103627262D01*
X166910309Y-103670656D01*
X166781835Y-103810216D01*
X166719774Y-103905208D01*
X166645827Y-104018393D01*
X166571491Y-104187863D01*
X166545937Y-104246120D01*
X166484891Y-104487180D01*
X166464357Y-104735000D01*
X166484891Y-104982819D01*
X166484892Y-104982821D01*
X166545937Y-105223881D01*
X166645827Y-105451607D01*
X166781836Y-105659785D01*
X166950256Y-105842738D01*
X166950259Y-105842740D01*
X167058355Y-105926875D01*
X167092663Y-105977537D01*
X167090640Y-106038689D01*
X167058355Y-106083125D01*
X166950259Y-106167259D01*
X166950256Y-106167261D01*
X166950256Y-106167262D01*
X166835261Y-106292180D01*
X166781835Y-106350216D01*
X166728058Y-106432528D01*
X166645827Y-106558393D01*
X166575119Y-106719592D01*
X166545937Y-106786120D01*
X166484891Y-107027180D01*
X166464357Y-107275000D01*
X166484891Y-107522819D01*
X166484892Y-107522821D01*
X166545937Y-107763881D01*
X166645827Y-107991607D01*
X166781836Y-108199785D01*
X166950256Y-108382738D01*
X166950259Y-108382740D01*
X167058355Y-108466875D01*
X167092663Y-108517537D01*
X167090640Y-108578689D01*
X167058355Y-108623125D01*
X166950259Y-108707259D01*
X166950256Y-108707261D01*
X166950256Y-108707262D01*
X166906406Y-108754896D01*
X166781835Y-108890216D01*
X166772037Y-108905213D01*
X166645827Y-109098393D01*
X166550088Y-109316657D01*
X166545937Y-109326120D01*
X166484891Y-109567180D01*
X166464357Y-109815000D01*
X166484891Y-110062819D01*
X166509506Y-110160019D01*
X166545937Y-110303881D01*
X166645827Y-110531607D01*
X166781836Y-110739785D01*
X166950256Y-110922738D01*
X166972500Y-110940051D01*
X167058355Y-111006875D01*
X167092663Y-111057537D01*
X167090640Y-111118689D01*
X167058355Y-111163125D01*
X166950259Y-111247259D01*
X166950256Y-111247261D01*
X166950256Y-111247262D01*
X166855695Y-111349983D01*
X166781835Y-111430216D01*
X166709666Y-111540679D01*
X166645827Y-111638393D01*
X166589596Y-111766588D01*
X166545937Y-111866120D01*
X166484891Y-112107180D01*
X166464357Y-112355000D01*
X166484891Y-112602819D01*
X166496843Y-112650016D01*
X166545937Y-112843881D01*
X166645827Y-113071607D01*
X166781836Y-113279785D01*
X166950256Y-113462738D01*
X167146491Y-113615474D01*
X167365190Y-113733828D01*
X167600386Y-113814571D01*
X167845665Y-113855500D01*
X168094335Y-113855500D01*
X168339614Y-113814571D01*
X168574810Y-113733828D01*
X168793509Y-113615474D01*
X168989744Y-113462738D01*
X169158164Y-113279785D01*
X169294173Y-113071607D01*
X169394063Y-112843881D01*
X169455108Y-112602821D01*
X169475643Y-112355000D01*
X169455108Y-112107179D01*
X169394063Y-111866119D01*
X169294173Y-111638393D01*
X169158164Y-111430215D01*
X168989744Y-111247262D01*
X168881642Y-111163123D01*
X168847336Y-111112463D01*
X168849359Y-111051311D01*
X168881642Y-111006876D01*
X168989744Y-110922738D01*
X169158164Y-110739785D01*
X169294173Y-110531607D01*
X169394063Y-110303881D01*
X169455108Y-110062821D01*
X169475643Y-109815000D01*
X169455108Y-109567179D01*
X169394063Y-109326119D01*
X169294173Y-109098393D01*
X169158164Y-108890215D01*
X168989744Y-108707262D01*
X168881642Y-108623123D01*
X168847336Y-108572463D01*
X168849359Y-108511311D01*
X168881642Y-108466876D01*
X168989744Y-108382738D01*
X169158164Y-108199785D01*
X169294173Y-107991607D01*
X169394063Y-107763881D01*
X169455108Y-107522821D01*
X169475643Y-107275000D01*
X169455108Y-107027179D01*
X169394063Y-106786119D01*
X169294173Y-106558393D01*
X169158164Y-106350215D01*
X168989744Y-106167262D01*
X168881642Y-106083123D01*
X168847336Y-106032463D01*
X168849359Y-105971311D01*
X168881642Y-105926876D01*
X168989744Y-105842738D01*
X169158164Y-105659785D01*
X169294173Y-105451607D01*
X169394063Y-105223881D01*
X169455108Y-104982821D01*
X169475643Y-104735000D01*
X169455108Y-104487179D01*
X169394063Y-104246119D01*
X169294173Y-104018393D01*
X169158164Y-103810215D01*
X168989744Y-103627262D01*
X168881642Y-103543123D01*
X168847336Y-103492463D01*
X168849359Y-103431311D01*
X168881642Y-103386876D01*
X168989744Y-103302738D01*
X169158164Y-103119785D01*
X169294173Y-102911607D01*
X169394063Y-102683881D01*
X169455108Y-102442821D01*
X169475643Y-102195000D01*
X169455108Y-101947179D01*
X169394063Y-101706119D01*
X169294173Y-101478393D01*
X169158164Y-101270215D01*
X168989744Y-101087262D01*
X168881642Y-101003123D01*
X168847336Y-100952463D01*
X168849359Y-100891311D01*
X168881642Y-100846876D01*
X168989744Y-100762738D01*
X169158164Y-100579785D01*
X169294173Y-100371607D01*
X169394063Y-100143881D01*
X169455108Y-99902821D01*
X169475643Y-99655000D01*
X169455108Y-99407179D01*
X169394063Y-99166119D01*
X169294173Y-98938393D01*
X169158164Y-98730215D01*
X168989744Y-98547262D01*
X168881642Y-98463123D01*
X168847336Y-98412463D01*
X168849359Y-98351311D01*
X168881642Y-98306876D01*
X168989744Y-98222738D01*
X169158164Y-98039785D01*
X169177394Y-98010350D01*
X169225049Y-97971978D01*
X169260273Y-97965500D01*
X169806703Y-97965500D01*
X169864894Y-97984407D01*
X169876707Y-97994496D01*
X171620504Y-99738292D01*
X171648281Y-99792809D01*
X171649500Y-99808296D01*
X171649500Y-124185500D01*
X171630593Y-124243691D01*
X171581093Y-124279655D01*
X171550500Y-124284500D01*
X171252133Y-124284500D01*
X171252129Y-124284500D01*
X171252128Y-124284501D01*
X171244949Y-124285272D01*
X171192519Y-124290908D01*
X171192514Y-124290909D01*
X171057670Y-124341202D01*
X170942458Y-124427450D01*
X170942450Y-124427458D01*
X170856202Y-124542670D01*
X170805910Y-124677511D01*
X170805908Y-124677522D01*
X170799500Y-124737129D01*
X170799500Y-126832866D01*
X170799501Y-126832870D01*
X170805908Y-126892480D01*
X170805909Y-126892485D01*
X170856202Y-127027329D01*
X170905586Y-127093297D01*
X170942454Y-127142546D01*
X170942457Y-127142548D01*
X170942458Y-127142549D01*
X171057670Y-127228797D01*
X171192511Y-127279089D01*
X171192512Y-127279089D01*
X171192517Y-127279091D01*
X171252127Y-127285500D01*
X173347872Y-127285499D01*
X173407483Y-127279091D01*
X173474907Y-127253943D01*
X173542329Y-127228797D01*
X173542329Y-127228796D01*
X173542331Y-127228796D01*
X173657546Y-127142546D01*
X173743796Y-127027331D01*
X173794091Y-126892483D01*
X173800500Y-126832873D01*
X173800499Y-124737128D01*
X173794091Y-124677517D01*
X173785643Y-124654866D01*
X173743797Y-124542670D01*
X173657549Y-124427458D01*
X173657548Y-124427457D01*
X173657546Y-124427454D01*
X173605864Y-124388765D01*
X173542330Y-124341203D01*
X173414903Y-124293676D01*
X173366989Y-124255626D01*
X173350500Y-124200918D01*
X173350500Y-99331234D01*
X173350499Y-99331230D01*
X173332916Y-99242834D01*
X173317816Y-99166918D01*
X173291264Y-99102816D01*
X173288070Y-99095106D01*
X173253705Y-99012139D01*
X173160626Y-98872838D01*
X170742165Y-96454376D01*
X170742164Y-96454375D01*
X170742162Y-96454373D01*
X170686670Y-96417294D01*
X170602869Y-96361299D01*
X170602858Y-96361293D01*
X170493415Y-96315962D01*
X170448085Y-96297185D01*
X170448079Y-96297183D01*
X170283769Y-96264500D01*
X170283767Y-96264500D01*
X169260273Y-96264500D01*
X169202082Y-96245593D01*
X169177394Y-96219650D01*
X169158164Y-96190215D01*
X168989744Y-96007262D01*
X168881642Y-95923123D01*
X168847336Y-95872463D01*
X168849359Y-95811311D01*
X168881642Y-95766876D01*
X168989744Y-95682738D01*
X169158164Y-95499785D01*
X169294173Y-95291607D01*
X169394063Y-95063881D01*
X169455108Y-94822821D01*
X169475643Y-94575000D01*
X169455108Y-94327179D01*
X169394063Y-94086119D01*
X169294173Y-93858393D01*
X169158164Y-93650215D01*
X168989744Y-93467262D01*
X168881642Y-93383123D01*
X168847336Y-93332463D01*
X168849359Y-93271311D01*
X168881642Y-93226876D01*
X168989744Y-93142738D01*
X169158164Y-92959785D01*
X169177394Y-92930350D01*
X169225049Y-92891978D01*
X169260273Y-92885500D01*
X170546823Y-92885500D01*
X170605014Y-92904407D01*
X170613515Y-92911335D01*
X170773438Y-93057124D01*
X170962599Y-93174247D01*
X171170060Y-93254618D01*
X171388757Y-93295500D01*
X171611243Y-93295500D01*
X171829940Y-93254618D01*
X172037401Y-93174247D01*
X172226562Y-93057124D01*
X172320664Y-92971337D01*
X172376405Y-92946108D01*
X172387360Y-92945500D01*
X173273766Y-92945500D01*
X173273767Y-92945500D01*
X173438082Y-92912816D01*
X173504028Y-92885500D01*
X173592863Y-92848704D01*
X173732162Y-92755627D01*
X174610626Y-91877162D01*
X174703703Y-91737863D01*
X174703704Y-91737859D01*
X174703706Y-91737857D01*
X174718876Y-91701234D01*
X174718876Y-91701233D01*
X174728206Y-91678709D01*
X174767816Y-91583082D01*
X174800500Y-91418767D01*
X174800500Y-75151233D01*
X174767816Y-74986918D01*
X174736876Y-74912222D01*
X174703704Y-74832137D01*
X174703703Y-74832135D01*
X174703700Y-74832130D01*
X174640616Y-74737720D01*
X174610627Y-74692838D01*
X164331499Y-64413710D01*
X173899500Y-64413710D01*
X173899500Y-64656289D01*
X173931161Y-64896781D01*
X173931161Y-64896786D01*
X173993944Y-65131092D01*
X173993948Y-65131105D01*
X174086772Y-65355204D01*
X174086774Y-65355208D01*
X174086776Y-65355212D01*
X174208064Y-65565289D01*
X174208066Y-65565292D01*
X174355729Y-65757731D01*
X174355731Y-65757733D01*
X174355735Y-65757738D01*
X174527262Y-65929265D01*
X174527266Y-65929268D01*
X174527268Y-65929270D01*
X174665710Y-66035500D01*
X174719711Y-66076936D01*
X174929788Y-66198224D01*
X175153900Y-66291054D01*
X175388211Y-66353838D01*
X175628712Y-66385500D01*
X175628713Y-66385500D01*
X175871287Y-66385500D01*
X175871288Y-66385500D01*
X176111789Y-66353838D01*
X176346100Y-66291054D01*
X176570212Y-66198224D01*
X176780289Y-66076936D01*
X176972738Y-65929265D01*
X177144265Y-65757738D01*
X177291936Y-65565289D01*
X177413224Y-65355212D01*
X177506054Y-65131100D01*
X177568838Y-64896789D01*
X177600500Y-64656288D01*
X177600500Y-64413712D01*
X177568838Y-64173211D01*
X177506054Y-63938900D01*
X177413224Y-63714788D01*
X177291936Y-63504711D01*
X177291933Y-63504707D01*
X177144270Y-63312268D01*
X177144268Y-63312266D01*
X177144265Y-63312262D01*
X176972738Y-63140735D01*
X176972733Y-63140731D01*
X176972731Y-63140729D01*
X176780292Y-62993066D01*
X176780289Y-62993064D01*
X176570212Y-62871776D01*
X176570208Y-62871774D01*
X176570204Y-62871772D01*
X176346105Y-62778948D01*
X176346104Y-62778947D01*
X176346100Y-62778946D01*
X176111789Y-62716162D01*
X176111786Y-62716161D01*
X176111784Y-62716161D01*
X175871289Y-62684500D01*
X175871288Y-62684500D01*
X175628712Y-62684500D01*
X175628710Y-62684500D01*
X175388218Y-62716161D01*
X175388213Y-62716161D01*
X175153907Y-62778944D01*
X175153894Y-62778948D01*
X174929795Y-62871772D01*
X174719707Y-62993066D01*
X174527268Y-63140729D01*
X174355729Y-63312268D01*
X174208066Y-63504707D01*
X174086772Y-63714795D01*
X173993948Y-63938894D01*
X173993944Y-63938907D01*
X173931161Y-64173213D01*
X173931161Y-64173218D01*
X173899500Y-64413710D01*
X164331499Y-64413710D01*
X164042162Y-64124373D01*
X163986670Y-64087294D01*
X163902869Y-64031299D01*
X163902858Y-64031293D01*
X163793415Y-63985962D01*
X163748085Y-63967185D01*
X163748079Y-63967183D01*
X163583769Y-63934500D01*
X163583767Y-63934500D01*
X136189782Y-63934500D01*
X136131591Y-63915593D01*
X136099121Y-63875269D01*
X136074173Y-63818393D01*
X135938164Y-63610215D01*
X135769744Y-63427262D01*
X135573509Y-63274526D01*
X135354813Y-63156173D01*
X135119611Y-63075428D01*
X134874335Y-63034500D01*
X134625665Y-63034500D01*
X134380388Y-63075428D01*
X134145186Y-63156173D01*
X133926490Y-63274526D01*
X133926487Y-63274528D01*
X133730259Y-63427259D01*
X133730256Y-63427261D01*
X133730256Y-63427262D01*
X133561836Y-63610215D01*
X133425827Y-63818393D01*
X133332441Y-64031293D01*
X133325937Y-64046120D01*
X133264891Y-64287180D01*
X133244357Y-64535000D01*
X133264891Y-64782819D01*
X133264892Y-64782821D01*
X133325937Y-65023881D01*
X133425827Y-65251607D01*
X133561836Y-65459785D01*
X133730256Y-65642738D01*
X133926491Y-65795474D01*
X134145190Y-65913828D01*
X134380386Y-65994571D01*
X134625665Y-66035500D01*
X134874335Y-66035500D01*
X135119614Y-65994571D01*
X135354810Y-65913828D01*
X135573509Y-65795474D01*
X135752223Y-65656374D01*
X135809757Y-65635554D01*
X135813030Y-65635500D01*
X163106703Y-65635500D01*
X163164894Y-65654407D01*
X163176707Y-65664496D01*
X173070504Y-75558293D01*
X173098281Y-75612810D01*
X173099500Y-75628297D01*
X173099500Y-90941703D01*
X173080593Y-90999894D01*
X173070504Y-91011707D01*
X172866707Y-91215504D01*
X172812190Y-91243281D01*
X172796703Y-91244500D01*
X172387360Y-91244500D01*
X172329169Y-91225593D01*
X172320664Y-91218662D01*
X172283190Y-91184500D01*
X172226562Y-91132876D01*
X172037401Y-91015753D01*
X171829940Y-90935382D01*
X171829939Y-90935381D01*
X171829937Y-90935381D01*
X171611243Y-90894500D01*
X171388757Y-90894500D01*
X171170062Y-90935381D01*
X171093797Y-90964926D01*
X170962599Y-91015753D01*
X170773438Y-91132876D01*
X170773435Y-91132878D01*
X170745152Y-91158662D01*
X170689410Y-91183892D01*
X170678456Y-91184500D01*
X169260273Y-91184500D01*
X169202082Y-91165593D01*
X169177394Y-91139650D01*
X169158164Y-91110215D01*
X168989744Y-90927262D01*
X168881642Y-90843123D01*
X168847336Y-90792463D01*
X168849359Y-90731311D01*
X168881642Y-90686876D01*
X168989744Y-90602738D01*
X169158164Y-90419785D01*
X169294173Y-90211607D01*
X169394063Y-89983881D01*
X169455108Y-89742821D01*
X169475643Y-89495000D01*
X169455108Y-89247179D01*
X169394063Y-89006119D01*
X169294173Y-88778393D01*
X169158164Y-88570215D01*
X168989744Y-88387262D01*
X168881642Y-88303123D01*
X168847336Y-88252463D01*
X168849359Y-88191311D01*
X168881642Y-88146876D01*
X168989744Y-88062738D01*
X169158164Y-87879785D01*
X169294173Y-87671607D01*
X169394063Y-87443881D01*
X169455108Y-87202821D01*
X169475643Y-86955000D01*
X169455108Y-86707179D01*
X169394063Y-86466119D01*
X169294173Y-86238393D01*
X169158164Y-86030215D01*
X168989744Y-85847262D01*
X168881642Y-85763123D01*
X168847336Y-85712463D01*
X168849359Y-85651311D01*
X168881642Y-85606876D01*
X168989744Y-85522738D01*
X169158164Y-85339785D01*
X169159934Y-85337076D01*
X170991476Y-85337076D01*
X171115464Y-85403349D01*
X171303965Y-85460531D01*
X171303970Y-85460532D01*
X171499997Y-85479839D01*
X171500003Y-85479839D01*
X171696029Y-85460532D01*
X171696034Y-85460531D01*
X171884535Y-85403349D01*
X172008522Y-85337076D01*
X171499999Y-84828553D01*
X170991476Y-85337076D01*
X169159934Y-85337076D01*
X169294173Y-85131607D01*
X169394063Y-84903881D01*
X169455108Y-84662821D01*
X169470672Y-84474996D01*
X170495161Y-84474996D01*
X170495161Y-84475003D01*
X170514467Y-84671029D01*
X170514468Y-84671034D01*
X170571650Y-84859535D01*
X170571652Y-84859540D01*
X170637922Y-84983522D01*
X171146445Y-84474999D01*
X171100368Y-84428922D01*
X171150000Y-84428922D01*
X171150000Y-84521078D01*
X171173852Y-84610095D01*
X171219930Y-84689905D01*
X171285095Y-84755070D01*
X171364905Y-84801148D01*
X171453922Y-84825000D01*
X171546078Y-84825000D01*
X171635095Y-84801148D01*
X171714905Y-84755070D01*
X171780070Y-84689905D01*
X171826148Y-84610095D01*
X171850000Y-84521078D01*
X171850000Y-84474999D01*
X171853553Y-84474999D01*
X172362076Y-84983522D01*
X172428349Y-84859535D01*
X172485531Y-84671034D01*
X172485532Y-84671029D01*
X172504839Y-84475003D01*
X172504839Y-84474996D01*
X172485532Y-84278970D01*
X172485531Y-84278965D01*
X172428349Y-84090464D01*
X172362076Y-83966476D01*
X171853553Y-84474999D01*
X171850000Y-84474999D01*
X171850000Y-84428922D01*
X171826148Y-84339905D01*
X171780070Y-84260095D01*
X171714905Y-84194930D01*
X171635095Y-84148852D01*
X171546078Y-84125000D01*
X171453922Y-84125000D01*
X171364905Y-84148852D01*
X171285095Y-84194930D01*
X171219930Y-84260095D01*
X171173852Y-84339905D01*
X171150000Y-84428922D01*
X171100368Y-84428922D01*
X170637922Y-83966476D01*
X170571652Y-84090459D01*
X170571650Y-84090464D01*
X170514468Y-84278965D01*
X170514467Y-84278970D01*
X170495161Y-84474996D01*
X169470672Y-84474996D01*
X169475643Y-84415000D01*
X169455108Y-84167179D01*
X169394063Y-83926119D01*
X169294173Y-83698393D01*
X169238332Y-83612922D01*
X170991476Y-83612922D01*
X171499999Y-84121445D01*
X172008522Y-83612922D01*
X171884540Y-83546652D01*
X171884535Y-83546650D01*
X171696034Y-83489468D01*
X171696029Y-83489467D01*
X171500003Y-83470161D01*
X171499997Y-83470161D01*
X171303970Y-83489467D01*
X171303965Y-83489468D01*
X171115464Y-83546650D01*
X171115459Y-83546652D01*
X170991476Y-83612922D01*
X169238332Y-83612922D01*
X169158164Y-83490215D01*
X168989744Y-83307262D01*
X168881642Y-83223123D01*
X168847336Y-83172463D01*
X168849359Y-83111311D01*
X168881642Y-83066876D01*
X168989744Y-82982738D01*
X169158164Y-82799785D01*
X169294173Y-82591607D01*
X169394063Y-82363881D01*
X169455108Y-82122821D01*
X169475643Y-81875000D01*
X169455108Y-81627179D01*
X169394063Y-81386119D01*
X169294173Y-81158393D01*
X169158164Y-80950215D01*
X168989744Y-80767262D01*
X168793509Y-80614526D01*
X168717611Y-80573452D01*
X168675434Y-80529129D01*
X168667364Y-80468478D01*
X168695209Y-80417023D01*
X168695471Y-80414025D01*
X168107574Y-79826128D01*
X168166853Y-79810245D01*
X168283147Y-79743102D01*
X168378102Y-79648147D01*
X168445245Y-79531853D01*
X168461128Y-79472574D01*
X169049025Y-80060471D01*
X169100132Y-79987486D01*
X169100133Y-79987483D01*
X169196266Y-79781323D01*
X169255142Y-79561597D01*
X169274966Y-79335003D01*
X169274966Y-79334996D01*
X169255142Y-79108402D01*
X169196266Y-78888676D01*
X169100134Y-78682518D01*
X169049024Y-78609526D01*
X168461127Y-79197423D01*
X168445245Y-79138147D01*
X168378102Y-79021853D01*
X168283147Y-78926898D01*
X168166853Y-78859755D01*
X168107572Y-78843871D01*
X168695472Y-78255972D01*
X168694698Y-78247127D01*
X168671126Y-78215846D01*
X168670058Y-78154670D01*
X168705152Y-78104549D01*
X168717610Y-78096548D01*
X168793509Y-78055474D01*
X168989744Y-77902738D01*
X169158164Y-77719785D01*
X169294173Y-77511607D01*
X169394063Y-77283881D01*
X169455108Y-77042821D01*
X169475643Y-76795000D01*
X169455108Y-76547179D01*
X169394063Y-76306119D01*
X169294173Y-76078393D01*
X169158164Y-75870215D01*
X168989744Y-75687262D01*
X168818794Y-75554206D01*
X168793512Y-75534528D01*
X168793509Y-75534526D01*
X168574813Y-75416173D01*
X168339611Y-75335428D01*
X168094335Y-75294500D01*
X167845665Y-75294500D01*
X167600388Y-75335428D01*
X167365186Y-75416173D01*
X167146490Y-75534526D01*
X167146487Y-75534528D01*
X166950259Y-75687259D01*
X166950256Y-75687261D01*
X166950256Y-75687262D01*
X166895145Y-75747129D01*
X166781835Y-75870216D01*
X166645826Y-76078395D01*
X166545937Y-76306120D01*
X166484891Y-76547180D01*
X166464357Y-76795000D01*
X166484891Y-77042819D01*
X166504943Y-77122000D01*
X166545937Y-77283881D01*
X166645827Y-77511607D01*
X166781836Y-77719785D01*
X166950256Y-77902738D01*
X167146491Y-78055474D01*
X167201050Y-78085000D01*
X167222384Y-78096545D01*
X167264563Y-78140869D01*
X167272633Y-78201520D01*
X167244789Y-78252970D01*
X167244526Y-78255972D01*
X167832425Y-78843871D01*
X167773147Y-78859755D01*
X167656853Y-78926898D01*
X167561898Y-79021853D01*
X167494755Y-79138147D01*
X167478871Y-79197425D01*
X166890973Y-78609527D01*
X166839865Y-78682518D01*
X166743733Y-78888676D01*
X166684857Y-79108402D01*
X166665034Y-79334996D01*
X166665034Y-79335003D01*
X166684857Y-79561597D01*
X166743733Y-79781323D01*
X166839866Y-79987483D01*
X166839866Y-79987484D01*
X166890973Y-80060471D01*
X167478871Y-79472572D01*
X167494755Y-79531853D01*
X167561898Y-79648147D01*
X167656853Y-79743102D01*
X167773147Y-79810245D01*
X167832423Y-79826127D01*
X167244526Y-80414024D01*
X167245300Y-80422871D01*
X167268873Y-80454153D01*
X167269941Y-80515329D01*
X167234847Y-80565450D01*
X167222387Y-80573452D01*
X167146495Y-80614523D01*
X167146487Y-80614528D01*
X166950259Y-80767259D01*
X166950253Y-80767264D01*
X166825714Y-80902551D01*
X166772392Y-80932558D01*
X166752877Y-80934500D01*
X165416230Y-80934500D01*
X165251920Y-80967183D01*
X165251914Y-80967185D01*
X165222168Y-80979507D01*
X165097138Y-81031295D01*
X164957841Y-81124370D01*
X159639376Y-86442834D01*
X159639373Y-86442838D01*
X159546296Y-86582136D01*
X159537733Y-86602812D01*
X159537731Y-86602815D01*
X159482184Y-86736916D01*
X159482184Y-86736918D01*
X159449500Y-86901230D01*
X159449500Y-100406703D01*
X159430593Y-100464894D01*
X159420504Y-100476707D01*
X153619504Y-106277707D01*
X153564987Y-106305484D01*
X153504555Y-106295913D01*
X153461290Y-106252648D01*
X153450500Y-106207703D01*
X153450500Y-103078296D01*
X153469407Y-103020105D01*
X153479496Y-103008292D01*
X155066163Y-101421625D01*
X156660626Y-99827162D01*
X156753704Y-99687863D01*
X156814267Y-99541650D01*
X156817816Y-99533082D01*
X156850500Y-99368767D01*
X156850500Y-85572864D01*
X156869407Y-85514673D01*
X156888693Y-85494739D01*
X157019744Y-85392738D01*
X157188164Y-85209785D01*
X157324173Y-85001607D01*
X157424063Y-84773881D01*
X157485108Y-84532821D01*
X157505643Y-84285000D01*
X157485108Y-84037179D01*
X157424063Y-83796119D01*
X157324173Y-83568393D01*
X157188164Y-83360215D01*
X157019744Y-83177262D01*
X156823509Y-83024526D01*
X156764955Y-82992838D01*
X156604813Y-82906173D01*
X156369611Y-82825428D01*
X156124335Y-82784500D01*
X155875665Y-82784500D01*
X155630388Y-82825428D01*
X155395186Y-82906173D01*
X155176490Y-83024526D01*
X155176487Y-83024528D01*
X154980259Y-83177259D01*
X154980256Y-83177261D01*
X154980256Y-83177262D01*
X154938036Y-83223125D01*
X154811835Y-83360216D01*
X154768431Y-83426651D01*
X154678371Y-83564500D01*
X154675826Y-83568395D01*
X154575937Y-83796120D01*
X154514891Y-84037180D01*
X154494357Y-84285000D01*
X154514891Y-84532819D01*
X154545018Y-84651789D01*
X154575937Y-84773881D01*
X154675827Y-85001607D01*
X154811836Y-85209785D01*
X154980256Y-85392738D01*
X155111307Y-85494739D01*
X155145615Y-85545401D01*
X155149500Y-85572864D01*
X155149500Y-98891703D01*
X155130593Y-98949894D01*
X155120504Y-98961707D01*
X152219504Y-101862707D01*
X152164987Y-101890484D01*
X152104555Y-101880913D01*
X152061290Y-101837648D01*
X152050500Y-101792703D01*
X152050500Y-101193297D01*
X152069407Y-101135106D01*
X152079496Y-101123293D01*
X152611958Y-100590831D01*
X153160627Y-100042162D01*
X153253704Y-99902863D01*
X153285060Y-99827162D01*
X153302294Y-99785556D01*
X153302294Y-99785555D01*
X153317816Y-99748082D01*
X153350500Y-99583767D01*
X153350500Y-82072864D01*
X153369407Y-82014673D01*
X153388693Y-81994739D01*
X153400563Y-81985500D01*
X153519744Y-81892738D01*
X153688164Y-81709785D01*
X153824173Y-81501607D01*
X153924063Y-81273881D01*
X153985108Y-81032821D01*
X154005643Y-80785000D01*
X153985108Y-80537179D01*
X153924063Y-80296119D01*
X153824173Y-80068393D01*
X153688164Y-79860215D01*
X153519744Y-79677262D01*
X153388836Y-79575372D01*
X153323512Y-79524528D01*
X153323509Y-79524526D01*
X153104813Y-79406173D01*
X152869611Y-79325428D01*
X152624335Y-79284500D01*
X152375665Y-79284500D01*
X152130388Y-79325428D01*
X151895186Y-79406173D01*
X151676490Y-79524526D01*
X151676487Y-79524528D01*
X151480259Y-79677259D01*
X151480256Y-79677261D01*
X151480256Y-79677262D01*
X151311836Y-79860215D01*
X151195223Y-80038706D01*
X151175826Y-80068395D01*
X151160728Y-80102816D01*
X151087871Y-80268914D01*
X151075937Y-80296120D01*
X151014891Y-80537180D01*
X150994357Y-80785000D01*
X151014891Y-81032819D01*
X151014892Y-81032821D01*
X151075937Y-81273881D01*
X151175827Y-81501607D01*
X151311836Y-81709785D01*
X151480256Y-81892738D01*
X151599435Y-81985499D01*
X151611307Y-81994739D01*
X151645615Y-82045401D01*
X151649500Y-82072864D01*
X151649500Y-99106703D01*
X151630593Y-99164894D01*
X151620504Y-99176707D01*
X150539376Y-100257834D01*
X150539373Y-100257838D01*
X150446299Y-100397130D01*
X150446293Y-100397141D01*
X150414949Y-100472815D01*
X150382184Y-100551916D01*
X150382184Y-100551918D01*
X150349500Y-100716230D01*
X150349500Y-121406703D01*
X150330593Y-121464894D01*
X150320504Y-121476707D01*
X145339376Y-126457834D01*
X145339373Y-126457838D01*
X145246299Y-126597130D01*
X145246293Y-126597141D01*
X145200962Y-126706583D01*
X145182184Y-126751916D01*
X145182184Y-126751918D01*
X145149500Y-126916230D01*
X145149500Y-127559597D01*
X145130593Y-127617788D01*
X145120504Y-127629601D01*
X145120211Y-127629893D01*
X145120208Y-127629896D01*
X145032317Y-127717787D01*
X144969891Y-127780213D01*
X144844950Y-127952180D01*
X144844948Y-127952184D01*
X144838210Y-127965410D01*
X144794945Y-128008675D01*
X144734513Y-128018246D01*
X144679996Y-127990469D01*
X144661790Y-127965410D01*
X144655051Y-127952184D01*
X144655049Y-127952180D01*
X144530107Y-127780212D01*
X144530102Y-127780206D01*
X144479496Y-127729599D01*
X144451719Y-127675082D01*
X144450500Y-127659596D01*
X144450500Y-126191385D01*
X144450499Y-126191381D01*
X144449249Y-126185099D01*
X144413973Y-126007749D01*
X144342322Y-125834769D01*
X144342320Y-125834767D01*
X144342318Y-125834761D01*
X144282649Y-125745463D01*
X144238302Y-125679092D01*
X144105908Y-125546698D01*
X142605908Y-124046698D01*
X142450230Y-123942677D01*
X142450231Y-123942677D01*
X142450229Y-123942676D01*
X142348901Y-123900705D01*
X142348901Y-123900704D01*
X142277251Y-123871027D01*
X142152919Y-123846296D01*
X142093619Y-123834500D01*
X142093617Y-123834500D01*
X142093616Y-123834500D01*
X131219718Y-123834500D01*
X131161527Y-123815593D01*
X131149714Y-123805504D01*
X126065911Y-118721701D01*
X126065908Y-118721698D01*
X125928598Y-118629950D01*
X125910229Y-118617676D01*
X125808901Y-118575705D01*
X125808901Y-118575704D01*
X125737251Y-118546027D01*
X125645433Y-118527763D01*
X125553619Y-118509500D01*
X125553617Y-118509500D01*
X125553616Y-118509500D01*
X123179693Y-118509500D01*
X123121502Y-118490593D01*
X123109695Y-118480509D01*
X123089139Y-118459953D01*
X123089135Y-118459950D01*
X123089132Y-118459947D01*
X123089130Y-118459946D01*
X122902737Y-118329434D01*
X122902736Y-118329433D01*
X122902734Y-118329432D01*
X122902731Y-118329430D01*
X122902723Y-118329426D01*
X122696499Y-118233262D01*
X122696500Y-118233262D01*
X122623228Y-118213629D01*
X122476692Y-118174365D01*
X122476691Y-118174364D01*
X122476684Y-118174363D01*
X122250003Y-118154532D01*
X122249997Y-118154532D01*
X122023315Y-118174363D01*
X121803499Y-118233262D01*
X121597276Y-118329426D01*
X121597262Y-118329434D01*
X121410869Y-118459946D01*
X121410867Y-118459947D01*
X121410861Y-118459952D01*
X121410861Y-118459953D01*
X121390308Y-118480505D01*
X121335794Y-118508281D01*
X121320307Y-118509500D01*
X120024500Y-118509500D01*
X119966309Y-118490593D01*
X119930345Y-118441093D01*
X119925500Y-118410500D01*
X119925500Y-113387395D01*
X119944407Y-113329204D01*
X119993359Y-113293420D01*
X120019334Y-113284814D01*
X120168656Y-113192712D01*
X120292712Y-113068656D01*
X120384814Y-112919334D01*
X120439999Y-112752797D01*
X120450500Y-112650009D01*
X120450499Y-111349992D01*
X120450499Y-111349991D01*
X120450499Y-111349983D01*
X120440000Y-111247211D01*
X120439999Y-111247209D01*
X120439999Y-111247203D01*
X120384814Y-111080666D01*
X120302239Y-110946790D01*
X120292714Y-110931347D01*
X120292713Y-110931346D01*
X120292712Y-110931344D01*
X120168656Y-110807288D01*
X120168653Y-110807286D01*
X120168652Y-110807285D01*
X120019336Y-110715187D01*
X120019335Y-110715186D01*
X120019334Y-110715186D01*
X119852797Y-110660001D01*
X119852794Y-110660000D01*
X119852795Y-110660000D01*
X119766016Y-110651134D01*
X119710049Y-110626410D01*
X119679302Y-110573511D01*
X119685522Y-110512642D01*
X119717889Y-110472554D01*
X119849169Y-110377175D01*
X119977175Y-110249169D01*
X120083566Y-110102734D01*
X120083568Y-110102730D01*
X120165749Y-109941440D01*
X120221682Y-109769292D01*
X120224739Y-109750000D01*
X119379146Y-109750000D01*
X119417630Y-109683343D01*
X119450000Y-109562535D01*
X119450000Y-109437465D01*
X119417630Y-109316657D01*
X119379146Y-109250000D01*
X120224739Y-109250000D01*
X120224738Y-109249999D01*
X120221682Y-109230707D01*
X120165749Y-109058559D01*
X120083568Y-108897269D01*
X120083566Y-108897265D01*
X119977175Y-108750830D01*
X119849169Y-108622824D01*
X119702734Y-108516433D01*
X119702730Y-108516431D01*
X119565429Y-108446473D01*
X119522164Y-108403208D01*
X119512593Y-108342776D01*
X119540370Y-108288259D01*
X119579781Y-108264108D01*
X119618412Y-108251557D01*
X119807816Y-108155051D01*
X119808703Y-108154407D01*
X119979786Y-108030108D01*
X119979792Y-108030104D01*
X120130104Y-107879792D01*
X120255051Y-107707816D01*
X120351557Y-107518412D01*
X120417246Y-107316243D01*
X120417247Y-107316238D01*
X120450500Y-107106290D01*
X120450500Y-106893709D01*
X120417247Y-106683761D01*
X120417246Y-106683757D01*
X120351557Y-106481588D01*
X120255051Y-106292184D01*
X120255049Y-106292180D01*
X120130108Y-106120213D01*
X120130106Y-106120211D01*
X120130104Y-106120208D01*
X119979792Y-105969896D01*
X119866309Y-105887446D01*
X119830345Y-105837946D01*
X119825500Y-105807353D01*
X119825500Y-99153297D01*
X119844407Y-99095106D01*
X119854496Y-99083293D01*
X121106185Y-97831604D01*
X122410627Y-96527162D01*
X122503704Y-96387863D01*
X122567816Y-96233081D01*
X122600500Y-96068766D01*
X122600500Y-95901233D01*
X122600500Y-88928296D01*
X122619407Y-88870105D01*
X122629496Y-88858292D01*
X131323292Y-80164496D01*
X131377809Y-80136719D01*
X131393296Y-80135500D01*
X133833766Y-80135500D01*
X133833767Y-80135500D01*
X133998082Y-80102816D01*
X134043411Y-80084038D01*
X134043414Y-80084038D01*
X134103276Y-80059242D01*
X134152863Y-80038704D01*
X134292162Y-79945627D01*
X141323292Y-72914495D01*
X141377809Y-72886719D01*
X141393296Y-72885500D01*
X145606703Y-72885500D01*
X145664894Y-72904407D01*
X145676707Y-72914496D01*
X148620504Y-75858292D01*
X148648281Y-75912809D01*
X148649500Y-75928296D01*
X148649500Y-85391703D01*
X148630593Y-85449894D01*
X148620504Y-85461707D01*
X148006707Y-86075504D01*
X147952190Y-86103281D01*
X147936703Y-86104500D01*
X143860273Y-86104500D01*
X143802082Y-86085593D01*
X143777394Y-86059650D01*
X143758164Y-86030215D01*
X143589744Y-85847262D01*
X143481642Y-85763123D01*
X143447336Y-85712463D01*
X143449359Y-85651311D01*
X143481642Y-85606876D01*
X143589744Y-85522738D01*
X143758164Y-85339785D01*
X143777394Y-85310350D01*
X143825049Y-85271978D01*
X143860273Y-85265500D01*
X144819699Y-85265500D01*
X144877890Y-85284407D01*
X144892535Y-85297449D01*
X144979303Y-85391703D01*
X144980256Y-85392738D01*
X145176491Y-85545474D01*
X145262996Y-85592288D01*
X145372060Y-85651311D01*
X145395190Y-85663828D01*
X145630386Y-85744571D01*
X145875665Y-85785500D01*
X146124335Y-85785500D01*
X146369614Y-85744571D01*
X146604810Y-85663828D01*
X146823509Y-85545474D01*
X147019744Y-85392738D01*
X147188164Y-85209785D01*
X147324173Y-85001607D01*
X147424063Y-84773881D01*
X147485108Y-84532821D01*
X147505643Y-84285000D01*
X147485108Y-84037179D01*
X147424063Y-83796119D01*
X147324173Y-83568393D01*
X147188164Y-83360215D01*
X147019744Y-83177262D01*
X146823509Y-83024526D01*
X146764955Y-82992838D01*
X146604813Y-82906173D01*
X146369611Y-82825428D01*
X146124335Y-82784500D01*
X145906057Y-82784500D01*
X145847866Y-82765593D01*
X145811902Y-82716093D01*
X145811902Y-82654907D01*
X145847866Y-82605407D01*
X145851055Y-82603185D01*
X145872984Y-82588532D01*
X145952162Y-82535627D01*
X146191049Y-82296738D01*
X146245563Y-82268962D01*
X146277342Y-82269092D01*
X146375665Y-82285500D01*
X146624335Y-82285500D01*
X146869614Y-82244571D01*
X147104810Y-82163828D01*
X147323509Y-82045474D01*
X147519744Y-81892738D01*
X147688164Y-81709785D01*
X147824173Y-81501607D01*
X147924063Y-81273881D01*
X147985108Y-81032821D01*
X148005643Y-80785000D01*
X147985108Y-80537179D01*
X147924063Y-80296119D01*
X147824173Y-80068393D01*
X147688164Y-79860215D01*
X147519744Y-79677262D01*
X147388836Y-79575372D01*
X147323512Y-79524528D01*
X147323509Y-79524526D01*
X147104813Y-79406173D01*
X146869611Y-79325428D01*
X146624335Y-79284500D01*
X146375665Y-79284500D01*
X146130388Y-79325428D01*
X145895186Y-79406173D01*
X145676490Y-79524526D01*
X145676487Y-79524528D01*
X145480259Y-79677259D01*
X145480256Y-79677261D01*
X145480256Y-79677262D01*
X145311836Y-79860215D01*
X145195223Y-80038706D01*
X145175826Y-80068395D01*
X145160728Y-80102816D01*
X145087871Y-80268914D01*
X145075937Y-80296120D01*
X145014891Y-80537180D01*
X144994357Y-80784999D01*
X145005322Y-80917325D01*
X144991285Y-80976878D01*
X144944924Y-81016807D01*
X144906660Y-81024500D01*
X143860273Y-81024500D01*
X143802082Y-81005593D01*
X143777394Y-80979650D01*
X143758164Y-80950215D01*
X143589744Y-80767262D01*
X143393509Y-80614526D01*
X143317611Y-80573452D01*
X143275434Y-80529129D01*
X143267364Y-80468478D01*
X143295209Y-80417023D01*
X143295471Y-80414025D01*
X142707574Y-79826128D01*
X142766853Y-79810245D01*
X142883147Y-79743102D01*
X142978102Y-79648147D01*
X143045245Y-79531853D01*
X143061128Y-79472574D01*
X143649025Y-80060471D01*
X143700132Y-79987486D01*
X143700133Y-79987483D01*
X143796266Y-79781323D01*
X143855142Y-79561597D01*
X143874966Y-79335003D01*
X143874966Y-79334996D01*
X143855142Y-79108402D01*
X143796266Y-78888676D01*
X143700134Y-78682518D01*
X143649024Y-78609526D01*
X143061127Y-79197423D01*
X143045245Y-79138147D01*
X142978102Y-79021853D01*
X142883147Y-78926898D01*
X142766853Y-78859755D01*
X142707573Y-78843871D01*
X143226951Y-78324495D01*
X143281468Y-78296718D01*
X143296953Y-78295499D01*
X143617872Y-78295499D01*
X143677483Y-78289091D01*
X143763811Y-78256891D01*
X143824936Y-78254271D01*
X143832973Y-78256882D01*
X143892517Y-78279091D01*
X143952127Y-78285500D01*
X146047872Y-78285499D01*
X146107483Y-78279091D01*
X146193183Y-78247127D01*
X146242329Y-78228797D01*
X146242329Y-78228796D01*
X146242331Y-78228796D01*
X146357546Y-78142546D01*
X146443796Y-78027331D01*
X146494091Y-77892483D01*
X146500500Y-77832873D01*
X146500499Y-75737128D01*
X146494091Y-75677517D01*
X146469957Y-75612810D01*
X146443797Y-75542670D01*
X146357549Y-75427458D01*
X146357548Y-75427457D01*
X146357546Y-75427454D01*
X146342477Y-75416173D01*
X146242329Y-75341202D01*
X146107488Y-75290910D01*
X146107483Y-75290909D01*
X146107481Y-75290908D01*
X146107477Y-75290908D01*
X146070381Y-75286920D01*
X146047873Y-75284500D01*
X146047870Y-75284500D01*
X143952133Y-75284500D01*
X143952129Y-75284500D01*
X143952128Y-75284501D01*
X143929681Y-75286914D01*
X143892516Y-75290909D01*
X143892510Y-75290910D01*
X143806189Y-75323106D01*
X143745060Y-75325726D01*
X143736997Y-75323106D01*
X143677488Y-75300910D01*
X143677483Y-75300909D01*
X143677481Y-75300908D01*
X143677477Y-75300908D01*
X143646249Y-75297550D01*
X143617873Y-75294500D01*
X143617870Y-75294500D01*
X141522133Y-75294500D01*
X141522129Y-75294500D01*
X141522128Y-75294501D01*
X141514949Y-75295272D01*
X141462519Y-75300908D01*
X141462514Y-75300909D01*
X141327670Y-75351202D01*
X141212458Y-75437450D01*
X141212450Y-75437458D01*
X141126202Y-75552670D01*
X141075910Y-75687511D01*
X141075908Y-75687522D01*
X141071533Y-75728209D01*
X141070083Y-75741710D01*
X141069500Y-75747129D01*
X141069500Y-75845500D01*
X141050593Y-75903691D01*
X141001093Y-75939655D01*
X140970500Y-75944500D01*
X140656230Y-75944500D01*
X140491920Y-75977183D01*
X140491914Y-75977185D01*
X140337137Y-76041296D01*
X140197838Y-76134374D01*
X140197834Y-76134377D01*
X133339376Y-82992834D01*
X133339373Y-82992838D01*
X133246299Y-83132130D01*
X133246293Y-83132141D01*
X133227605Y-83177261D01*
X133182184Y-83286916D01*
X133182184Y-83286918D01*
X133149500Y-83451230D01*
X133149500Y-85364467D01*
X133130593Y-85422658D01*
X133081641Y-85458442D01*
X132955662Y-85500187D01*
X132806347Y-85592285D01*
X132682285Y-85716347D01*
X132590187Y-85865663D01*
X132589865Y-85866636D01*
X132589505Y-85867124D01*
X132587752Y-85870886D01*
X132586998Y-85870534D01*
X132553616Y-85915927D01*
X132495889Y-85934500D01*
X127416230Y-85934500D01*
X127251918Y-85967184D01*
X127251916Y-85967184D01*
X127212930Y-85983333D01*
X127097139Y-86031294D01*
X126957838Y-86124373D01*
X124839376Y-88242834D01*
X124839373Y-88242838D01*
X124746299Y-88382130D01*
X124746293Y-88382141D01*
X124711069Y-88467183D01*
X124682184Y-88536916D01*
X124682184Y-88536918D01*
X124649500Y-88701230D01*
X124649500Y-113868769D01*
X124682184Y-114033080D01*
X124682184Y-114033082D01*
X124746293Y-114187858D01*
X124746299Y-114187869D01*
X124802294Y-114271670D01*
X124839373Y-114327162D01*
X130839374Y-120327162D01*
X130957838Y-120445626D01*
X131097137Y-120538703D01*
X131251918Y-120602816D01*
X131416233Y-120635500D01*
X132274597Y-120635500D01*
X132332788Y-120654407D01*
X132344601Y-120664496D01*
X132344893Y-120664788D01*
X132344896Y-120664792D01*
X132495208Y-120815104D01*
X132495211Y-120815106D01*
X132495213Y-120815108D01*
X132667180Y-120940049D01*
X132667184Y-120940051D01*
X132856588Y-121036557D01*
X133058757Y-121102246D01*
X133058758Y-121102246D01*
X133058761Y-121102247D01*
X133268710Y-121135500D01*
X133268713Y-121135500D01*
X133731290Y-121135500D01*
X133941238Y-121102247D01*
X133941239Y-121102246D01*
X133941243Y-121102246D01*
X134143412Y-121036557D01*
X134332816Y-120940051D01*
X134504792Y-120815104D01*
X134655104Y-120664792D01*
X134780051Y-120492816D01*
X134876557Y-120303412D01*
X134942246Y-120101243D01*
X134975500Y-119891287D01*
X134975500Y-119678713D01*
X134975500Y-119678709D01*
X134942247Y-119468761D01*
X134942246Y-119468757D01*
X134876557Y-119266588D01*
X134780051Y-119077184D01*
X134780049Y-119077180D01*
X134655108Y-118905213D01*
X134655106Y-118905211D01*
X134655104Y-118905208D01*
X134504792Y-118754896D01*
X134504788Y-118754893D01*
X134504786Y-118754891D01*
X134332819Y-118629950D01*
X134332816Y-118629949D01*
X134332814Y-118629948D01*
X134319590Y-118623210D01*
X134276325Y-118579947D01*
X134266752Y-118519515D01*
X134294529Y-118464998D01*
X134319588Y-118446790D01*
X134332816Y-118440051D01*
X134504792Y-118315104D01*
X134655104Y-118164792D01*
X134780051Y-117992816D01*
X134876557Y-117803412D01*
X134942246Y-117601243D01*
X134975500Y-117391287D01*
X134975500Y-117178713D01*
X134975500Y-117178709D01*
X134942247Y-116968761D01*
X134942246Y-116968757D01*
X134876557Y-116766588D01*
X134780051Y-116577184D01*
X134780049Y-116577180D01*
X134655108Y-116405213D01*
X134655106Y-116405211D01*
X134655104Y-116405208D01*
X134504792Y-116254896D01*
X134504788Y-116254893D01*
X134504786Y-116254891D01*
X134332819Y-116129950D01*
X134332815Y-116129948D01*
X134143408Y-116033441D01*
X134143405Y-116033439D01*
X134104781Y-116020890D01*
X134055281Y-115984926D01*
X134036374Y-115926736D01*
X134055282Y-115868545D01*
X134090429Y-115838526D01*
X134227730Y-115768568D01*
X134227734Y-115768566D01*
X134374169Y-115662175D01*
X134502175Y-115534169D01*
X134608566Y-115387734D01*
X134608568Y-115387730D01*
X134690749Y-115226440D01*
X134746682Y-115054292D01*
X134749739Y-115035000D01*
X133904146Y-115035000D01*
X133942630Y-114968343D01*
X133975000Y-114847535D01*
X133975000Y-114722465D01*
X133942630Y-114601657D01*
X133904146Y-114535000D01*
X134749739Y-114535000D01*
X134749738Y-114534999D01*
X134746682Y-114515707D01*
X134690749Y-114343559D01*
X134608568Y-114182269D01*
X134608566Y-114182265D01*
X134502175Y-114035830D01*
X134374169Y-113907824D01*
X134227734Y-113801433D01*
X134227730Y-113801431D01*
X134090429Y-113731473D01*
X134047164Y-113688208D01*
X134037593Y-113627776D01*
X134065370Y-113573259D01*
X134104781Y-113549108D01*
X134143412Y-113536557D01*
X134332816Y-113440051D01*
X134504792Y-113315104D01*
X134655104Y-113164792D01*
X134780051Y-112992816D01*
X134876557Y-112803412D01*
X134942246Y-112601243D01*
X134942247Y-112601238D01*
X134975500Y-112391290D01*
X134975500Y-112178709D01*
X134942247Y-111968761D01*
X134908897Y-111866120D01*
X134876557Y-111766588D01*
X134780051Y-111577184D01*
X134780049Y-111577180D01*
X134655108Y-111405213D01*
X134655106Y-111405211D01*
X134655104Y-111405208D01*
X134504792Y-111254896D01*
X134504788Y-111254893D01*
X134504786Y-111254891D01*
X134332819Y-111129950D01*
X134332816Y-111129949D01*
X134332814Y-111129948D01*
X134319590Y-111123210D01*
X134276325Y-111079947D01*
X134266752Y-111019515D01*
X134294529Y-110964998D01*
X134319588Y-110946790D01*
X134332816Y-110940051D01*
X134356646Y-110922738D01*
X134504786Y-110815108D01*
X134504792Y-110815104D01*
X134655104Y-110664792D01*
X134655106Y-110664788D01*
X134655399Y-110664496D01*
X134709916Y-110636719D01*
X134725403Y-110635500D01*
X135106703Y-110635500D01*
X135164894Y-110654407D01*
X135176707Y-110664496D01*
X139957838Y-115445627D01*
X140040884Y-115501117D01*
X140097130Y-115538700D01*
X140097134Y-115538702D01*
X140097137Y-115538704D01*
X140206584Y-115584037D01*
X140251918Y-115602816D01*
X140416233Y-115635500D01*
X140416234Y-115635500D01*
X143583766Y-115635500D01*
X143583767Y-115635500D01*
X143748082Y-115602816D01*
X143793411Y-115584038D01*
X143793414Y-115584038D01*
X143853276Y-115559242D01*
X143902863Y-115538704D01*
X144042162Y-115445627D01*
X146160626Y-113327162D01*
X146253704Y-113187863D01*
X146303081Y-113068656D01*
X146317816Y-113033082D01*
X146350500Y-112868767D01*
X146350500Y-100701233D01*
X146317816Y-100536918D01*
X146253703Y-100382137D01*
X146160626Y-100242838D01*
X146042162Y-100124374D01*
X144912162Y-98994373D01*
X144845595Y-98949894D01*
X144772869Y-98901299D01*
X144772858Y-98901293D01*
X144663415Y-98855962D01*
X144618085Y-98837185D01*
X144618079Y-98837183D01*
X144453769Y-98804500D01*
X144453767Y-98804500D01*
X143860273Y-98804500D01*
X143802082Y-98785593D01*
X143777394Y-98759650D01*
X143758164Y-98730215D01*
X143589744Y-98547262D01*
X143481642Y-98463123D01*
X143447336Y-98412463D01*
X143449359Y-98351311D01*
X143481642Y-98306876D01*
X143589744Y-98222738D01*
X143758164Y-98039785D01*
X143894173Y-97831607D01*
X143994063Y-97603881D01*
X144055108Y-97362821D01*
X144075643Y-97115000D01*
X144055108Y-96867179D01*
X143994063Y-96626119D01*
X143894173Y-96398393D01*
X143758164Y-96190215D01*
X143589744Y-96007262D01*
X143481642Y-95923123D01*
X143447336Y-95872463D01*
X143449359Y-95811311D01*
X143481642Y-95766876D01*
X143589744Y-95682738D01*
X143758164Y-95499785D01*
X143894173Y-95291607D01*
X143994063Y-95063881D01*
X144055108Y-94822821D01*
X144075643Y-94575000D01*
X144055108Y-94327179D01*
X143994063Y-94086119D01*
X143894173Y-93858393D01*
X143758164Y-93650215D01*
X143589744Y-93467262D01*
X143481642Y-93383123D01*
X143447336Y-93332463D01*
X143449359Y-93271311D01*
X143481642Y-93226876D01*
X143589744Y-93142738D01*
X143758164Y-92959785D01*
X143894173Y-92751607D01*
X143994063Y-92523881D01*
X144055108Y-92282821D01*
X144075643Y-92035000D01*
X144055108Y-91787179D01*
X143994063Y-91546119D01*
X143894173Y-91318393D01*
X143758164Y-91110215D01*
X143589744Y-90927262D01*
X143481642Y-90843123D01*
X143447336Y-90792463D01*
X143449359Y-90731311D01*
X143481642Y-90686876D01*
X143589744Y-90602738D01*
X143758164Y-90419785D01*
X143894173Y-90211607D01*
X143994063Y-89983881D01*
X144055108Y-89742821D01*
X144075643Y-89495000D01*
X144055108Y-89247179D01*
X143994063Y-89006119D01*
X143894173Y-88778393D01*
X143758164Y-88570215D01*
X143589744Y-88387262D01*
X143481642Y-88303123D01*
X143447336Y-88252463D01*
X143449359Y-88191311D01*
X143481642Y-88146876D01*
X143589744Y-88062738D01*
X143758164Y-87879785D01*
X143777394Y-87850350D01*
X143825049Y-87811978D01*
X143860273Y-87805500D01*
X148413766Y-87805500D01*
X148413767Y-87805500D01*
X148578082Y-87772816D01*
X148623411Y-87754038D01*
X148623414Y-87754038D01*
X148683276Y-87729242D01*
X148732863Y-87708704D01*
X148872162Y-87615627D01*
X150160627Y-86327162D01*
X150253704Y-86187863D01*
X150317816Y-86033081D01*
X150327712Y-85983333D01*
X150350500Y-85868767D01*
X150350500Y-75451233D01*
X150317816Y-75286918D01*
X150253703Y-75132137D01*
X150160626Y-74992838D01*
X150042162Y-74874374D01*
X146542162Y-71374373D01*
X146486670Y-71337294D01*
X146402869Y-71281299D01*
X146402858Y-71281293D01*
X146282634Y-71231496D01*
X146282633Y-71231495D01*
X146248082Y-71217184D01*
X146083769Y-71184500D01*
X146083767Y-71184500D01*
X140916233Y-71184500D01*
X140916230Y-71184500D01*
X140751919Y-71217183D01*
X140597138Y-71281296D01*
X140597137Y-71281296D01*
X140457838Y-71374374D01*
X140457834Y-71374377D01*
X133426707Y-78405504D01*
X133372190Y-78433281D01*
X133356703Y-78434500D01*
X130916230Y-78434500D01*
X130751920Y-78467183D01*
X130751914Y-78467185D01*
X130597137Y-78531296D01*
X130457838Y-78624374D01*
X130457834Y-78624377D01*
X121089376Y-87992834D01*
X121089373Y-87992838D01*
X120996299Y-88132130D01*
X120996293Y-88132142D01*
X120981124Y-88168766D01*
X120981124Y-88168767D01*
X120932183Y-88286919D01*
X120899500Y-88451230D01*
X120899500Y-95591703D01*
X120880593Y-95649894D01*
X120870504Y-95661707D01*
X118314376Y-98217834D01*
X118314373Y-98217838D01*
X118221299Y-98357130D01*
X118221293Y-98357141D01*
X118180433Y-98455790D01*
X118180433Y-98455791D01*
X118157185Y-98511914D01*
X118157183Y-98511920D01*
X118124500Y-98676230D01*
X118124500Y-105807353D01*
X118105593Y-105865544D01*
X118083691Y-105887446D01*
X117970210Y-105969894D01*
X117819891Y-106120213D01*
X117694950Y-106292180D01*
X117694948Y-106292184D01*
X117598443Y-106481587D01*
X117532752Y-106683761D01*
X117499500Y-106893709D01*
X117499500Y-107106290D01*
X117532752Y-107316238D01*
X117598443Y-107518412D01*
X117694948Y-107707815D01*
X117694950Y-107707819D01*
X117819891Y-107879786D01*
X117819893Y-107879788D01*
X117819896Y-107879792D01*
X117970208Y-108030104D01*
X117970211Y-108030106D01*
X117970213Y-108030108D01*
X118142180Y-108155049D01*
X118142184Y-108155051D01*
X118331588Y-108251557D01*
X118370217Y-108264108D01*
X118419717Y-108300071D01*
X118438625Y-108358262D01*
X118419718Y-108416453D01*
X118384570Y-108446472D01*
X118247279Y-108516425D01*
X118247265Y-108516433D01*
X118100830Y-108622824D01*
X117972824Y-108750830D01*
X117866433Y-108897265D01*
X117866431Y-108897269D01*
X117784250Y-109058559D01*
X117728317Y-109230707D01*
X117725261Y-109249999D01*
X117725261Y-109250000D01*
X118570854Y-109250000D01*
X118532370Y-109316657D01*
X118500000Y-109437465D01*
X118500000Y-109562535D01*
X118532370Y-109683343D01*
X118570854Y-109750000D01*
X117725261Y-109750000D01*
X117728317Y-109769292D01*
X117784250Y-109941440D01*
X117866431Y-110102730D01*
X117866433Y-110102734D01*
X117972824Y-110249169D01*
X118100830Y-110377175D01*
X118232111Y-110472555D01*
X118268075Y-110522055D01*
X118268076Y-110583240D01*
X118232112Y-110632740D01*
X118183983Y-110651135D01*
X118097210Y-110660000D01*
X118097206Y-110660000D01*
X118097203Y-110660001D01*
X118097201Y-110660001D01*
X118097199Y-110660002D01*
X117930663Y-110715187D01*
X117781347Y-110807285D01*
X117657285Y-110931347D01*
X117565187Y-111080663D01*
X117510000Y-111247205D01*
X117499500Y-111349983D01*
X117499500Y-112650016D01*
X117509999Y-112752788D01*
X117510000Y-112752795D01*
X117510001Y-112752797D01*
X117556023Y-112891683D01*
X117565187Y-112919336D01*
X117657285Y-113068652D01*
X117657286Y-113068653D01*
X117657288Y-113068656D01*
X117781344Y-113192712D01*
X117781346Y-113192713D01*
X117781347Y-113192714D01*
X117922512Y-113279785D01*
X117930666Y-113284814D01*
X117956640Y-113293420D01*
X118005929Y-113329670D01*
X118024500Y-113387395D01*
X118024500Y-119260282D01*
X118005593Y-119318473D01*
X117995504Y-119330286D01*
X115887786Y-121438004D01*
X115833269Y-121465781D01*
X115817782Y-121467000D01*
X115588143Y-121467000D01*
X115362259Y-121502776D01*
X115144741Y-121573452D01*
X114940964Y-121677281D01*
X114755935Y-121811713D01*
X114594213Y-121973435D01*
X114459781Y-122158464D01*
X114355952Y-122362241D01*
X114285276Y-122579759D01*
X114249500Y-122805642D01*
X114249500Y-123034357D01*
X114285276Y-123260240D01*
X114285278Y-123260245D01*
X114355952Y-123477758D01*
X114459783Y-123681538D01*
X114594214Y-123866566D01*
X114755934Y-124028286D01*
X114940962Y-124162717D01*
X115042241Y-124214321D01*
X115085504Y-124257584D01*
X115095076Y-124318016D01*
X115067299Y-124372533D01*
X115049035Y-124386934D01*
X115046053Y-124388761D01*
X114886549Y-124504648D01*
X114747148Y-124644049D01*
X114631264Y-124803549D01*
X114541763Y-124979206D01*
X114480839Y-125166710D01*
X114473984Y-125210000D01*
X115259252Y-125210000D01*
X115237482Y-125247708D01*
X115200000Y-125387591D01*
X115200000Y-125532409D01*
X115237482Y-125672292D01*
X115259252Y-125710000D01*
X114473984Y-125710000D01*
X114480839Y-125753289D01*
X114541763Y-125940793D01*
X114631264Y-126116450D01*
X114747148Y-126275950D01*
X114849194Y-126377996D01*
X114876971Y-126432513D01*
X114867400Y-126492945D01*
X114824135Y-126536210D01*
X114779191Y-126547000D01*
X114702133Y-126547000D01*
X114702129Y-126547000D01*
X114702128Y-126547001D01*
X114694949Y-126547772D01*
X114642519Y-126553408D01*
X114642514Y-126553409D01*
X114507670Y-126603702D01*
X114392458Y-126689950D01*
X114392450Y-126689958D01*
X114306202Y-126805170D01*
X114257744Y-126935096D01*
X114219694Y-126983011D01*
X114164986Y-126999500D01*
X110849500Y-126999500D01*
X110791309Y-126980593D01*
X110755345Y-126931093D01*
X110750500Y-126900500D01*
X110750500Y-102399499D01*
X110769407Y-102341308D01*
X110818907Y-102305344D01*
X110845248Y-102301172D01*
X110845220Y-102300641D01*
X110847851Y-102300499D01*
X110847872Y-102300499D01*
X110907483Y-102294091D01*
X110974907Y-102268943D01*
X111042329Y-102243797D01*
X111042329Y-102243796D01*
X111042331Y-102243796D01*
X111157546Y-102157546D01*
X111243796Y-102042331D01*
X111294091Y-101907483D01*
X111300500Y-101847873D01*
X111300499Y-101479813D01*
X111319406Y-101421625D01*
X111368906Y-101385661D01*
X111430091Y-101385661D01*
X111479592Y-101421625D01*
X111488120Y-101435688D01*
X111560751Y-101581551D01*
X111562532Y-101583911D01*
X112100000Y-101046443D01*
X112100000Y-101052661D01*
X112127259Y-101154394D01*
X112179920Y-101245606D01*
X112254394Y-101320080D01*
X112345606Y-101372741D01*
X112447339Y-101400000D01*
X112453553Y-101400000D01*
X111919312Y-101934241D01*
X112007581Y-101988895D01*
X112007586Y-101988898D01*
X112197683Y-102062541D01*
X112398070Y-102100000D01*
X112601930Y-102100000D01*
X112802316Y-102062541D01*
X112992415Y-101988897D01*
X112992416Y-101988897D01*
X113080686Y-101934241D01*
X112546445Y-101400000D01*
X112552661Y-101400000D01*
X112654394Y-101372741D01*
X112745606Y-101320080D01*
X112820080Y-101245606D01*
X112872741Y-101154394D01*
X112900000Y-101052661D01*
X112900000Y-101046445D01*
X113437466Y-101583911D01*
X113439245Y-101581556D01*
X113439249Y-101581549D01*
X113530112Y-101399070D01*
X113585902Y-101202989D01*
X113604712Y-101000000D01*
X113585902Y-100797010D01*
X113530112Y-100600929D01*
X113439249Y-100418450D01*
X113439244Y-100418441D01*
X113437466Y-100416087D01*
X112900000Y-100953553D01*
X112900000Y-100947339D01*
X112872741Y-100845606D01*
X112820080Y-100754394D01*
X112745606Y-100679920D01*
X112654394Y-100627259D01*
X112552661Y-100600000D01*
X112546443Y-100600000D01*
X113080686Y-100065757D01*
X112992418Y-100011104D01*
X112992413Y-100011101D01*
X112802316Y-99937458D01*
X112601930Y-99900000D01*
X112398070Y-99900000D01*
X112197683Y-99937458D01*
X112007586Y-100011101D01*
X112007584Y-100011102D01*
X111919312Y-100065757D01*
X112453555Y-100600000D01*
X112447339Y-100600000D01*
X112345606Y-100627259D01*
X112254394Y-100679920D01*
X112179920Y-100754394D01*
X112127259Y-100845606D01*
X112100000Y-100947339D01*
X112100000Y-100953554D01*
X111562533Y-100416087D01*
X111560753Y-100418445D01*
X111560750Y-100418450D01*
X111488120Y-100564312D01*
X111445257Y-100607975D01*
X111384916Y-100618104D01*
X111330145Y-100590831D01*
X111301865Y-100536574D01*
X111300499Y-100520184D01*
X111300499Y-100152133D01*
X111300499Y-100152128D01*
X111294091Y-100092517D01*
X111275310Y-100042162D01*
X111243797Y-99957670D01*
X111157549Y-99842458D01*
X111157548Y-99842457D01*
X111157546Y-99842454D01*
X111137119Y-99827162D01*
X111042329Y-99756202D01*
X110907488Y-99705910D01*
X110907483Y-99705909D01*
X110907481Y-99705908D01*
X110907477Y-99705908D01*
X110847869Y-99699499D01*
X110845223Y-99699358D01*
X110845288Y-99698131D01*
X110791309Y-99680593D01*
X110755345Y-99631093D01*
X110750500Y-99600500D01*
X110750500Y-74594500D01*
X110769407Y-74536309D01*
X110818907Y-74500345D01*
X110849500Y-74495500D01*
X114552140Y-74495500D01*
X114610331Y-74514407D01*
X114622143Y-74524496D01*
X114692148Y-74594500D01*
X114700934Y-74603286D01*
X114885962Y-74737717D01*
X114987241Y-74789321D01*
X115030504Y-74832584D01*
X115040076Y-74893016D01*
X115012299Y-74947533D01*
X114994035Y-74961934D01*
X114991053Y-74963761D01*
X114831549Y-75079648D01*
X114692148Y-75219049D01*
X114576264Y-75378549D01*
X114486763Y-75554206D01*
X114425839Y-75741710D01*
X114418984Y-75785000D01*
X115204252Y-75785000D01*
X115182482Y-75822708D01*
X115145000Y-75962591D01*
X115145000Y-76107409D01*
X115182482Y-76247292D01*
X115204252Y-76285000D01*
X114418984Y-76285000D01*
X114425839Y-76328289D01*
X114486763Y-76515793D01*
X114576264Y-76691450D01*
X114692148Y-76850950D01*
X114794194Y-76952996D01*
X114821971Y-77007513D01*
X114812400Y-77067945D01*
X114769135Y-77111210D01*
X114724191Y-77122000D01*
X114647133Y-77122000D01*
X114647129Y-77122000D01*
X114647128Y-77122001D01*
X114639949Y-77122772D01*
X114587519Y-77128408D01*
X114587514Y-77128409D01*
X114452670Y-77178702D01*
X114337458Y-77264950D01*
X114337450Y-77264958D01*
X114251202Y-77380170D01*
X114200910Y-77515011D01*
X114200908Y-77515022D01*
X114194500Y-77574629D01*
X114194500Y-79575366D01*
X114194501Y-79575370D01*
X114200908Y-79634980D01*
X114200909Y-79634985D01*
X114251202Y-79769829D01*
X114318866Y-79860216D01*
X114337454Y-79885046D01*
X114337457Y-79885048D01*
X114337458Y-79885049D01*
X114452670Y-79971297D01*
X114587511Y-80021589D01*
X114587512Y-80021589D01*
X114587517Y-80021591D01*
X114647127Y-80028000D01*
X114647140Y-80027999D01*
X114647663Y-80028028D01*
X114647768Y-80028068D01*
X114649763Y-80028283D01*
X114649705Y-80028814D01*
X114704762Y-80050013D01*
X114733846Y-80089002D01*
X114753611Y-80136719D01*
X114808368Y-80268914D01*
X114917861Y-80432782D01*
X114917864Y-80432785D01*
X114917868Y-80432790D01*
X115057220Y-80572141D01*
X115057221Y-80572141D01*
X116107858Y-81622778D01*
X116107858Y-81622779D01*
X116247209Y-81762131D01*
X116247213Y-81762134D01*
X116247218Y-81762139D01*
X116317081Y-81808820D01*
X116411078Y-81871628D01*
X116411084Y-81871630D01*
X116411086Y-81871632D01*
X116539834Y-81924961D01*
X116539833Y-81924961D01*
X116577542Y-81940580D01*
X116593164Y-81947051D01*
X116689812Y-81966275D01*
X116786459Y-81985500D01*
X116786460Y-81985500D01*
X116983540Y-81985500D01*
X121825294Y-81985500D01*
X121882077Y-82003403D01*
X122042266Y-82115568D01*
X122042267Y-82115568D01*
X122042268Y-82115569D01*
X122042276Y-82115573D01*
X122248500Y-82211737D01*
X122248504Y-82211739D01*
X122468308Y-82270635D01*
X122468312Y-82270635D01*
X122468315Y-82270636D01*
X122694997Y-82290468D01*
X122695000Y-82290468D01*
X122695003Y-82290468D01*
X122921684Y-82270636D01*
X122921685Y-82270635D01*
X122921692Y-82270635D01*
X123141496Y-82211739D01*
X123347734Y-82115568D01*
X123507922Y-82003403D01*
X123564706Y-81985500D01*
X124398540Y-81985500D01*
X124398541Y-81985500D01*
X124495188Y-81966275D01*
X124591836Y-81947051D01*
X124645165Y-81924961D01*
X124773914Y-81871632D01*
X124937782Y-81762139D01*
X125077139Y-81622782D01*
X125077141Y-81622779D01*
X125082776Y-81617144D01*
X125082779Y-81617139D01*
X128885424Y-77814496D01*
X128939941Y-77786719D01*
X128955428Y-77785500D01*
X132598540Y-77785500D01*
X132598541Y-77785500D01*
X132695188Y-77766275D01*
X132791836Y-77747051D01*
X132857661Y-77719785D01*
X132973914Y-77671632D01*
X133137782Y-77562139D01*
X133277139Y-77422782D01*
X133277139Y-77422780D01*
X133282776Y-77417144D01*
X133282779Y-77417139D01*
X140485424Y-70214496D01*
X140539941Y-70186719D01*
X140555428Y-70185500D01*
X155944572Y-70185500D01*
X156002763Y-70204407D01*
X156014576Y-70214496D01*
X157970504Y-72170424D01*
X157998281Y-72224941D01*
X157999500Y-72240428D01*
X157999500Y-73332866D01*
X157999501Y-73332870D01*
X158005908Y-73392480D01*
X158005909Y-73392485D01*
X158056202Y-73527329D01*
X158142450Y-73642541D01*
X158142454Y-73642546D01*
X158142457Y-73642548D01*
X158142458Y-73642549D01*
X158257670Y-73728797D01*
X158392511Y-73779089D01*
X158392512Y-73779089D01*
X158392517Y-73779091D01*
X158452127Y-73785500D01*
X160547872Y-73785499D01*
X160607483Y-73779091D01*
X160674907Y-73753943D01*
X160742329Y-73728797D01*
X160742329Y-73728796D01*
X160742331Y-73728796D01*
X160857546Y-73642546D01*
X160943796Y-73527331D01*
X160994091Y-73392483D01*
X161000500Y-73332873D01*
X161000499Y-71237128D01*
X160994091Y-71177517D01*
X160994090Y-71177514D01*
X160943797Y-71042670D01*
X160857549Y-70927458D01*
X160857548Y-70927457D01*
X160857546Y-70927454D01*
X160857541Y-70927450D01*
X160742329Y-70841202D01*
X160607488Y-70790910D01*
X160607483Y-70790909D01*
X160607481Y-70790908D01*
X160607477Y-70790908D01*
X160576249Y-70787550D01*
X160547873Y-70784500D01*
X160547870Y-70784500D01*
X159455428Y-70784500D01*
X159397237Y-70765593D01*
X159385424Y-70755504D01*
X157177141Y-68547221D01*
X157177141Y-68547220D01*
X157037790Y-68407868D01*
X157037785Y-68407864D01*
X157037782Y-68407861D01*
X156991099Y-68376668D01*
X156873921Y-68298371D01*
X156873912Y-68298367D01*
X156836203Y-68282747D01*
X156745165Y-68245038D01*
X156745164Y-68245037D01*
X156691837Y-68222949D01*
X156643512Y-68213336D01*
X156595188Y-68203724D01*
X156595187Y-68203723D01*
X156498543Y-68184500D01*
X156498541Y-68184500D01*
X140001459Y-68184500D01*
X140001456Y-68184500D01*
X139904812Y-68203723D01*
X139904812Y-68203724D01*
X139880650Y-68208530D01*
X139808161Y-68222949D01*
X139808158Y-68222950D01*
X139754834Y-68245037D01*
X139754834Y-68245038D01*
X139717124Y-68260657D01*
X139626086Y-68298367D01*
X139462218Y-68407861D01*
X139462214Y-68407864D01*
X139322858Y-68547221D01*
X132114576Y-75755504D01*
X132060059Y-75783281D01*
X132044572Y-75784500D01*
X129349500Y-75784500D01*
X129291309Y-75765593D01*
X129255345Y-75716093D01*
X129250500Y-75685500D01*
X129250500Y-70202272D01*
X129269407Y-70144081D01*
X129276655Y-70135229D01*
X129438164Y-69959785D01*
X129574173Y-69751607D01*
X129674063Y-69523881D01*
X129735108Y-69282821D01*
X129755643Y-69035000D01*
X133244357Y-69035000D01*
X133264891Y-69282819D01*
X133264892Y-69282821D01*
X133325937Y-69523881D01*
X133425827Y-69751607D01*
X133561836Y-69959785D01*
X133730256Y-70142738D01*
X133926491Y-70295474D01*
X134145190Y-70413828D01*
X134380386Y-70494571D01*
X134625665Y-70535500D01*
X134874335Y-70535500D01*
X135119614Y-70494571D01*
X135354810Y-70413828D01*
X135573509Y-70295474D01*
X135769744Y-70142738D01*
X135938164Y-69959785D01*
X136074173Y-69751607D01*
X136174063Y-69523881D01*
X136235108Y-69282821D01*
X136255643Y-69035000D01*
X136235108Y-68787179D01*
X136174063Y-68546119D01*
X136074173Y-68318393D01*
X135938164Y-68110215D01*
X135769744Y-67927262D01*
X135573509Y-67774526D01*
X135354813Y-67656173D01*
X135119611Y-67575428D01*
X134874335Y-67534500D01*
X134625665Y-67534500D01*
X134380388Y-67575428D01*
X134145186Y-67656173D01*
X133926490Y-67774526D01*
X133926487Y-67774528D01*
X133730259Y-67927259D01*
X133561835Y-68110216D01*
X133425826Y-68318395D01*
X133325937Y-68546120D01*
X133264891Y-68787180D01*
X133244357Y-69035000D01*
X129755643Y-69035000D01*
X129735108Y-68787179D01*
X129674063Y-68546119D01*
X129574173Y-68318393D01*
X129438164Y-68110215D01*
X129269744Y-67927262D01*
X129073509Y-67774526D01*
X128854813Y-67656173D01*
X128619611Y-67575428D01*
X128374335Y-67534500D01*
X128125665Y-67534500D01*
X127880388Y-67575428D01*
X127645186Y-67656173D01*
X127426490Y-67774526D01*
X127426487Y-67774528D01*
X127230259Y-67927259D01*
X127061835Y-68110216D01*
X126925826Y-68318395D01*
X126825937Y-68546120D01*
X126764891Y-68787180D01*
X126744357Y-69035000D01*
X126764891Y-69282819D01*
X126764892Y-69282821D01*
X126825937Y-69523881D01*
X126925827Y-69751607D01*
X127061836Y-69959785D01*
X127223337Y-70135222D01*
X127248838Y-70190839D01*
X127249500Y-70202272D01*
X127249500Y-76579572D01*
X127230593Y-76637763D01*
X127220504Y-76649576D01*
X123914576Y-79955504D01*
X123860059Y-79983281D01*
X123844572Y-79984500D01*
X123564706Y-79984500D01*
X123507922Y-79966596D01*
X123477973Y-79945626D01*
X123347734Y-79854432D01*
X123347733Y-79854431D01*
X123347731Y-79854430D01*
X123347723Y-79854426D01*
X123141499Y-79758262D01*
X123141500Y-79758262D01*
X123108268Y-79749357D01*
X123027502Y-79727716D01*
X122976189Y-79694393D01*
X122954262Y-79637271D01*
X122970098Y-79578171D01*
X123017364Y-79539775D01*
X123187412Y-79473898D01*
X123187416Y-79473897D01*
X123275686Y-79419241D01*
X122741445Y-78885000D01*
X122747661Y-78885000D01*
X122849394Y-78857741D01*
X122940606Y-78805080D01*
X123015080Y-78730606D01*
X123067741Y-78639394D01*
X123095000Y-78537661D01*
X123095000Y-78531445D01*
X123632466Y-79068911D01*
X123634245Y-79066556D01*
X123634249Y-79066549D01*
X123725112Y-78884070D01*
X123780902Y-78687989D01*
X123799712Y-78485000D01*
X123780902Y-78282010D01*
X123725112Y-78085929D01*
X123634249Y-77903450D01*
X123634244Y-77903441D01*
X123632466Y-77901087D01*
X123095000Y-78438553D01*
X123095000Y-78432339D01*
X123067741Y-78330606D01*
X123015080Y-78239394D01*
X122940606Y-78164920D01*
X122849394Y-78112259D01*
X122747661Y-78085000D01*
X122741443Y-78085000D01*
X123275686Y-77550757D01*
X123187418Y-77496104D01*
X123187413Y-77496101D01*
X122997316Y-77422458D01*
X122796930Y-77385000D01*
X122593070Y-77385000D01*
X122392683Y-77422458D01*
X122202586Y-77496101D01*
X122202584Y-77496102D01*
X122114312Y-77550757D01*
X122648555Y-78085000D01*
X122642339Y-78085000D01*
X122540606Y-78112259D01*
X122449394Y-78164920D01*
X122374920Y-78239394D01*
X122322259Y-78330606D01*
X122295000Y-78432339D01*
X122295000Y-78438554D01*
X121757533Y-77901087D01*
X121755753Y-77903445D01*
X121755750Y-77903449D01*
X121664887Y-78085929D01*
X121609097Y-78282010D01*
X121590287Y-78485000D01*
X121609097Y-78687989D01*
X121664887Y-78884070D01*
X121755751Y-79066551D01*
X121757532Y-79068911D01*
X122295000Y-78531443D01*
X122295000Y-78537661D01*
X122322259Y-78639394D01*
X122374920Y-78730606D01*
X122449394Y-78805080D01*
X122540606Y-78857741D01*
X122642339Y-78885000D01*
X122648553Y-78885000D01*
X122114312Y-79419241D01*
X122202581Y-79473895D01*
X122202586Y-79473898D01*
X122372636Y-79539775D01*
X122420067Y-79578426D01*
X122435721Y-79637575D01*
X122413618Y-79694629D01*
X122362496Y-79727717D01*
X122248500Y-79758262D01*
X122042276Y-79854426D01*
X122042268Y-79854430D01*
X121882078Y-79966596D01*
X121825294Y-79984500D01*
X117340428Y-79984500D01*
X117282237Y-79965593D01*
X117270424Y-79955504D01*
X117169102Y-79854182D01*
X117141325Y-79799665D01*
X117146347Y-79749583D01*
X117189091Y-79634983D01*
X117195500Y-79575373D01*
X117195499Y-77574628D01*
X117189091Y-77515017D01*
X117154690Y-77422782D01*
X117138797Y-77380170D01*
X117052549Y-77264958D01*
X117052548Y-77264957D01*
X117052546Y-77264954D01*
X117052541Y-77264950D01*
X116937329Y-77178702D01*
X116802488Y-77128410D01*
X116802483Y-77128409D01*
X116802481Y-77128408D01*
X116802477Y-77128408D01*
X116771249Y-77125050D01*
X116742873Y-77122000D01*
X116742870Y-77122000D01*
X116665810Y-77122000D01*
X116607619Y-77103093D01*
X116571655Y-77053593D01*
X116571655Y-76992407D01*
X116595806Y-76952996D01*
X116697851Y-76850950D01*
X116813735Y-76691450D01*
X116903236Y-76515793D01*
X116964160Y-76328289D01*
X116971016Y-76285000D01*
X116185748Y-76285000D01*
X116207518Y-76247292D01*
X116245000Y-76107409D01*
X116245000Y-75962591D01*
X116207518Y-75822708D01*
X116185748Y-75785000D01*
X116971016Y-75785000D01*
X116964160Y-75741710D01*
X116903236Y-75554206D01*
X116813735Y-75378549D01*
X116697851Y-75219049D01*
X116558450Y-75079648D01*
X116398951Y-74963765D01*
X116395970Y-74961938D01*
X116356237Y-74915409D01*
X116351441Y-74854412D01*
X116383414Y-74802245D01*
X116402755Y-74789322D01*
X116463240Y-74758504D01*
X116504033Y-74737720D01*
X116504034Y-74737719D01*
X116504033Y-74737719D01*
X116504038Y-74737717D01*
X116689066Y-74603286D01*
X116850786Y-74441566D01*
X116985217Y-74256538D01*
X117089048Y-74052758D01*
X117159722Y-73835245D01*
X117167601Y-73785499D01*
X117195500Y-73609357D01*
X117195500Y-73380642D01*
X117159723Y-73154759D01*
X117159722Y-73154755D01*
X117089048Y-72937242D01*
X116985217Y-72733462D01*
X116850786Y-72548434D01*
X116823637Y-72521285D01*
X116795862Y-72466771D01*
X116805433Y-72406339D01*
X116823640Y-72381280D01*
X117390426Y-71814496D01*
X117444942Y-71786719D01*
X117460429Y-71785500D01*
X121825294Y-71785500D01*
X121882077Y-71803403D01*
X122042266Y-71915568D01*
X122042267Y-71915568D01*
X122042268Y-71915569D01*
X122042276Y-71915573D01*
X122248500Y-72011737D01*
X122248504Y-72011739D01*
X122362498Y-72042283D01*
X122413810Y-72075606D01*
X122435737Y-72132727D01*
X122419902Y-72191828D01*
X122372636Y-72230224D01*
X122202586Y-72296101D01*
X122202584Y-72296102D01*
X122114312Y-72350757D01*
X122648555Y-72885000D01*
X122642339Y-72885000D01*
X122540606Y-72912259D01*
X122449394Y-72964920D01*
X122374920Y-73039394D01*
X122322259Y-73130606D01*
X122295000Y-73232339D01*
X122295000Y-73238554D01*
X121757533Y-72701087D01*
X121755753Y-72703445D01*
X121755750Y-72703449D01*
X121664887Y-72885929D01*
X121609097Y-73082010D01*
X121590287Y-73285000D01*
X121609097Y-73487989D01*
X121664887Y-73684070D01*
X121755751Y-73866551D01*
X121757532Y-73868911D01*
X122295000Y-73331443D01*
X122295000Y-73337661D01*
X122322259Y-73439394D01*
X122374920Y-73530606D01*
X122449394Y-73605080D01*
X122540606Y-73657741D01*
X122642339Y-73685000D01*
X122648553Y-73685000D01*
X122114312Y-74219241D01*
X122202581Y-74273895D01*
X122202586Y-74273898D01*
X122392683Y-74347541D01*
X122593070Y-74385000D01*
X122796930Y-74385000D01*
X122997316Y-74347541D01*
X123187415Y-74273897D01*
X123187416Y-74273897D01*
X123275686Y-74219241D01*
X122741445Y-73685000D01*
X122747661Y-73685000D01*
X122849394Y-73657741D01*
X122940606Y-73605080D01*
X123015080Y-73530606D01*
X123067741Y-73439394D01*
X123095000Y-73337661D01*
X123095000Y-73331445D01*
X123632466Y-73868911D01*
X123634245Y-73866556D01*
X123634249Y-73866549D01*
X123725112Y-73684070D01*
X123780902Y-73487989D01*
X123799712Y-73285000D01*
X123780902Y-73082010D01*
X123725112Y-72885929D01*
X123634249Y-72703450D01*
X123634244Y-72703441D01*
X123632466Y-72701087D01*
X123095000Y-73238553D01*
X123095000Y-73232339D01*
X123067741Y-73130606D01*
X123015080Y-73039394D01*
X122940606Y-72964920D01*
X122849394Y-72912259D01*
X122747661Y-72885000D01*
X122741443Y-72885000D01*
X123275686Y-72350757D01*
X123187418Y-72296104D01*
X123187413Y-72296101D01*
X123017363Y-72230224D01*
X122969932Y-72191572D01*
X122954278Y-72132423D01*
X122976381Y-72075370D01*
X123027501Y-72042283D01*
X123141496Y-72011739D01*
X123347734Y-71915568D01*
X123534139Y-71785047D01*
X123695047Y-71624139D01*
X123825568Y-71437734D01*
X123921739Y-71231496D01*
X123980635Y-71011692D01*
X123988006Y-70927450D01*
X124000468Y-70785003D01*
X124000468Y-70784996D01*
X123980636Y-70558315D01*
X123980635Y-70558312D01*
X123980635Y-70558308D01*
X123921739Y-70338504D01*
X123901674Y-70295474D01*
X123825573Y-70132276D01*
X123825571Y-70132272D01*
X123825568Y-70132266D01*
X123704797Y-69959785D01*
X123695053Y-69945869D01*
X123695052Y-69945867D01*
X123695049Y-69945864D01*
X123695047Y-69945861D01*
X123534139Y-69784953D01*
X123534135Y-69784950D01*
X123534132Y-69784947D01*
X123534130Y-69784946D01*
X123347737Y-69654434D01*
X123347736Y-69654433D01*
X123347734Y-69654432D01*
X123347731Y-69654430D01*
X123347723Y-69654426D01*
X123141499Y-69558262D01*
X123141500Y-69558262D01*
X123013180Y-69523879D01*
X122921692Y-69499365D01*
X122921691Y-69499364D01*
X122921684Y-69499363D01*
X122695003Y-69479532D01*
X122694997Y-69479532D01*
X122468315Y-69499363D01*
X122248499Y-69558262D01*
X122042276Y-69654426D01*
X122042268Y-69654430D01*
X121913823Y-69744367D01*
X121903485Y-69751607D01*
X121882078Y-69766596D01*
X121825294Y-69784500D01*
X116906456Y-69784500D01*
X116809812Y-69803723D01*
X116809812Y-69803724D01*
X116785650Y-69808530D01*
X116713161Y-69822949D01*
X116713158Y-69822950D01*
X116659834Y-69845037D01*
X116659834Y-69845038D01*
X116606505Y-69867127D01*
X116531087Y-69898367D01*
X116460008Y-69945861D01*
X116367222Y-70007857D01*
X115057220Y-71317859D01*
X114917864Y-71457214D01*
X114917861Y-71457218D01*
X114808370Y-71621082D01*
X114808367Y-71621085D01*
X114756192Y-71747050D01*
X114756192Y-71747051D01*
X114732950Y-71803160D01*
X114732947Y-71803169D01*
X114731373Y-71811084D01*
X114731373Y-71811086D01*
X114717286Y-71881908D01*
X114694500Y-71996456D01*
X114694500Y-72352140D01*
X114675593Y-72410331D01*
X114665504Y-72422144D01*
X114622144Y-72465504D01*
X114567627Y-72493281D01*
X114552140Y-72494500D01*
X110849500Y-72494500D01*
X110791309Y-72475593D01*
X110755345Y-72426093D01*
X110750500Y-72395500D01*
X110750500Y-71881904D01*
X110713554Y-71648636D01*
X110713553Y-71648632D01*
X110640568Y-71424008D01*
X110533343Y-71213567D01*
X110394517Y-71022490D01*
X110227510Y-70855483D01*
X110036433Y-70716657D01*
X110036432Y-70716656D01*
X110036430Y-70716655D01*
X109825992Y-70609432D01*
X109601363Y-70536445D01*
X109368095Y-70499500D01*
X109368092Y-70499500D01*
X109131908Y-70499500D01*
X109131905Y-70499500D01*
X108898636Y-70536445D01*
X108674007Y-70609432D01*
X108463569Y-70716655D01*
X108272491Y-70855482D01*
X108105482Y-71022491D01*
X107966655Y-71213569D01*
X107859432Y-71424007D01*
X107786445Y-71648636D01*
X107749500Y-71881904D01*
X101525500Y-71881904D01*
X101525500Y-64413710D01*
X104399500Y-64413710D01*
X104399500Y-64656289D01*
X104431161Y-64896781D01*
X104431161Y-64896786D01*
X104493944Y-65131092D01*
X104493948Y-65131105D01*
X104586772Y-65355204D01*
X104586774Y-65355208D01*
X104586776Y-65355212D01*
X104708064Y-65565289D01*
X104708066Y-65565292D01*
X104855729Y-65757731D01*
X104855731Y-65757733D01*
X104855735Y-65757738D01*
X105027262Y-65929265D01*
X105027266Y-65929268D01*
X105027268Y-65929270D01*
X105165710Y-66035500D01*
X105219711Y-66076936D01*
X105429788Y-66198224D01*
X105653900Y-66291054D01*
X105888211Y-66353838D01*
X106128712Y-66385500D01*
X106128713Y-66385500D01*
X106371287Y-66385500D01*
X106371288Y-66385500D01*
X106611789Y-66353838D01*
X106846100Y-66291054D01*
X107070212Y-66198224D01*
X107280289Y-66076936D01*
X107472738Y-65929265D01*
X107644265Y-65757738D01*
X107791936Y-65565289D01*
X107913224Y-65355212D01*
X108006054Y-65131100D01*
X108068838Y-64896789D01*
X108100500Y-64656288D01*
X108100500Y-64535000D01*
X126744357Y-64535000D01*
X126764891Y-64782819D01*
X126764892Y-64782821D01*
X126825937Y-65023881D01*
X126925827Y-65251607D01*
X127061836Y-65459785D01*
X127230256Y-65642738D01*
X127426491Y-65795474D01*
X127645190Y-65913828D01*
X127880386Y-65994571D01*
X128125665Y-66035500D01*
X128374335Y-66035500D01*
X128619614Y-65994571D01*
X128854810Y-65913828D01*
X129073509Y-65795474D01*
X129269744Y-65642738D01*
X129438164Y-65459785D01*
X129574173Y-65251607D01*
X129674063Y-65023881D01*
X129735108Y-64782821D01*
X129755643Y-64535000D01*
X129735108Y-64287179D01*
X129674063Y-64046119D01*
X129574173Y-63818393D01*
X129438164Y-63610215D01*
X129269744Y-63427262D01*
X129073509Y-63274526D01*
X128854813Y-63156173D01*
X128619611Y-63075428D01*
X128374335Y-63034500D01*
X128125665Y-63034500D01*
X127880388Y-63075428D01*
X127645186Y-63156173D01*
X127426490Y-63274526D01*
X127426487Y-63274528D01*
X127230259Y-63427259D01*
X127230256Y-63427261D01*
X127230256Y-63427262D01*
X127061836Y-63610215D01*
X126925827Y-63818393D01*
X126832441Y-64031293D01*
X126825937Y-64046120D01*
X126764891Y-64287180D01*
X126744357Y-64535000D01*
X108100500Y-64535000D01*
X108100500Y-64413712D01*
X108068838Y-64173211D01*
X108006054Y-63938900D01*
X107913224Y-63714788D01*
X107791936Y-63504711D01*
X107791933Y-63504707D01*
X107644270Y-63312268D01*
X107644268Y-63312266D01*
X107644265Y-63312262D01*
X107472738Y-63140735D01*
X107472733Y-63140731D01*
X107472731Y-63140729D01*
X107280292Y-62993066D01*
X107280289Y-62993064D01*
X107070212Y-62871776D01*
X107070208Y-62871774D01*
X107070204Y-62871772D01*
X106846105Y-62778948D01*
X106846104Y-62778947D01*
X106846100Y-62778946D01*
X106611789Y-62716162D01*
X106611786Y-62716161D01*
X106611784Y-62716161D01*
X106371289Y-62684500D01*
X106371288Y-62684500D01*
X106128712Y-62684500D01*
X106128710Y-62684500D01*
X105888218Y-62716161D01*
X105888213Y-62716161D01*
X105653907Y-62778944D01*
X105653894Y-62778948D01*
X105429795Y-62871772D01*
X105219707Y-62993066D01*
X105027268Y-63140729D01*
X104855729Y-63312268D01*
X104708066Y-63504707D01*
X104586772Y-63714795D01*
X104493948Y-63938894D01*
X104493944Y-63938907D01*
X104431161Y-64173213D01*
X104431161Y-64173218D01*
X104399500Y-64413710D01*
X101525500Y-64413710D01*
X101525500Y-59909500D01*
X101544407Y-59851309D01*
X101593907Y-59815345D01*
X101624500Y-59810500D01*
X180425489Y-59810500D01*
X180483680Y-59829407D01*
G37*
%TD.AperFunction*%
%TD*%
%TA.AperFunction,NonConductor*%
G36*
X140443039Y-103804685D02*
G01*
X140488794Y-103857489D01*
X140500000Y-103909000D01*
X140500000Y-109485638D01*
X140480315Y-109552677D01*
X140427511Y-109598432D01*
X140358353Y-109608376D01*
X140294797Y-109579351D01*
X140288319Y-109573319D01*
X136500000Y-105785000D01*
X135624000Y-105785000D01*
X135556961Y-105765315D01*
X135511206Y-105712511D01*
X135500000Y-105661000D01*
X135500000Y-103909000D01*
X135519685Y-103841961D01*
X135572489Y-103796206D01*
X135624000Y-103785000D01*
X140376000Y-103785000D01*
X140443039Y-103804685D01*
G37*
%TD.AperFunction*%
%TA.AperFunction,NonConductor*%
G36*
X139943039Y-98519685D02*
G01*
X139988794Y-98572489D01*
X140000000Y-98624000D01*
X140000000Y-100876000D01*
X139980315Y-100943039D01*
X139927511Y-100988794D01*
X139876000Y-101000000D01*
X135624000Y-101000000D01*
X135556961Y-100980315D01*
X135511206Y-100927511D01*
X135500000Y-100876000D01*
X135500000Y-100500000D01*
X131500000Y-100500000D01*
X131500000Y-103376000D01*
X131480315Y-103443039D01*
X131427511Y-103488794D01*
X131376000Y-103500000D01*
X130124000Y-103500000D01*
X130056961Y-103480315D01*
X130011206Y-103427511D01*
X130000000Y-103376000D01*
X130000000Y-100051362D01*
X130019685Y-99984323D01*
X130036319Y-99963681D01*
X130463681Y-99536319D01*
X130525004Y-99502834D01*
X130551362Y-99500000D01*
X138000000Y-99500000D01*
X138348849Y-99151150D01*
X138367625Y-99135742D01*
X138419655Y-99100977D01*
X138565977Y-98954655D01*
X138565977Y-98954653D01*
X138576181Y-98944450D01*
X138576184Y-98944445D01*
X138984312Y-98536319D01*
X139045635Y-98502834D01*
X139071993Y-98500000D01*
X139876000Y-98500000D01*
X139943039Y-98519685D01*
G37*
%TD.AperFunction*%
M02*
